<svg xmlns="http://www.w3.org/2000/svg" width="1280" height="730" viewBox="0 0 1280 730" role="img">
<defs>
  <filter id="shadow" x="-12%" y="-12%" width="124%" height="124%">
    <feDropShadow dx="0" dy="16" stdDeviation="16" flood-color="#202124" flood-opacity="0.11"/>
  </filter>
  <linearGradient id="barGloss" x1="0" x2="1" y1="0" y2="0">
    <stop offset="0%" stop-color="#ffffff" stop-opacity="0.18"/>
    <stop offset="100%" stop-color="#ffffff" stop-opacity="0"/>
  </linearGradient>
</defs>
<rect width="1280" height="730" fill="#fbfaf7"/>
<rect x="34" y="34" width="1212" height="662" rx="18" fill="#fffdf8" stroke="#ded6c9" filter="url(#shadow)"/>
<text x="78" y="82" fill="#263c61" font-family="Hiragino Mincho ProN, Yu Mincho, serif" font-size="32" font-weight="700" letter-spacing="0">置いたあと、何を比べるか</text>
<text x="78" y="116" fill="#6f6a62" font-family="Hiragino Sans, Yu Gothic, sans-serif" font-size="17" letter-spacing="0">マスに置いた順番そのものではなく、置いた後に隣り合う歌の組み合わせを全部拾って平均する。</text>
<text x="92" y="166" fill="#496f86" font-family="Hiragino Mincho ProN, Yu Mincho, serif" font-size="22" font-weight="700" letter-spacing="0">上下左右で拾う</text>
<rect x="80" y="184" width="314" height="314" fill="#fffefa" stroke="#ded6c9" rx="16" stroke-width="1.2"/>
<rect x="92" y="196" width="56" height="56" fill="#f4efe6" stroke="#ded6c9" rx="8" stroke-width="1"/>
<text x="121.0" y="231.0" fill="#6f6a62" font-family="Hiragino Sans, Yu Gothic, sans-serif" font-size="14" font-weight="700" text-anchor="middle" letter-spacing="0">S012</text>
<rect x="150" y="196" width="56" height="56" fill="#f4efe6" stroke="#ded6c9" rx="8" stroke-width="1"/>
<text x="179.0" y="231.0" fill="#6f6a62" font-family="Hiragino Sans, Yu Gothic, sans-serif" font-size="14" font-weight="700" text-anchor="middle" letter-spacing="0">S041</text>
<rect x="208" y="196" width="56" height="56" fill="#f4efe6" stroke="#ded6c9" rx="8" stroke-width="1"/>
<text x="237.0" y="231.0" fill="#6f6a62" font-family="Hiragino Sans, Yu Gothic, sans-serif" font-size="14" font-weight="700" text-anchor="middle" letter-spacing="0">S083</text>
<rect x="266" y="196" width="56" height="56" fill="#f4efe6" stroke="#ded6c9" rx="8" stroke-width="1"/>
<text x="295.0" y="231.0" fill="#6f6a62" font-family="Hiragino Sans, Yu Gothic, sans-serif" font-size="14" font-weight="700" text-anchor="middle" letter-spacing="0">S006</text>
<rect x="324" y="196" width="56" height="56" fill="#f4efe6" stroke="#ded6c9" rx="8" stroke-width="1"/>
<text x="353.0" y="231.0" fill="#6f6a62" font-family="Hiragino Sans, Yu Gothic, sans-serif" font-size="14" font-weight="700" text-anchor="middle" letter-spacing="0">S058</text>
<rect x="92" y="254" width="56" height="56" fill="#f4efe6" stroke="#ded6c9" rx="8" stroke-width="1"/>
<text x="121.0" y="289.0" fill="#6f6a62" font-family="Hiragino Sans, Yu Gothic, sans-serif" font-size="14" font-weight="700" text-anchor="middle" letter-spacing="0">S097</text>
<rect x="150" y="254" width="56" height="56" fill="#f4efe6" stroke="#ded6c9" rx="8" stroke-width="1"/>
<text x="179.0" y="289.0" fill="#6f6a62" font-family="Hiragino Sans, Yu Gothic, sans-serif" font-size="14" font-weight="700" text-anchor="middle" letter-spacing="0">S024</text>
<rect x="208" y="254" width="56" height="56" fill="#eadfcf" stroke="#a77d35" rx="8" stroke-width="2"/>
<text x="237.0" y="289.0" fill="#202124" font-family="Hiragino Sans, Yu Gothic, sans-serif" font-size="14" font-weight="700" text-anchor="middle" letter-spacing="0">S073</text>
<rect x="266" y="254" width="56" height="56" fill="#f4efe6" stroke="#ded6c9" rx="8" stroke-width="1"/>
<text x="295.0" y="289.0" fill="#6f6a62" font-family="Hiragino Sans, Yu Gothic, sans-serif" font-size="14" font-weight="700" text-anchor="middle" letter-spacing="0">S031</text>
<rect x="324" y="254" width="56" height="56" fill="#f4efe6" stroke="#ded6c9" rx="8" stroke-width="1"/>
<text x="353.0" y="289.0" fill="#6f6a62" font-family="Hiragino Sans, Yu Gothic, sans-serif" font-size="14" font-weight="700" text-anchor="middle" letter-spacing="0">S089</text>
<rect x="92" y="312" width="56" height="56" fill="#f4efe6" stroke="#ded6c9" rx="8" stroke-width="1"/>
<text x="121.0" y="347.0" fill="#6f6a62" font-family="Hiragino Sans, Yu Gothic, sans-serif" font-size="14" font-weight="700" text-anchor="middle" letter-spacing="0">S045</text>
<rect x="150" y="312" width="56" height="56" fill="#eadfcf" stroke="#a77d35" rx="8" stroke-width="2"/>
<text x="179.0" y="347.0" fill="#202124" font-family="Hiragino Sans, Yu Gothic, sans-serif" font-size="14" font-weight="700" text-anchor="middle" letter-spacing="0">S066</text>
<rect x="208" y="312" width="56" height="56" fill="#496f86" stroke="#496f86" rx="8" stroke-width="2"/>
<text x="237.0" y="347.0" fill="#fffdf8" font-family="Hiragino Sans, Yu Gothic, sans-serif" font-size="14" font-weight="700" text-anchor="middle" letter-spacing="0">S076</text>
<rect x="266" y="312" width="56" height="56" fill="#eadfcf" stroke="#a77d35" rx="8" stroke-width="2"/>
<text x="295.0" y="347.0" fill="#202124" font-family="Hiragino Sans, Yu Gothic, sans-serif" font-size="14" font-weight="700" text-anchor="middle" letter-spacing="0">S009</text>
<rect x="324" y="312" width="56" height="56" fill="#f4efe6" stroke="#ded6c9" rx="8" stroke-width="1"/>
<text x="353.0" y="347.0" fill="#6f6a62" font-family="Hiragino Sans, Yu Gothic, sans-serif" font-size="14" font-weight="700" text-anchor="middle" letter-spacing="0">S052</text>
<rect x="92" y="370" width="56" height="56" fill="#f4efe6" stroke="#ded6c9" rx="8" stroke-width="1"/>
<text x="121.0" y="405.0" fill="#6f6a62" font-family="Hiragino Sans, Yu Gothic, sans-serif" font-size="14" font-weight="700" text-anchor="middle" letter-spacing="0">S014</text>
<rect x="150" y="370" width="56" height="56" fill="#f4efe6" stroke="#ded6c9" rx="8" stroke-width="1"/>
<text x="179.0" y="405.0" fill="#6f6a62" font-family="Hiragino Sans, Yu Gothic, sans-serif" font-size="14" font-weight="700" text-anchor="middle" letter-spacing="0">S030</text>
<rect x="208" y="370" width="56" height="56" fill="#eadfcf" stroke="#a77d35" rx="8" stroke-width="2"/>
<text x="237.0" y="405.0" fill="#202124" font-family="Hiragino Sans, Yu Gothic, sans-serif" font-size="14" font-weight="700" text-anchor="middle" letter-spacing="0">S090</text>
<rect x="266" y="370" width="56" height="56" fill="#f4efe6" stroke="#ded6c9" rx="8" stroke-width="1"/>
<text x="295.0" y="405.0" fill="#6f6a62" font-family="Hiragino Sans, Yu Gothic, sans-serif" font-size="14" font-weight="700" text-anchor="middle" letter-spacing="0">S061</text>
<rect x="324" y="370" width="56" height="56" fill="#f4efe6" stroke="#ded6c9" rx="8" stroke-width="1"/>
<text x="353.0" y="405.0" fill="#6f6a62" font-family="Hiragino Sans, Yu Gothic, sans-serif" font-size="14" font-weight="700" text-anchor="middle" letter-spacing="0">S018</text>
<rect x="92" y="428" width="56" height="56" fill="#f4efe6" stroke="#ded6c9" rx="8" stroke-width="1"/>
<text x="121.0" y="463.0" fill="#6f6a62" font-family="Hiragino Sans, Yu Gothic, sans-serif" font-size="14" font-weight="700" text-anchor="middle" letter-spacing="0">S100</text>
<rect x="150" y="428" width="56" height="56" fill="#f4efe6" stroke="#ded6c9" rx="8" stroke-width="1"/>
<text x="179.0" y="463.0" fill="#6f6a62" font-family="Hiragino Sans, Yu Gothic, sans-serif" font-size="14" font-weight="700" text-anchor="middle" letter-spacing="0">S005</text>
<rect x="208" y="428" width="56" height="56" fill="#f4efe6" stroke="#ded6c9" rx="8" stroke-width="1"/>
<text x="237.0" y="463.0" fill="#6f6a62" font-family="Hiragino Sans, Yu Gothic, sans-serif" font-size="14" font-weight="700" text-anchor="middle" letter-spacing="0">S037</text>
<rect x="266" y="428" width="56" height="56" fill="#f4efe6" stroke="#ded6c9" rx="8" stroke-width="1"/>
<text x="295.0" y="463.0" fill="#6f6a62" font-family="Hiragino Sans, Yu Gothic, sans-serif" font-size="14" font-weight="700" text-anchor="middle" letter-spacing="0">S048</text>
<rect x="324" y="428" width="56" height="56" fill="#f4efe6" stroke="#ded6c9" rx="8" stroke-width="1"/>
<text x="353.0" y="463.0" fill="#6f6a62" font-family="Hiragino Sans, Yu Gothic, sans-serif" font-size="14" font-weight="700" text-anchor="middle" letter-spacing="0">S071</text>
<line x1="237.0" y1="341.0" x2="237.0" y2="283.0" stroke="#496f86" stroke-width="3" opacity="0.65"/>
<line x1="237.0" y1="341.0" x2="179.0" y2="341.0" stroke="#496f86" stroke-width="3" opacity="0.65"/>
<line x1="237.0" y1="341.0" x2="295.0" y2="341.0" stroke="#496f86" stroke-width="3" opacity="0.65"/>
<line x1="237.0" y1="341.0" x2="237.0" y2="399.0" stroke="#496f86" stroke-width="3" opacity="0.65"/>
<text x="470" y="166" fill="#8f4e76" font-family="Hiragino Mincho ProN, Yu Mincho, serif" font-size="22" font-weight="700" letter-spacing="0">斜めも含めて拾う</text>
<rect x="458" y="184" width="314" height="314" fill="#fffefa" stroke="#ded6c9" rx="16" stroke-width="1.2"/>
<rect x="470" y="196" width="56" height="56" fill="#f4efe6" stroke="#ded6c9" rx="8" stroke-width="1"/>
<text x="499.0" y="231.0" fill="#6f6a62" font-family="Hiragino Sans, Yu Gothic, sans-serif" font-size="14" font-weight="700" text-anchor="middle" letter-spacing="0">S012</text>
<rect x="528" y="196" width="56" height="56" fill="#f4efe6" stroke="#ded6c9" rx="8" stroke-width="1"/>
<text x="557.0" y="231.0" fill="#6f6a62" font-family="Hiragino Sans, Yu Gothic, sans-serif" font-size="14" font-weight="700" text-anchor="middle" letter-spacing="0">S041</text>
<rect x="586" y="196" width="56" height="56" fill="#f4efe6" stroke="#ded6c9" rx="8" stroke-width="1"/>
<text x="615.0" y="231.0" fill="#6f6a62" font-family="Hiragino Sans, Yu Gothic, sans-serif" font-size="14" font-weight="700" text-anchor="middle" letter-spacing="0">S083</text>
<rect x="644" y="196" width="56" height="56" fill="#f4efe6" stroke="#ded6c9" rx="8" stroke-width="1"/>
<text x="673.0" y="231.0" fill="#6f6a62" font-family="Hiragino Sans, Yu Gothic, sans-serif" font-size="14" font-weight="700" text-anchor="middle" letter-spacing="0">S006</text>
<rect x="702" y="196" width="56" height="56" fill="#f4efe6" stroke="#ded6c9" rx="8" stroke-width="1"/>
<text x="731.0" y="231.0" fill="#6f6a62" font-family="Hiragino Sans, Yu Gothic, sans-serif" font-size="14" font-weight="700" text-anchor="middle" letter-spacing="0">S058</text>
<rect x="470" y="254" width="56" height="56" fill="#f4efe6" stroke="#ded6c9" rx="8" stroke-width="1"/>
<text x="499.0" y="289.0" fill="#6f6a62" font-family="Hiragino Sans, Yu Gothic, sans-serif" font-size="14" font-weight="700" text-anchor="middle" letter-spacing="0">S097</text>
<rect x="528" y="254" width="56" height="56" fill="#f1e6ee" stroke="#8f4e76" rx="8" stroke-width="2"/>
<text x="557.0" y="289.0" fill="#202124" font-family="Hiragino Sans, Yu Gothic, sans-serif" font-size="14" font-weight="700" text-anchor="middle" letter-spacing="0">S024</text>
<rect x="586" y="254" width="56" height="56" fill="#eadfcf" stroke="#a77d35" rx="8" stroke-width="2"/>
<text x="615.0" y="289.0" fill="#202124" font-family="Hiragino Sans, Yu Gothic, sans-serif" font-size="14" font-weight="700" text-anchor="middle" letter-spacing="0">S073</text>
<rect x="644" y="254" width="56" height="56" fill="#f1e6ee" stroke="#8f4e76" rx="8" stroke-width="2"/>
<text x="673.0" y="289.0" fill="#202124" font-family="Hiragino Sans, Yu Gothic, sans-serif" font-size="14" font-weight="700" text-anchor="middle" letter-spacing="0">S031</text>
<rect x="702" y="254" width="56" height="56" fill="#f4efe6" stroke="#ded6c9" rx="8" stroke-width="1"/>
<text x="731.0" y="289.0" fill="#6f6a62" font-family="Hiragino Sans, Yu Gothic, sans-serif" font-size="14" font-weight="700" text-anchor="middle" letter-spacing="0">S089</text>
<rect x="470" y="312" width="56" height="56" fill="#f4efe6" stroke="#ded6c9" rx="8" stroke-width="1"/>
<text x="499.0" y="347.0" fill="#6f6a62" font-family="Hiragino Sans, Yu Gothic, sans-serif" font-size="14" font-weight="700" text-anchor="middle" letter-spacing="0">S045</text>
<rect x="528" y="312" width="56" height="56" fill="#eadfcf" stroke="#a77d35" rx="8" stroke-width="2"/>
<text x="557.0" y="347.0" fill="#202124" font-family="Hiragino Sans, Yu Gothic, sans-serif" font-size="14" font-weight="700" text-anchor="middle" letter-spacing="0">S066</text>
<rect x="586" y="312" width="56" height="56" fill="#8f4e76" stroke="#8f4e76" rx="8" stroke-width="2"/>
<text x="615.0" y="347.0" fill="#fffdf8" font-family="Hiragino Sans, Yu Gothic, sans-serif" font-size="14" font-weight="700" text-anchor="middle" letter-spacing="0">S076</text>
<rect x="644" y="312" width="56" height="56" fill="#eadfcf" stroke="#a77d35" rx="8" stroke-width="2"/>
<text x="673.0" y="347.0" fill="#202124" font-family="Hiragino Sans, Yu Gothic, sans-serif" font-size="14" font-weight="700" text-anchor="middle" letter-spacing="0">S009</text>
<rect x="702" y="312" width="56" height="56" fill="#f4efe6" stroke="#ded6c9" rx="8" stroke-width="1"/>
<text x="731.0" y="347.0" fill="#6f6a62" font-family="Hiragino Sans, Yu Gothic, sans-serif" font-size="14" font-weight="700" text-anchor="middle" letter-spacing="0">S052</text>
<rect x="470" y="370" width="56" height="56" fill="#f4efe6" stroke="#ded6c9" rx="8" stroke-width="1"/>
<text x="499.0" y="405.0" fill="#6f6a62" font-family="Hiragino Sans, Yu Gothic, sans-serif" font-size="14" font-weight="700" text-anchor="middle" letter-spacing="0">S014</text>
<rect x="528" y="370" width="56" height="56" fill="#f1e6ee" stroke="#8f4e76" rx="8" stroke-width="2"/>
<text x="557.0" y="405.0" fill="#202124" font-family="Hiragino Sans, Yu Gothic, sans-serif" font-size="14" font-weight="700" text-anchor="middle" letter-spacing="0">S030</text>
<rect x="586" y="370" width="56" height="56" fill="#eadfcf" stroke="#a77d35" rx="8" stroke-width="2"/>
<text x="615.0" y="405.0" fill="#202124" font-family="Hiragino Sans, Yu Gothic, sans-serif" font-size="14" font-weight="700" text-anchor="middle" letter-spacing="0">S090</text>
<rect x="644" y="370" width="56" height="56" fill="#f1e6ee" stroke="#8f4e76" rx="8" stroke-width="2"/>
<text x="673.0" y="405.0" fill="#202124" font-family="Hiragino Sans, Yu Gothic, sans-serif" font-size="14" font-weight="700" text-anchor="middle" letter-spacing="0">S061</text>
<rect x="702" y="370" width="56" height="56" fill="#f4efe6" stroke="#ded6c9" rx="8" stroke-width="1"/>
<text x="731.0" y="405.0" fill="#6f6a62" font-family="Hiragino Sans, Yu Gothic, sans-serif" font-size="14" font-weight="700" text-anchor="middle" letter-spacing="0">S018</text>
<rect x="470" y="428" width="56" height="56" fill="#f4efe6" stroke="#ded6c9" rx="8" stroke-width="1"/>
<text x="499.0" y="463.0" fill="#6f6a62" font-family="Hiragino Sans, Yu Gothic, sans-serif" font-size="14" font-weight="700" text-anchor="middle" letter-spacing="0">S100</text>
<rect x="528" y="428" width="56" height="56" fill="#f4efe6" stroke="#ded6c9" rx="8" stroke-width="1"/>
<text x="557.0" y="463.0" fill="#6f6a62" font-family="Hiragino Sans, Yu Gothic, sans-serif" font-size="14" font-weight="700" text-anchor="middle" letter-spacing="0">S005</text>
<rect x="586" y="428" width="56" height="56" fill="#f4efe6" stroke="#ded6c9" rx="8" stroke-width="1"/>
<text x="615.0" y="463.0" fill="#6f6a62" font-family="Hiragino Sans, Yu Gothic, sans-serif" font-size="14" font-weight="700" text-anchor="middle" letter-spacing="0">S037</text>
<rect x="644" y="428" width="56" height="56" fill="#f4efe6" stroke="#ded6c9" rx="8" stroke-width="1"/>
<text x="673.0" y="463.0" fill="#6f6a62" font-family="Hiragino Sans, Yu Gothic, sans-serif" font-size="14" font-weight="700" text-anchor="middle" letter-spacing="0">S048</text>
<rect x="702" y="428" width="56" height="56" fill="#f4efe6" stroke="#ded6c9" rx="8" stroke-width="1"/>
<text x="731.0" y="463.0" fill="#6f6a62" font-family="Hiragino Sans, Yu Gothic, sans-serif" font-size="14" font-weight="700" text-anchor="middle" letter-spacing="0">S071</text>
<line x1="615.0" y1="341.0" x2="615.0" y2="283.0" stroke="#8f4e76" stroke-width="3" opacity="0.65"/>
<line x1="615.0" y1="341.0" x2="557.0" y2="341.0" stroke="#8f4e76" stroke-width="3" opacity="0.65"/>
<line x1="615.0" y1="341.0" x2="673.0" y2="341.0" stroke="#8f4e76" stroke-width="3" opacity="0.65"/>
<line x1="615.0" y1="341.0" x2="615.0" y2="399.0" stroke="#8f4e76" stroke-width="3" opacity="0.65"/>
<line x1="615.0" y1="341.0" x2="557.0" y2="283.0" stroke="#8f4e76" stroke-width="3" opacity="0.65"/>
<line x1="615.0" y1="341.0" x2="673.0" y2="283.0" stroke="#8f4e76" stroke-width="3" opacity="0.65"/>
<line x1="615.0" y1="341.0" x2="557.0" y2="399.0" stroke="#8f4e76" stroke-width="3" opacity="0.65"/>
<line x1="615.0" y1="341.0" x2="673.0" y2="399.0" stroke="#8f4e76" stroke-width="3" opacity="0.65"/>
<line x1="820" y1="306" x2="878" y2="306" stroke="#ded6c9" stroke-width="5"/>
<circle cx="850" cy="306" r="7" fill="#a77d35" stroke="#fffdf8" stroke-width="2"/>
<rect x="900" y="186" width="308" height="168" fill="#fffefa" stroke="#ded6c9" rx="16" stroke-width="1.2"/>
<text x="924" y="224" fill="#9a3f2f" font-family="Hiragino Mincho ProN, Yu Mincho, serif" font-size="22" font-weight="700" letter-spacing="0">一組ずつ近さを出す</text>
<text x="924" y="262" fill="#202124" font-family="Hiragino Sans, Yu Gothic, sans-serif" font-size="16" letter-spacing="0">S076-S073: 0.41</text>
<text x="924" y="288" fill="#202124" font-family="Hiragino Sans, Yu Gothic, sans-serif" font-size="16" letter-spacing="0">S076-S066: 0.37</text>
<text x="924" y="314" fill="#202124" font-family="Hiragino Sans, Yu Gothic, sans-serif" font-size="16" letter-spacing="0">S076-S009: 0.46</text>
<text x="924" y="340" fill="#202124" font-family="Hiragino Sans, Yu Gothic, sans-serif" font-size="16" letter-spacing="0">S076-S090: 0.35</text>
<line x1="1054" y1="364" x2="1054" y2="414" stroke="#ded6c9" stroke-width="5"/>
<circle cx="1054" cy="392" r="7" fill="#a77d35" stroke="#fffdf8" stroke-width="2"/>
<rect x="900" y="430" width="308" height="168" fill="#fffefa" stroke="#ded6c9" rx="16" stroke-width="1.2"/>
<text x="924" y="468" fill="#526b55" font-family="Hiragino Mincho ProN, Yu Mincho, serif" font-size="22" font-weight="700" letter-spacing="0">最後に平均する</text>
<text x="924" y="506" fill="#202124" font-family="Hiragino Sans, Yu Gothic, sans-serif" font-size="16" letter-spacing="0">上下左右なら180組</text>
<text x="924" y="532" fill="#202124" font-family="Hiragino Sans, Yu Gothic, sans-serif" font-size="16" letter-spacing="0">8近傍なら342組</text>
<text x="924" y="558" fill="#202124" font-family="Hiragino Sans, Yu Gothic, sans-serif" font-size="16" letter-spacing="0">平均値をランダム配置と比べる</text>
<rect x="78" y="628" width="1124" height="66" fill="#f4f1ea" stroke="#ded6c9" rx="14"/>
<text x="104" y="668" fill="#202124" font-family="Hiragino Sans, Yu Gothic, sans-serif" font-size="17" letter-spacing="0">図の小さな数値は説明用の例であり、この章の実データ値そのものではない。実際には全セルの隣接ペアを集計する。</text>
</svg>
