<svg xmlns="http://www.w3.org/2000/svg" width="1200" height="740" viewBox="0 0 1200 740">
<rect width="1200" height="740" fill="#fbfaf7"/>
<text x="70" y="48" font-family="Hiragino Sans, Yu Gothic, sans-serif" font-size="28" fill="#222">小倉百人一首 10x10配置モデル比較</text>
<text x="70" y="78" font-family="Hiragino Sans, Yu Gothic, sans-serif" font-size="15" fill="#555">本文のみ text-embedding-3-small。棒は上下左右近傍、点は斜め込み8近傍のランダムpercentile。</text>
<text x="70" y="103" font-family="Hiragino Sans, Yu Gothic, sans-serif" font-size="14" fill="#666">小倉は100首なので、百人秀歌のような「1首除外」は行っていない。</text>
<line x1="270.0" y1="120" x2="270.0" y2="610" stroke="#e5dfd5" stroke-width="1"/>
<text x="258.0" y="640" font-family="Hiragino Sans, Yu Gothic, sans-serif" font-size="13" fill="#555">0.00</text>
<line x1="482.5" y1="120" x2="482.5" y2="610" stroke="#e5dfd5" stroke-width="1"/>
<text x="470.5" y="640" font-family="Hiragino Sans, Yu Gothic, sans-serif" font-size="13" fill="#555">0.25</text>
<line x1="695.0" y1="120" x2="695.0" y2="610" stroke="#d7cfc3" stroke-width="1.5"/>
<text x="683.0" y="640" font-family="Hiragino Sans, Yu Gothic, sans-serif" font-size="13" fill="#555">0.50</text>
<line x1="907.5" y1="120" x2="907.5" y2="610" stroke="#e5dfd5" stroke-width="1"/>
<text x="895.5" y="640" font-family="Hiragino Sans, Yu Gothic, sans-serif" font-size="13" fill="#555">0.75</text>
<line x1="1120.0" y1="120" x2="1120.0" y2="610" stroke="#e5dfd5" stroke-width="1"/>
<text x="1108.0" y="640" font-family="Hiragino Sans, Yu Gothic, sans-serif" font-size="13" fill="#555">1.00</text>
<rect x="760" y="94" width="28" height="12" fill="#3f6b7f" opacity="0.86"/>
<text x="796" y="105" font-family="Hiragino Sans, Yu Gothic, sans-serif" font-size="13" fill="#555">上下左右近傍</text>
<circle cx="920" cy="100" r="6" fill="#a6533d" opacity="0.9"/>
<text x="934" y="105" font-family="Hiragino Sans, Yu Gothic, sans-serif" font-size="13" fill="#555">8近傍</text>
<text x="70" y="153" font-family="Hiragino Sans, Yu Gothic, sans-serif" font-size="16" fill="#222">Spiral</text>
<rect x="270" y="130" width="765.6" height="34" fill="#3f6b7f" opacity="0.86"/>
<text x="965.0" y="153" font-family="Hiragino Sans, Yu Gothic, sans-serif" font-size="14" fill="#333">pct 0.901, z 1.30, mean 0.3724</text>
<circle cx="1024.0" cy="147" r="6" fill="#a6533d" opacity="0.9"/>
<line x1="1024.0" y1="134" x2="1024.0" y2="160" stroke="#a6533d" stroke-width="1" opacity="0.65"/>
<text x="70" y="211" font-family="Hiragino Sans, Yu Gothic, sans-serif" font-size="16" fill="#222">Row Major</text>
<rect x="270" y="188" width="754.9" height="34" fill="#3f6b7f" opacity="0.86"/>
<text x="965.0" y="211" font-family="Hiragino Sans, Yu Gothic, sans-serif" font-size="14" fill="#333">pct 0.888, z 1.24, mean 0.3720</text>
<circle cx="1072.5" cy="205" r="6" fill="#a6533d" opacity="0.9"/>
<line x1="1072.5" y1="192" x2="1072.5" y2="218" stroke="#a6533d" stroke-width="1" opacity="0.65"/>
<text x="70" y="269" font-family="Hiragino Sans, Yu Gothic, sans-serif" font-size="16" fill="#222">Column Major</text>
<rect x="270" y="246" width="754.9" height="34" fill="#3f6b7f" opacity="0.86"/>
<text x="965.0" y="269" font-family="Hiragino Sans, Yu Gothic, sans-serif" font-size="14" fill="#333">pct 0.888, z 1.24, mean 0.3720</text>
<circle cx="1072.5" cy="263" r="6" fill="#a6533d" opacity="0.9"/>
<line x1="1072.5" y1="250" x2="1072.5" y2="276" stroke="#a6533d" stroke-width="1" opacity="0.65"/>
<text x="70" y="327" font-family="Hiragino Sans, Yu Gothic, sans-serif" font-size="16" fill="#222">Row Serpentine</text>
<rect x="270" y="304" width="625.9" height="34" fill="#3f6b7f" opacity="0.86"/>
<text x="905.9" y="327" font-family="Hiragino Sans, Yu Gothic, sans-serif" font-size="14" fill="#333">pct 0.736, z 0.63, mean 0.3685</text>
<circle cx="806.8" cy="321" r="6" fill="#a6533d" opacity="0.9"/>
<line x1="806.8" y1="308" x2="806.8" y2="334" stroke="#a6533d" stroke-width="1" opacity="0.65"/>
<text x="70" y="385" font-family="Hiragino Sans, Yu Gothic, sans-serif" font-size="16" fill="#222">Column Serpentine</text>
<rect x="270" y="362" width="625.9" height="34" fill="#3f6b7f" opacity="0.86"/>
<text x="905.9" y="385" font-family="Hiragino Sans, Yu Gothic, sans-serif" font-size="14" fill="#333">pct 0.736, z 0.63, mean 0.3685</text>
<circle cx="806.8" cy="379" r="6" fill="#a6533d" opacity="0.9"/>
<line x1="806.8" y1="366" x2="806.8" y2="392" stroke="#a6533d" stroke-width="1" opacity="0.65"/>
<text x="70" y="443" font-family="Hiragino Sans, Yu Gothic, sans-serif" font-size="16" fill="#222">Diagonal NW-SE</text>
<rect x="270" y="420" width="382.2" height="34" fill="#3f6b7f" opacity="0.86"/>
<text x="662.2" y="443" font-family="Hiragino Sans, Yu Gothic, sans-serif" font-size="14" fill="#333">pct 0.450, z -0.15, mean 0.3640</text>
<circle cx="858.3" cy="437" r="6" fill="#a6533d" opacity="0.9"/>
<line x1="858.3" y1="424" x2="858.3" y2="450" stroke="#a6533d" stroke-width="1" opacity="0.65"/>
<text x="70" y="501" font-family="Hiragino Sans, Yu Gothic, sans-serif" font-size="16" fill="#222">Diagonal NE-SW</text>
<rect x="270" y="478" width="382.2" height="34" fill="#3f6b7f" opacity="0.86"/>
<text x="662.2" y="501" font-family="Hiragino Sans, Yu Gothic, sans-serif" font-size="14" fill="#333">pct 0.450, z -0.15, mean 0.3640</text>
<circle cx="858.3" cy="495" r="6" fill="#a6533d" opacity="0.9"/>
<line x1="858.3" y1="482" x2="858.3" y2="508" stroke="#a6533d" stroke-width="1" opacity="0.65"/>
<text x="70" y="559" font-family="Hiragino Sans, Yu Gothic, sans-serif" font-size="16" fill="#222">Mirror i / 101-i</text>
<rect x="270" y="536" width="625.4" height="34" fill="#7b5e8a" opacity="0.86"/>
<text x="905.4" y="559" font-family="Hiragino Sans, Yu Gothic, sans-serif" font-size="14" fill="#333">pct 0.736, z 0.63, mean 0.3719</text>
<text x="70" y="690" font-family="Hiragino Sans, Yu Gothic, sans-serif" font-size="13" fill="#666">注意: これは代表的な格子配置の探索であり、配置意図や暗号の証明ではない。percentileは同数の任意ペア平均との比較。</text>
<text x="70" y="713" font-family="Hiragino Sans, Yu Gothic, sans-serif" font-size="13" fill="#666">観察: Spiral / Row Major / Column Major はやや高め、対角蛇行は平均付近。鏡像ペアも弱い上振れに留まる。</text>
</svg>
