<svg xmlns="http://www.w3.org/2000/svg" width="1600" height="1152" viewBox="0 0 1600 1152">
<rect width="1600" height="1152" fill="#fbfaf7"/>
<text x="90" y="62" font-family="Hiragino Mincho ProN, Yu Mincho, serif" font-size="42" fill="#222">小倉順を線でつないだPCA地図</text>
<text x="90" y="100" font-family="Hiragino Sans, Yu Gothic, sans-serif" font-size="19" fill="#555">text-embedding-3-small / PCA。1番から100番へ、歌順に沿って点を結ぶ。</text>
<rect x="110" y="150" width="1320" height="820" fill="#fffdfa" stroke="#d7d0c2"/>
<rect x="296.61" y="150.00" width="946.79" height="820.00" fill="#fffdfa" stroke="#ebe5db"/>
<line x1="761.71" y1="150.00" x2="761.71" y2="970.00" stroke="#ebe5db" stroke-width="1"/>
<line x1="296.61" y1="488.79" x2="1243.39" y2="488.79" stroke="#ebe5db" stroke-width="1"/>
<circle cx="525.09" cy="346.47" r="6.4" fill="#c27a00" opacity="0.32"/>
<circle cx="511.22" cy="405.50" r="6.4" fill="#008c95" opacity="0.32"/>
<circle cx="652.60" cy="551.50" r="6.4" fill="#c44f73" opacity="0.32"/>
<circle cx="554.58" cy="241.12" r="6.4" fill="#3f6fb5" opacity="0.32"/>
<circle cx="488.37" cy="482.33" r="6.4" fill="#c27a00" opacity="0.32"/>
<circle cx="621.55" cy="500.05" r="6.4" fill="#3f6fb5" opacity="0.32"/>
<circle cx="439.03" cy="588.80" r="6.4" fill="#7b61b8" opacity="0.32"/>
<circle cx="856.15" cy="337.31" r="6.4" fill="#666666" opacity="0.32"/>
<circle cx="881.56" cy="488.83" r="6.4" fill="#64a338" opacity="0.32"/>
<circle cx="889.80" cy="439.09" r="6.4" fill="#666666" opacity="0.32"/>
<circle cx="859.60" cy="206.55" r="6.4" fill="#7b61b8" opacity="0.32"/>
<circle cx="628.52" cy="540.68" r="6.4" fill="#666666" opacity="0.32"/>
<circle cx="752.88" cy="246.71" r="6.4" fill="#c44f73" opacity="0.32"/>
<circle cx="863.73" cy="294.67" r="6.4" fill="#c44f73" opacity="0.32"/>
<circle cx="539.65" cy="458.65" r="6.4" fill="#64a338" opacity="0.32"/>
<circle cx="746.96" cy="272.95" r="6.4" fill="#bd5e21" opacity="0.32"/>
<circle cx="751.09" cy="248.65" r="6.4" fill="#c27a00" opacity="0.32"/>
<circle cx="796.82" cy="446.56" r="6.4" fill="#c44f73" opacity="0.32"/>
<circle cx="843.03" cy="284.55" r="6.4" fill="#c44f73" opacity="0.32"/>
<circle cx="1061.08" cy="525.21" r="6.4" fill="#c44f73" opacity="0.32"/>
<circle cx="620.53" cy="809.98" r="6.4" fill="#c44f73" opacity="0.32"/>
<circle cx="487.95" cy="319.51" r="6.4" fill="#c27a00" opacity="0.32"/>
<circle cx="584.16" cy="743.76" r="6.4" fill="#c27a00" opacity="0.32"/>
<circle cx="546.64" cy="373.99" r="6.4" fill="#7b61b8" opacity="0.32"/>
<circle cx="847.73" cy="235.94" r="6.4" fill="#c44f73" opacity="0.32"/>
<circle cx="664.73" cy="379.54" r="6.4" fill="#c27a00" opacity="0.32"/>
<circle cx="827.29" cy="404.79" r="6.4" fill="#c44f73" opacity="0.32"/>
<circle cx="669.56" cy="498.03" r="6.4" fill="#3f6fb5" opacity="0.32"/>
<circle cx="627.99" cy="593.13" r="6.4" fill="#c27a00" opacity="0.32"/>
<circle cx="772.24" cy="815.01" r="6.4" fill="#c44f73" opacity="0.32"/>
<circle cx="432.54" cy="591.56" r="6.4" fill="#3f6fb5" opacity="0.32"/>
<circle cx="518.46" cy="380.00" r="6.4" fill="#c27a00" opacity="0.32"/>
<circle cx="573.07" cy="476.94" r="6.4" fill="#64a338" opacity="0.32"/>
<circle cx="925.75" cy="407.13" r="6.4" fill="#666666" opacity="0.32"/>
<circle cx="947.87" cy="440.54" r="6.4" fill="#64a338" opacity="0.32"/>
<circle cx="486.93" cy="731.45" r="6.4" fill="#008c95" opacity="0.32"/>
<circle cx="417.18" cy="440.63" r="6.4" fill="#c27a00" opacity="0.32"/>
<circle cx="1154.77" cy="644.07" r="6.4" fill="#c44f73" opacity="0.32"/>
<circle cx="893.38" cy="361.45" r="6.4" fill="#c44f73" opacity="0.32"/>
<circle cx="1022.48" cy="550.23" r="6.4" fill="#c44f73" opacity="0.32"/>
<circle cx="1062.50" cy="460.03" r="6.4" fill="#c44f73" opacity="0.32"/>
<circle cx="738.82" cy="372.13" r="6.4" fill="#c44f73" opacity="0.32"/>
<circle cx="972.54" cy="664.50" r="6.4" fill="#c44f73" opacity="0.32"/>
<circle cx="1059.08" cy="506.65" r="6.4" fill="#c44f73" opacity="0.32"/>
<circle cx="1076.40" cy="609.86" r="6.4" fill="#c44f73" opacity="0.32"/>
<circle cx="971.85" cy="411.05" r="6.4" fill="#c44f73" opacity="0.32"/>
<circle cx="577.33" cy="512.28" r="6.4" fill="#c27a00" opacity="0.32"/>
<circle cx="910.59" cy="409.69" r="6.4" fill="#c44f73" opacity="0.32"/>
<circle cx="747.47" cy="699.77" r="6.4" fill="#c44f73" opacity="0.32"/>
<circle cx="1046.84" cy="655.91" r="6.4" fill="#c44f73" opacity="0.32"/>
<circle cx="918.23" cy="446.18" r="6.4" fill="#c44f73" opacity="0.32"/>
<circle cx="872.86" cy="651.93" r="6.4" fill="#c44f73" opacity="0.32"/>
<circle cx="736.23" cy="864.44" r="6.4" fill="#c44f73" opacity="0.32"/>
<circle cx="1011.56" cy="590.86" r="6.4" fill="#c44f73" opacity="0.32"/>
<circle cx="820.44" cy="366.02" r="6.4" fill="#666666" opacity="0.32"/>
<circle cx="1019.04" cy="580.10" r="6.4" fill="#c44f73" opacity="0.32"/>
<circle cx="604.41" cy="809.90" r="6.4" fill="#666666" opacity="0.32"/>
<circle cx="833.28" cy="341.99" r="6.4" fill="#c44f73" opacity="0.32"/>
<circle cx="602.47" cy="783.52" r="6.4" fill="#c44f73" opacity="0.32"/>
<circle cx="656.12" cy="369.39" r="6.4" fill="#666666" opacity="0.32"/>
<circle cx="759.89" cy="321.72" r="6.4" fill="#64a338" opacity="0.32"/>
<circle cx="657.05" cy="584.26" r="6.4" fill="#666666" opacity="0.32"/>
<circle cx="1137.39" cy="604.85" r="6.4" fill="#c44f73" opacity="0.32"/>
<circle cx="671.44" cy="232.20" r="6.4" fill="#3f6fb5" opacity="0.32"/>
<circle cx="1000.95" cy="511.41" r="6.4" fill="#c44f73" opacity="0.32"/>
<circle cx="901.78" cy="395.35" r="6.4" fill="#666666" opacity="0.32"/>
<circle cx="717.33" cy="643.57" r="6.4" fill="#666666" opacity="0.32"/>
<circle cx="780.35" cy="913.45" r="6.4" fill="#666666" opacity="0.32"/>
<circle cx="517.57" cy="249.18" r="6.4" fill="#c27a00" opacity="0.32"/>
<circle cx="558.81" cy="698.41" r="6.4" fill="#c27a00" opacity="0.32"/>
<circle cx="458.41" cy="434.51" r="6.4" fill="#c27a00" opacity="0.32"/>
<circle cx="773.49" cy="330.29" r="6.4" fill="#c44f73" opacity="0.32"/>
<circle cx="584.90" cy="358.71" r="6.4" fill="#64a338" opacity="0.32"/>
<circle cx="916.96" cy="321.52" r="6.4" fill="#c44f73" opacity="0.32"/>
<circle cx="661.46" cy="546.47" r="6.4" fill="#666666" opacity="0.32"/>
<circle cx="678.28" cy="346.14" r="6.4" fill="#666666" opacity="0.32"/>
<circle cx="894.20" cy="367.29" r="6.4" fill="#c44f73" opacity="0.32"/>
<circle cx="694.95" cy="485.95" r="6.4" fill="#3f6fb5" opacity="0.32"/>
<circle cx="467.87" cy="658.21" r="6.4" fill="#c27a00" opacity="0.32"/>
<circle cx="959.60" cy="565.33" r="6.4" fill="#c44f73" opacity="0.32"/>
<circle cx="613.13" cy="750.43" r="6.4" fill="#008c95" opacity="0.32"/>
<circle cx="1049.58" cy="658.42" r="6.4" fill="#c44f73" opacity="0.32"/>
<circle cx="846.55" cy="363.71" r="6.4" fill="#666666" opacity="0.32"/>
<circle cx="1032.21" cy="583.12" r="6.4" fill="#666666" opacity="0.32"/>
<circle cx="754.04" cy="830.76" r="6.4" fill="#c44f73" opacity="0.32"/>
<circle cx="788.94" cy="843.14" r="6.4" fill="#c44f73" opacity="0.32"/>
<circle cx="361.90" cy="453.21" r="6.4" fill="#c27a00" opacity="0.32"/>
<circle cx="729.02" cy="512.15" r="6.4" fill="#c44f73" opacity="0.32"/>
<circle cx="935.72" cy="467.78" r="6.4" fill="#c44f73" opacity="0.32"/>
<circle cx="834.03" cy="378.59" r="6.4" fill="#c44f73" opacity="0.32"/>
<circle cx="628.70" cy="683.94" r="6.4" fill="#c27a00" opacity="0.32"/>
<circle cx="903.37" cy="341.06" r="6.4" fill="#c44f73" opacity="0.32"/>
<circle cx="964.56" cy="344.56" r="6.4" fill="#7b61b8" opacity="0.32"/>
<circle cx="488.35" cy="479.68" r="6.4" fill="#c27a00" opacity="0.32"/>
<circle cx="827.56" cy="321.22" r="6.4" fill="#666666" opacity="0.32"/>
<circle cx="735.33" cy="370.69" r="6.4" fill="#666666" opacity="0.32"/>
<circle cx="853.90" cy="338.25" r="6.4" fill="#c44f73" opacity="0.32"/>
<circle cx="447.06" cy="430.29" r="6.4" fill="#008c95" opacity="0.32"/>
<circle cx="1178.10" cy="637.54" r="6.4" fill="#666666" opacity="0.32"/>
<circle cx="883.24" cy="311.07" r="6.4" fill="#666666" opacity="0.32"/>
<line x1="525.09" y1="346.47" x2="511.22" y2="405.50" stroke="rgb(38, 60, 97)" stroke-width="2.2" opacity="0.56" stroke-linecap="round"/>
<line x1="511.22" y1="405.50" x2="652.60" y2="551.50" stroke="rgb(39, 61, 97)" stroke-width="2.2" opacity="0.56" stroke-linecap="round"/>
<line x1="652.60" y1="551.50" x2="554.58" y2="241.12" stroke="rgb(40, 62, 97)" stroke-width="2.2" opacity="0.56" stroke-linecap="round"/>
<line x1="554.58" y1="241.12" x2="488.37" y2="482.33" stroke="rgb(41, 63, 96)" stroke-width="2.2" opacity="0.56" stroke-linecap="round"/>
<line x1="488.37" y1="482.33" x2="621.55" y2="500.05" stroke="rgb(41, 64, 96)" stroke-width="2.2" opacity="0.56" stroke-linecap="round"/>
<line x1="621.55" y1="500.05" x2="439.03" y2="588.80" stroke="rgb(42, 65, 96)" stroke-width="2.2" opacity="0.56" stroke-linecap="round"/>
<line x1="439.03" y1="588.80" x2="856.15" y2="337.31" stroke="rgb(43, 66, 96)" stroke-width="2.2" opacity="0.56" stroke-linecap="round"/>
<line x1="856.15" y1="337.31" x2="881.56" y2="488.83" stroke="rgb(44, 66, 95)" stroke-width="2.2" opacity="0.56" stroke-linecap="round"/>
<line x1="881.56" y1="488.83" x2="889.80" y2="439.09" stroke="rgb(45, 67, 95)" stroke-width="2.2" opacity="0.56" stroke-linecap="round"/>
<line x1="889.80" y1="439.09" x2="859.60" y2="206.55" stroke="rgb(46, 68, 95)" stroke-width="2.2" opacity="0.56" stroke-linecap="round"/>
<line x1="859.60" y1="206.55" x2="628.52" y2="540.68" stroke="rgb(47, 69, 95)" stroke-width="2.2" opacity="0.56" stroke-linecap="round"/>
<line x1="628.52" y1="540.68" x2="752.88" y2="246.71" stroke="rgb(47, 70, 94)" stroke-width="2.2" opacity="0.56" stroke-linecap="round"/>
<line x1="752.88" y1="246.71" x2="863.73" y2="294.67" stroke="rgb(48, 71, 94)" stroke-width="2.2" opacity="0.56" stroke-linecap="round"/>
<line x1="863.73" y1="294.67" x2="539.65" y2="458.65" stroke="rgb(49, 72, 94)" stroke-width="2.2" opacity="0.56" stroke-linecap="round"/>
<line x1="539.65" y1="458.65" x2="746.96" y2="272.95" stroke="rgb(50, 73, 94)" stroke-width="2.2" opacity="0.56" stroke-linecap="round"/>
<line x1="746.96" y1="272.95" x2="751.09" y2="248.65" stroke="rgb(51, 74, 93)" stroke-width="2.2" opacity="0.56" stroke-linecap="round"/>
<line x1="751.09" y1="248.65" x2="796.82" y2="446.56" stroke="rgb(52, 75, 93)" stroke-width="2.2" opacity="0.56" stroke-linecap="round"/>
<line x1="796.82" y1="446.56" x2="843.03" y2="284.55" stroke="rgb(53, 76, 93)" stroke-width="2.2" opacity="0.56" stroke-linecap="round"/>
<line x1="843.03" y1="284.55" x2="1061.08" y2="525.21" stroke="rgb(54, 77, 93)" stroke-width="2.2" opacity="0.56" stroke-linecap="round"/>
<line x1="1061.08" y1="525.21" x2="620.53" y2="809.98" stroke="rgb(54, 78, 93)" stroke-width="2.2" opacity="0.56" stroke-linecap="round"/>
<line x1="620.53" y1="809.98" x2="487.95" y2="319.51" stroke="rgb(55, 78, 92)" stroke-width="2.2" opacity="0.56" stroke-linecap="round"/>
<line x1="487.95" y1="319.51" x2="584.16" y2="743.76" stroke="rgb(56, 79, 92)" stroke-width="2.2" opacity="0.56" stroke-linecap="round"/>
<line x1="584.16" y1="743.76" x2="546.64" y2="373.99" stroke="rgb(57, 80, 92)" stroke-width="2.2" opacity="0.56" stroke-linecap="round"/>
<line x1="546.64" y1="373.99" x2="847.73" y2="235.94" stroke="rgb(58, 81, 92)" stroke-width="2.2" opacity="0.56" stroke-linecap="round"/>
<line x1="847.73" y1="235.94" x2="664.73" y2="379.54" stroke="rgb(59, 82, 91)" stroke-width="2.2" opacity="0.56" stroke-linecap="round"/>
<line x1="664.73" y1="379.54" x2="827.29" y2="404.79" stroke="rgb(60, 83, 91)" stroke-width="2.2" opacity="0.56" stroke-linecap="round"/>
<line x1="827.29" y1="404.79" x2="669.56" y2="498.03" stroke="rgb(60, 84, 91)" stroke-width="2.2" opacity="0.56" stroke-linecap="round"/>
<line x1="669.56" y1="498.03" x2="627.99" y2="593.13" stroke="rgb(61, 85, 91)" stroke-width="2.2" opacity="0.56" stroke-linecap="round"/>
<line x1="627.99" y1="593.13" x2="772.24" y2="815.01" stroke="rgb(62, 86, 90)" stroke-width="2.2" opacity="0.56" stroke-linecap="round"/>
<line x1="772.24" y1="815.01" x2="432.54" y2="591.56" stroke="rgb(63, 87, 90)" stroke-width="2.2" opacity="0.56" stroke-linecap="round"/>
<line x1="432.54" y1="591.56" x2="518.46" y2="380.00" stroke="rgb(64, 88, 90)" stroke-width="2.2" opacity="0.56" stroke-linecap="round"/>
<line x1="518.46" y1="380.00" x2="573.07" y2="476.94" stroke="rgb(65, 89, 90)" stroke-width="2.2" opacity="0.56" stroke-linecap="round"/>
<line x1="573.07" y1="476.94" x2="925.75" y2="407.13" stroke="rgb(66, 90, 89)" stroke-width="2.2" opacity="0.56" stroke-linecap="round"/>
<line x1="925.75" y1="407.13" x2="947.87" y2="440.54" stroke="rgb(66, 90, 89)" stroke-width="2.2" opacity="0.56" stroke-linecap="round"/>
<line x1="947.87" y1="440.54" x2="486.93" y2="731.45" stroke="rgb(67, 91, 89)" stroke-width="2.2" opacity="0.56" stroke-linecap="round"/>
<line x1="486.93" y1="731.45" x2="417.18" y2="440.63" stroke="rgb(68, 92, 89)" stroke-width="2.2" opacity="0.56" stroke-linecap="round"/>
<line x1="417.18" y1="440.63" x2="1154.77" y2="644.07" stroke="rgb(69, 93, 89)" stroke-width="2.2" opacity="0.56" stroke-linecap="round"/>
<line x1="1154.77" y1="644.07" x2="893.38" y2="361.45" stroke="rgb(70, 94, 88)" stroke-width="2.2" opacity="0.56" stroke-linecap="round"/>
<line x1="893.38" y1="361.45" x2="1022.48" y2="550.23" stroke="rgb(71, 95, 88)" stroke-width="2.2" opacity="0.56" stroke-linecap="round"/>
<line x1="1022.48" y1="550.23" x2="1062.50" y2="460.03" stroke="rgb(72, 96, 88)" stroke-width="2.2" opacity="0.56" stroke-linecap="round"/>
<line x1="1062.50" y1="460.03" x2="738.82" y2="372.13" stroke="rgb(73, 97, 88)" stroke-width="2.2" opacity="0.56" stroke-linecap="round"/>
<line x1="738.82" y1="372.13" x2="972.54" y2="664.50" stroke="rgb(73, 98, 87)" stroke-width="2.2" opacity="0.56" stroke-linecap="round"/>
<line x1="972.54" y1="664.50" x2="1059.08" y2="506.65" stroke="rgb(74, 99, 87)" stroke-width="2.2" opacity="0.56" stroke-linecap="round"/>
<line x1="1059.08" y1="506.65" x2="1076.40" y2="609.86" stroke="rgb(75, 100, 87)" stroke-width="2.2" opacity="0.56" stroke-linecap="round"/>
<line x1="1076.40" y1="609.86" x2="971.85" y2="411.05" stroke="rgb(76, 101, 87)" stroke-width="2.2" opacity="0.56" stroke-linecap="round"/>
<line x1="971.85" y1="411.05" x2="577.33" y2="512.28" stroke="rgb(77, 102, 86)" stroke-width="2.2" opacity="0.56" stroke-linecap="round"/>
<line x1="577.33" y1="512.28" x2="910.59" y2="409.69" stroke="rgb(78, 102, 86)" stroke-width="2.2" opacity="0.56" stroke-linecap="round"/>
<line x1="910.59" y1="409.69" x2="747.47" y2="699.77" stroke="rgb(79, 103, 86)" stroke-width="2.2" opacity="0.56" stroke-linecap="round"/>
<line x1="747.47" y1="699.77" x2="1046.84" y2="655.91" stroke="rgb(79, 104, 86)" stroke-width="2.2" opacity="0.56" stroke-linecap="round"/>
<line x1="1046.84" y1="655.91" x2="918.23" y2="446.18" stroke="rgb(80, 105, 85)" stroke-width="2.2" opacity="0.56" stroke-linecap="round"/>
<line x1="918.23" y1="446.18" x2="872.86" y2="651.93" stroke="rgb(81, 106, 85)" stroke-width="2.2" opacity="0.56" stroke-linecap="round"/>
<line x1="872.86" y1="651.93" x2="736.23" y2="864.44" stroke="rgb(82, 107, 85)" stroke-width="2.2" opacity="0.56" stroke-linecap="round"/>
<line x1="736.23" y1="864.44" x2="1011.56" y2="590.86" stroke="rgb(84, 106, 84)" stroke-width="2.2" opacity="0.56" stroke-linecap="round"/>
<line x1="1011.56" y1="590.86" x2="820.44" y2="366.02" stroke="rgb(85, 105, 83)" stroke-width="2.2" opacity="0.56" stroke-linecap="round"/>
<line x1="820.44" y1="366.02" x2="1019.04" y2="580.10" stroke="rgb(87, 104, 83)" stroke-width="2.2" opacity="0.56" stroke-linecap="round"/>
<line x1="1019.04" y1="580.10" x2="604.41" y2="809.90" stroke="rgb(88, 103, 82)" stroke-width="2.2" opacity="0.56" stroke-linecap="round"/>
<line x1="604.41" y1="809.90" x2="833.28" y2="341.99" stroke="rgb(90, 102, 81)" stroke-width="2.2" opacity="0.56" stroke-linecap="round"/>
<line x1="833.28" y1="341.99" x2="602.47" y2="783.52" stroke="rgb(91, 101, 80)" stroke-width="2.2" opacity="0.56" stroke-linecap="round"/>
<line x1="602.47" y1="783.52" x2="656.12" y2="369.39" stroke="rgb(93, 100, 79)" stroke-width="2.2" opacity="0.56" stroke-linecap="round"/>
<line x1="656.12" y1="369.39" x2="759.89" y2="321.72" stroke="rgb(94, 99, 79)" stroke-width="2.2" opacity="0.56" stroke-linecap="round"/>
<line x1="759.89" y1="321.72" x2="657.05" y2="584.26" stroke="rgb(96, 99, 78)" stroke-width="2.2" opacity="0.56" stroke-linecap="round"/>
<line x1="657.05" y1="584.26" x2="1137.39" y2="604.85" stroke="rgb(97, 98, 77)" stroke-width="2.2" opacity="0.56" stroke-linecap="round"/>
<line x1="1137.39" y1="604.85" x2="671.44" y2="232.20" stroke="rgb(99, 97, 76)" stroke-width="2.2" opacity="0.56" stroke-linecap="round"/>
<line x1="671.44" y1="232.20" x2="1000.95" y2="511.41" stroke="rgb(100, 96, 75)" stroke-width="2.2" opacity="0.56" stroke-linecap="round"/>
<line x1="1000.95" y1="511.41" x2="901.78" y2="395.35" stroke="rgb(102, 95, 74)" stroke-width="2.2" opacity="0.56" stroke-linecap="round"/>
<line x1="901.78" y1="395.35" x2="717.33" y2="643.57" stroke="rgb(103, 94, 74)" stroke-width="2.2" opacity="0.56" stroke-linecap="round"/>
<line x1="717.33" y1="643.57" x2="780.35" y2="913.45" stroke="rgb(105, 93, 73)" stroke-width="2.2" opacity="0.56" stroke-linecap="round"/>
<line x1="780.35" y1="913.45" x2="517.57" y2="249.18" stroke="rgb(107, 92, 72)" stroke-width="2.2" opacity="0.56" stroke-linecap="round"/>
<line x1="517.57" y1="249.18" x2="558.81" y2="698.41" stroke="rgb(108, 91, 71)" stroke-width="2.2" opacity="0.56" stroke-linecap="round"/>
<line x1="558.81" y1="698.41" x2="458.41" y2="434.51" stroke="rgb(110, 90, 70)" stroke-width="2.2" opacity="0.56" stroke-linecap="round"/>
<line x1="458.41" y1="434.51" x2="773.49" y2="330.29" stroke="rgb(111, 89, 70)" stroke-width="2.2" opacity="0.56" stroke-linecap="round"/>
<line x1="773.49" y1="330.29" x2="584.90" y2="358.71" stroke="rgb(113, 88, 69)" stroke-width="2.2" opacity="0.56" stroke-linecap="round"/>
<line x1="584.90" y1="358.71" x2="916.96" y2="321.52" stroke="rgb(114, 87, 68)" stroke-width="2.2" opacity="0.56" stroke-linecap="round"/>
<line x1="916.96" y1="321.52" x2="661.46" y2="546.47" stroke="rgb(116, 86, 67)" stroke-width="2.2" opacity="0.56" stroke-linecap="round"/>
<line x1="661.46" y1="546.47" x2="678.28" y2="346.14" stroke="rgb(117, 85, 66)" stroke-width="2.2" opacity="0.56" stroke-linecap="round"/>
<line x1="678.28" y1="346.14" x2="894.20" y2="367.29" stroke="rgb(119, 85, 66)" stroke-width="2.2" opacity="0.56" stroke-linecap="round"/>
<line x1="894.20" y1="367.29" x2="694.95" y2="485.95" stroke="rgb(120, 84, 65)" stroke-width="2.2" opacity="0.56" stroke-linecap="round"/>
<line x1="694.95" y1="485.95" x2="467.87" y2="658.21" stroke="rgb(122, 83, 64)" stroke-width="2.2" opacity="0.56" stroke-linecap="round"/>
<line x1="467.87" y1="658.21" x2="959.60" y2="565.33" stroke="rgb(123, 82, 63)" stroke-width="2.2" opacity="0.56" stroke-linecap="round"/>
<line x1="959.60" y1="565.33" x2="613.13" y2="750.43" stroke="rgb(125, 81, 62)" stroke-width="2.2" opacity="0.56" stroke-linecap="round"/>
<line x1="613.13" y1="750.43" x2="1049.58" y2="658.42" stroke="rgb(126, 80, 62)" stroke-width="2.2" opacity="0.56" stroke-linecap="round"/>
<line x1="1049.58" y1="658.42" x2="846.55" y2="363.71" stroke="rgb(128, 79, 61)" stroke-width="2.2" opacity="0.56" stroke-linecap="round"/>
<line x1="846.55" y1="363.71" x2="1032.21" y2="583.12" stroke="rgb(130, 78, 60)" stroke-width="2.2" opacity="0.56" stroke-linecap="round"/>
<line x1="1032.21" y1="583.12" x2="754.04" y2="830.76" stroke="rgb(131, 77, 59)" stroke-width="2.2" opacity="0.56" stroke-linecap="round"/>
<line x1="754.04" y1="830.76" x2="788.94" y2="843.14" stroke="rgb(133, 76, 58)" stroke-width="2.2" opacity="0.56" stroke-linecap="round"/>
<line x1="788.94" y1="843.14" x2="361.90" y2="453.21" stroke="rgb(134, 75, 58)" stroke-width="2.2" opacity="0.56" stroke-linecap="round"/>
<line x1="361.90" y1="453.21" x2="729.02" y2="512.15" stroke="rgb(136, 74, 57)" stroke-width="2.2" opacity="0.56" stroke-linecap="round"/>
<line x1="729.02" y1="512.15" x2="935.72" y2="467.78" stroke="rgb(137, 73, 56)" stroke-width="2.2" opacity="0.56" stroke-linecap="round"/>
<line x1="935.72" y1="467.78" x2="834.03" y2="378.59" stroke="rgb(139, 72, 55)" stroke-width="2.2" opacity="0.56" stroke-linecap="round"/>
<line x1="834.03" y1="378.59" x2="628.70" y2="683.94" stroke="rgb(140, 71, 54)" stroke-width="2.2" opacity="0.56" stroke-linecap="round"/>
<line x1="628.70" y1="683.94" x2="903.37" y2="341.06" stroke="rgb(142, 70, 53)" stroke-width="2.2" opacity="0.56" stroke-linecap="round"/>
<line x1="903.37" y1="341.06" x2="964.56" y2="344.56" stroke="rgb(143, 70, 53)" stroke-width="2.2" opacity="0.56" stroke-linecap="round"/>
<line x1="964.56" y1="344.56" x2="488.35" y2="479.68" stroke="rgb(145, 69, 52)" stroke-width="2.2" opacity="0.56" stroke-linecap="round"/>
<line x1="488.35" y1="479.68" x2="827.56" y2="321.22" stroke="rgb(146, 68, 51)" stroke-width="2.2" opacity="0.56" stroke-linecap="round"/>
<line x1="827.56" y1="321.22" x2="735.33" y2="370.69" stroke="rgb(148, 67, 50)" stroke-width="2.2" opacity="0.56" stroke-linecap="round"/>
<line x1="735.33" y1="370.69" x2="853.90" y2="338.25" stroke="rgb(149, 66, 49)" stroke-width="2.2" opacity="0.56" stroke-linecap="round"/>
<line x1="853.90" y1="338.25" x2="447.06" y2="430.29" stroke="rgb(151, 65, 49)" stroke-width="2.2" opacity="0.56" stroke-linecap="round"/>
<line x1="447.06" y1="430.29" x2="1178.10" y2="637.54" stroke="rgb(152, 64, 48)" stroke-width="2.2" opacity="0.56" stroke-linecap="round"/>
<line x1="1178.10" y1="637.54" x2="883.24" y2="311.07" stroke="rgb(154, 63, 47)" stroke-width="2.2" opacity="0.56" stroke-linecap="round"/>
<circle cx="525.09" cy="346.47" r="13" fill="#c27a00" stroke="#202124" stroke-width="2.2" opacity="0.96"/>
<rect x="543.09" y="296.47" width="99.40" height="32" rx="6" fill="#fffdfa" stroke="#d7d0c2" opacity="0.96"/>
<text x="553.09" y="318.47" font-family="Hiragino Sans, Yu Gothic, sans-serif" font-size="15" font-weight="700" fill="#202124">H001 天智天皇</text>
<circle cx="511.22" cy="405.50" r="5.5" fill="#008c95" stroke="#fffdfa" stroke-width="1.0" opacity="0.62"/>
<circle cx="652.60" cy="551.50" r="5.5" fill="#c44f73" stroke="#fffdfa" stroke-width="1.0" opacity="0.62"/>
<circle cx="554.58" cy="241.12" r="5.5" fill="#3f6fb5" stroke="#fffdfa" stroke-width="1.0" opacity="0.62"/>
<circle cx="488.37" cy="482.33" r="5.5" fill="#c27a00" stroke="#fffdfa" stroke-width="1.0" opacity="0.62"/>
<circle cx="621.55" cy="500.05" r="5.5" fill="#3f6fb5" stroke="#fffdfa" stroke-width="1.0" opacity="0.62"/>
<circle cx="439.03" cy="588.80" r="5.5" fill="#7b61b8" stroke="#fffdfa" stroke-width="1.0" opacity="0.62"/>
<circle cx="856.15" cy="337.31" r="5.5" fill="#666666" stroke="#fffdfa" stroke-width="1.0" opacity="0.62"/>
<circle cx="881.56" cy="488.83" r="5.5" fill="#64a338" stroke="#fffdfa" stroke-width="1.0" opacity="0.62"/>
<circle cx="889.80" cy="439.09" r="5.5" fill="#666666" stroke="#fffdfa" stroke-width="1.0" opacity="0.62"/>
<circle cx="859.60" cy="206.55" r="5.5" fill="#7b61b8" stroke="#fffdfa" stroke-width="1.0" opacity="0.62"/>
<circle cx="628.52" cy="540.68" r="5.5" fill="#666666" stroke="#fffdfa" stroke-width="1.0" opacity="0.62"/>
<circle cx="752.88" cy="246.71" r="5.5" fill="#c44f73" stroke="#fffdfa" stroke-width="1.0" opacity="0.62"/>
<circle cx="863.73" cy="294.67" r="5.5" fill="#c44f73" stroke="#fffdfa" stroke-width="1.0" opacity="0.62"/>
<circle cx="539.65" cy="458.65" r="5.5" fill="#64a338" stroke="#fffdfa" stroke-width="1.0" opacity="0.62"/>
<circle cx="746.96" cy="272.95" r="5.5" fill="#bd5e21" stroke="#fffdfa" stroke-width="1.0" opacity="0.62"/>
<circle cx="751.09" cy="248.65" r="5.5" fill="#c27a00" stroke="#fffdfa" stroke-width="1.0" opacity="0.62"/>
<circle cx="796.82" cy="446.56" r="5.5" fill="#c44f73" stroke="#fffdfa" stroke-width="1.0" opacity="0.62"/>
<circle cx="843.03" cy="284.55" r="5.5" fill="#c44f73" stroke="#fffdfa" stroke-width="1.0" opacity="0.62"/>
<circle cx="1061.08" cy="525.21" r="5.5" fill="#c44f73" stroke="#fffdfa" stroke-width="1.0" opacity="0.62"/>
<circle cx="620.53" cy="809.98" r="5.5" fill="#c44f73" stroke="#fffdfa" stroke-width="1.0" opacity="0.62"/>
<circle cx="487.95" cy="319.51" r="5.5" fill="#c27a00" stroke="#fffdfa" stroke-width="1.0" opacity="0.62"/>
<circle cx="584.16" cy="743.76" r="5.5" fill="#c27a00" stroke="#fffdfa" stroke-width="1.0" opacity="0.62"/>
<circle cx="546.64" cy="373.99" r="5.5" fill="#7b61b8" stroke="#fffdfa" stroke-width="1.0" opacity="0.62"/>
<circle cx="847.73" cy="235.94" r="13" fill="#c44f73" stroke="#202124" stroke-width="2.2" opacity="0.96"/>
<rect x="865.73" y="229.94" width="108.00" height="32" rx="6" fill="#fffdfa" stroke="#d7d0c2" opacity="0.96"/>
<text x="875.73" y="251.94" font-family="Hiragino Sans, Yu Gothic, sans-serif" font-size="15" font-weight="700" fill="#202124">H025 三条右大臣</text>
<circle cx="664.73" cy="379.54" r="5.5" fill="#c27a00" stroke="#fffdfa" stroke-width="1.0" opacity="0.62"/>
<circle cx="827.29" cy="404.79" r="5.5" fill="#c44f73" stroke="#fffdfa" stroke-width="1.0" opacity="0.62"/>
<circle cx="669.56" cy="498.03" r="5.5" fill="#3f6fb5" stroke="#fffdfa" stroke-width="1.0" opacity="0.62"/>
<circle cx="627.99" cy="593.13" r="5.5" fill="#c27a00" stroke="#fffdfa" stroke-width="1.0" opacity="0.62"/>
<circle cx="772.24" cy="815.01" r="5.5" fill="#c44f73" stroke="#fffdfa" stroke-width="1.0" opacity="0.62"/>
<circle cx="432.54" cy="591.56" r="5.5" fill="#3f6fb5" stroke="#fffdfa" stroke-width="1.0" opacity="0.62"/>
<circle cx="518.46" cy="380.00" r="5.5" fill="#c27a00" stroke="#fffdfa" stroke-width="1.0" opacity="0.62"/>
<circle cx="573.07" cy="476.94" r="5.5" fill="#64a338" stroke="#fffdfa" stroke-width="1.0" opacity="0.62"/>
<circle cx="925.75" cy="407.13" r="5.5" fill="#666666" stroke="#fffdfa" stroke-width="1.0" opacity="0.62"/>
<circle cx="947.87" cy="440.54" r="5.5" fill="#64a338" stroke="#fffdfa" stroke-width="1.0" opacity="0.62"/>
<circle cx="486.93" cy="731.45" r="5.5" fill="#008c95" stroke="#fffdfa" stroke-width="1.0" opacity="0.62"/>
<circle cx="417.18" cy="440.63" r="5.5" fill="#c27a00" stroke="#fffdfa" stroke-width="1.0" opacity="0.62"/>
<circle cx="1154.77" cy="644.07" r="5.5" fill="#c44f73" stroke="#fffdfa" stroke-width="1.0" opacity="0.62"/>
<circle cx="893.38" cy="361.45" r="5.5" fill="#c44f73" stroke="#fffdfa" stroke-width="1.0" opacity="0.62"/>
<circle cx="1022.48" cy="550.23" r="5.5" fill="#c44f73" stroke="#fffdfa" stroke-width="1.0" opacity="0.62"/>
<circle cx="1062.50" cy="460.03" r="5.5" fill="#c44f73" stroke="#fffdfa" stroke-width="1.0" opacity="0.62"/>
<circle cx="738.82" cy="372.13" r="5.5" fill="#c44f73" stroke="#fffdfa" stroke-width="1.0" opacity="0.62"/>
<circle cx="972.54" cy="664.50" r="5.5" fill="#c44f73" stroke="#fffdfa" stroke-width="1.0" opacity="0.62"/>
<circle cx="1059.08" cy="506.65" r="5.5" fill="#c44f73" stroke="#fffdfa" stroke-width="1.0" opacity="0.62"/>
<circle cx="1076.40" cy="609.86" r="5.5" fill="#c44f73" stroke="#fffdfa" stroke-width="1.0" opacity="0.62"/>
<circle cx="971.85" cy="411.05" r="5.5" fill="#c44f73" stroke="#fffdfa" stroke-width="1.0" opacity="0.62"/>
<circle cx="577.33" cy="512.28" r="5.5" fill="#c27a00" stroke="#fffdfa" stroke-width="1.0" opacity="0.62"/>
<circle cx="910.59" cy="409.69" r="5.5" fill="#c44f73" stroke="#fffdfa" stroke-width="1.0" opacity="0.62"/>
<circle cx="747.47" cy="699.77" r="5.5" fill="#c44f73" stroke="#fffdfa" stroke-width="1.0" opacity="0.62"/>
<circle cx="1046.84" cy="655.91" r="13" fill="#c44f73" stroke="#202124" stroke-width="2.2" opacity="0.96"/>
<rect x="861.44" y="605.91" width="99.40" height="32" rx="6" fill="#fffdfa" stroke="#d7d0c2" opacity="0.96"/>
<text x="871.44" y="627.91" font-family="Hiragino Sans, Yu Gothic, sans-serif" font-size="15" font-weight="700" fill="#202124">H050 藤原義孝</text>
<circle cx="918.23" cy="446.18" r="5.5" fill="#c44f73" stroke="#fffdfa" stroke-width="1.0" opacity="0.62"/>
<circle cx="872.86" cy="651.93" r="5.5" fill="#c44f73" stroke="#fffdfa" stroke-width="1.0" opacity="0.62"/>
<circle cx="736.23" cy="864.44" r="5.5" fill="#c44f73" stroke="#fffdfa" stroke-width="1.0" opacity="0.62"/>
<circle cx="1011.56" cy="590.86" r="5.5" fill="#c44f73" stroke="#fffdfa" stroke-width="1.0" opacity="0.62"/>
<circle cx="820.44" cy="366.02" r="5.5" fill="#666666" stroke="#fffdfa" stroke-width="1.0" opacity="0.62"/>
<circle cx="1019.04" cy="580.10" r="5.5" fill="#c44f73" stroke="#fffdfa" stroke-width="1.0" opacity="0.62"/>
<circle cx="604.41" cy="809.90" r="5.5" fill="#666666" stroke="#fffdfa" stroke-width="1.0" opacity="0.62"/>
<circle cx="833.28" cy="341.99" r="5.5" fill="#c44f73" stroke="#fffdfa" stroke-width="1.0" opacity="0.62"/>
<circle cx="602.47" cy="783.52" r="5.5" fill="#c44f73" stroke="#fffdfa" stroke-width="1.0" opacity="0.62"/>
<circle cx="656.12" cy="369.39" r="5.5" fill="#666666" stroke="#fffdfa" stroke-width="1.0" opacity="0.62"/>
<circle cx="759.89" cy="321.72" r="5.5" fill="#64a338" stroke="#fffdfa" stroke-width="1.0" opacity="0.62"/>
<circle cx="657.05" cy="584.26" r="5.5" fill="#666666" stroke="#fffdfa" stroke-width="1.0" opacity="0.62"/>
<circle cx="1137.39" cy="604.85" r="5.5" fill="#c44f73" stroke="#fffdfa" stroke-width="1.0" opacity="0.62"/>
<circle cx="671.44" cy="232.20" r="5.5" fill="#3f6fb5" stroke="#fffdfa" stroke-width="1.0" opacity="0.62"/>
<circle cx="1000.95" cy="511.41" r="5.5" fill="#c44f73" stroke="#fffdfa" stroke-width="1.0" opacity="0.62"/>
<circle cx="901.78" cy="395.35" r="5.5" fill="#666666" stroke="#fffdfa" stroke-width="1.0" opacity="0.62"/>
<circle cx="717.33" cy="643.57" r="5.5" fill="#666666" stroke="#fffdfa" stroke-width="1.0" opacity="0.62"/>
<circle cx="780.35" cy="913.45" r="5.5" fill="#666666" stroke="#fffdfa" stroke-width="1.0" opacity="0.62"/>
<circle cx="517.57" cy="249.18" r="5.5" fill="#c27a00" stroke="#fffdfa" stroke-width="1.0" opacity="0.62"/>
<circle cx="558.81" cy="698.41" r="5.5" fill="#c27a00" stroke="#fffdfa" stroke-width="1.0" opacity="0.62"/>
<circle cx="458.41" cy="434.51" r="5.5" fill="#c27a00" stroke="#fffdfa" stroke-width="1.0" opacity="0.62"/>
<circle cx="773.49" cy="330.29" r="5.5" fill="#c44f73" stroke="#fffdfa" stroke-width="1.0" opacity="0.62"/>
<circle cx="584.90" cy="358.71" r="5.5" fill="#64a338" stroke="#fffdfa" stroke-width="1.0" opacity="0.62"/>
<circle cx="916.96" cy="321.52" r="5.5" fill="#c44f73" stroke="#fffdfa" stroke-width="1.0" opacity="0.62"/>
<circle cx="661.46" cy="546.47" r="13" fill="#666666" stroke="#202124" stroke-width="2.2" opacity="0.96"/>
<rect x="679.46" y="496.47" width="99.40" height="32" rx="6" fill="#fffdfa" stroke="#d7d0c2" opacity="0.96"/>
<text x="689.46" y="518.47" font-family="Hiragino Sans, Yu Gothic, sans-serif" font-size="15" font-weight="700" fill="#202124">H075 藤原基俊</text>
<circle cx="678.28" cy="346.14" r="5.5" fill="#666666" stroke="#fffdfa" stroke-width="1.0" opacity="0.62"/>
<circle cx="894.20" cy="367.29" r="5.5" fill="#c44f73" stroke="#fffdfa" stroke-width="1.0" opacity="0.62"/>
<circle cx="694.95" cy="485.95" r="5.5" fill="#3f6fb5" stroke="#fffdfa" stroke-width="1.0" opacity="0.62"/>
<circle cx="467.87" cy="658.21" r="5.5" fill="#c27a00" stroke="#fffdfa" stroke-width="1.0" opacity="0.62"/>
<circle cx="959.60" cy="565.33" r="5.5" fill="#c44f73" stroke="#fffdfa" stroke-width="1.0" opacity="0.62"/>
<circle cx="613.13" cy="750.43" r="5.5" fill="#008c95" stroke="#fffdfa" stroke-width="1.0" opacity="0.62"/>
<circle cx="1049.58" cy="658.42" r="5.5" fill="#c44f73" stroke="#fffdfa" stroke-width="1.0" opacity="0.62"/>
<circle cx="846.55" cy="363.71" r="5.5" fill="#666666" stroke="#fffdfa" stroke-width="1.0" opacity="0.62"/>
<circle cx="1032.21" cy="583.12" r="5.5" fill="#666666" stroke="#fffdfa" stroke-width="1.0" opacity="0.62"/>
<circle cx="754.04" cy="830.76" r="5.5" fill="#c44f73" stroke="#fffdfa" stroke-width="1.0" opacity="0.62"/>
<circle cx="788.94" cy="843.14" r="5.5" fill="#c44f73" stroke="#fffdfa" stroke-width="1.0" opacity="0.62"/>
<circle cx="361.90" cy="453.21" r="5.5" fill="#c27a00" stroke="#fffdfa" stroke-width="1.0" opacity="0.62"/>
<circle cx="729.02" cy="512.15" r="5.5" fill="#c44f73" stroke="#fffdfa" stroke-width="1.0" opacity="0.62"/>
<circle cx="935.72" cy="467.78" r="5.5" fill="#c44f73" stroke="#fffdfa" stroke-width="1.0" opacity="0.62"/>
<circle cx="834.03" cy="378.59" r="5.5" fill="#c44f73" stroke="#fffdfa" stroke-width="1.0" opacity="0.62"/>
<circle cx="628.70" cy="683.94" r="5.5" fill="#c27a00" stroke="#fffdfa" stroke-width="1.0" opacity="0.62"/>
<circle cx="903.37" cy="341.06" r="5.5" fill="#c44f73" stroke="#fffdfa" stroke-width="1.0" opacity="0.62"/>
<circle cx="964.56" cy="344.56" r="5.5" fill="#7b61b8" stroke="#fffdfa" stroke-width="1.0" opacity="0.62"/>
<circle cx="488.35" cy="479.68" r="5.5" fill="#c27a00" stroke="#fffdfa" stroke-width="1.0" opacity="0.62"/>
<circle cx="827.56" cy="321.22" r="5.5" fill="#666666" stroke="#fffdfa" stroke-width="1.0" opacity="0.62"/>
<circle cx="735.33" cy="370.69" r="5.5" fill="#666666" stroke="#fffdfa" stroke-width="1.0" opacity="0.62"/>
<circle cx="853.90" cy="338.25" r="5.5" fill="#c44f73" stroke="#fffdfa" stroke-width="1.0" opacity="0.62"/>
<circle cx="447.06" cy="430.29" r="5.5" fill="#008c95" stroke="#fffdfa" stroke-width="1.0" opacity="0.62"/>
<circle cx="1178.10" cy="637.54" r="5.5" fill="#666666" stroke="#fffdfa" stroke-width="1.0" opacity="0.62"/>
<circle cx="883.24" cy="311.07" r="13" fill="#666666" stroke="#202124" stroke-width="2.2" opacity="0.96"/>
<rect x="694.44" y="307.07" width="90.80" height="32" rx="6" fill="#fffdfa" stroke="#d7d0c2" opacity="0.96"/>
<text x="704.44" y="329.07" font-family="Hiragino Sans, Yu Gothic, sans-serif" font-size="15" font-weight="700" fill="#202124">H100 順徳院</text>
<rect x="1040.00" y="1030" width="5.60" height="12" fill="rgb(38, 60, 97)" opacity="0.86"/>
<rect x="1045.00" y="1030" width="5.60" height="12" fill="rgb(40, 62, 97)" opacity="0.86"/>
<rect x="1050.00" y="1030" width="5.60" height="12" fill="rgb(41, 64, 96)" opacity="0.86"/>
<rect x="1055.00" y="1030" width="5.60" height="12" fill="rgb(43, 65, 96)" opacity="0.86"/>
<rect x="1060.00" y="1030" width="5.60" height="12" fill="rgb(45, 67, 95)" opacity="0.86"/>
<rect x="1065.00" y="1030" width="5.60" height="12" fill="rgb(46, 69, 95)" opacity="0.86"/>
<rect x="1070.00" y="1030" width="5.60" height="12" fill="rgb(48, 71, 94)" opacity="0.86"/>
<rect x="1075.00" y="1030" width="5.60" height="12" fill="rgb(50, 73, 94)" opacity="0.86"/>
<rect x="1080.00" y="1030" width="5.60" height="12" fill="rgb(52, 74, 93)" opacity="0.86"/>
<rect x="1085.00" y="1030" width="5.60" height="12" fill="rgb(53, 76, 93)" opacity="0.86"/>
<rect x="1090.00" y="1030" width="5.60" height="12" fill="rgb(55, 78, 92)" opacity="0.86"/>
<rect x="1095.00" y="1030" width="5.60" height="12" fill="rgb(57, 80, 92)" opacity="0.86"/>
<rect x="1100.00" y="1030" width="5.60" height="12" fill="rgb(58, 82, 91)" opacity="0.86"/>
<rect x="1105.00" y="1030" width="5.60" height="12" fill="rgb(60, 84, 91)" opacity="0.86"/>
<rect x="1110.00" y="1030" width="5.60" height="12" fill="rgb(62, 85, 91)" opacity="0.86"/>
<rect x="1115.00" y="1030" width="5.60" height="12" fill="rgb(63, 87, 90)" opacity="0.86"/>
<rect x="1120.00" y="1030" width="5.60" height="12" fill="rgb(65, 89, 90)" opacity="0.86"/>
<rect x="1125.00" y="1030" width="5.60" height="12" fill="rgb(67, 91, 89)" opacity="0.86"/>
<rect x="1130.00" y="1030" width="5.60" height="12" fill="rgb(68, 93, 89)" opacity="0.86"/>
<rect x="1135.00" y="1030" width="5.60" height="12" fill="rgb(70, 94, 88)" opacity="0.86"/>
<rect x="1140.00" y="1030" width="5.60" height="12" fill="rgb(72, 96, 88)" opacity="0.86"/>
<rect x="1145.00" y="1030" width="5.60" height="12" fill="rgb(74, 98, 87)" opacity="0.86"/>
<rect x="1150.00" y="1030" width="5.60" height="12" fill="rgb(75, 100, 87)" opacity="0.86"/>
<rect x="1155.00" y="1030" width="5.60" height="12" fill="rgb(77, 102, 86)" opacity="0.86"/>
<rect x="1160.00" y="1030" width="5.60" height="12" fill="rgb(79, 103, 86)" opacity="0.86"/>
<rect x="1165.00" y="1030" width="5.60" height="12" fill="rgb(80, 105, 85)" opacity="0.86"/>
<rect x="1170.00" y="1030" width="5.60" height="12" fill="rgb(82, 107, 85)" opacity="0.86"/>
<rect x="1175.00" y="1030" width="5.60" height="12" fill="rgb(85, 105, 83)" opacity="0.86"/>
<rect x="1180.00" y="1030" width="5.60" height="12" fill="rgb(88, 103, 82)" opacity="0.86"/>
<rect x="1185.00" y="1030" width="5.60" height="12" fill="rgb(91, 102, 80)" opacity="0.86"/>
<rect x="1190.00" y="1030" width="5.60" height="12" fill="rgb(94, 100, 79)" opacity="0.86"/>
<rect x="1195.00" y="1030" width="5.60" height="12" fill="rgb(97, 98, 77)" opacity="0.86"/>
<rect x="1200.00" y="1030" width="5.60" height="12" fill="rgb(100, 96, 76)" opacity="0.86"/>
<rect x="1205.00" y="1030" width="5.60" height="12" fill="rgb(103, 94, 74)" opacity="0.86"/>
<rect x="1210.00" y="1030" width="5.60" height="12" fill="rgb(106, 92, 72)" opacity="0.86"/>
<rect x="1215.00" y="1030" width="5.60" height="12" fill="rgb(109, 90, 71)" opacity="0.86"/>
<rect x="1220.00" y="1030" width="5.60" height="12" fill="rgb(112, 89, 69)" opacity="0.86"/>
<rect x="1225.00" y="1030" width="5.60" height="12" fill="rgb(115, 87, 68)" opacity="0.86"/>
<rect x="1230.00" y="1030" width="5.60" height="12" fill="rgb(118, 85, 66)" opacity="0.86"/>
<rect x="1235.00" y="1030" width="5.60" height="12" fill="rgb(121, 83, 64)" opacity="0.86"/>
<rect x="1240.00" y="1030" width="5.60" height="12" fill="rgb(124, 81, 63)" opacity="0.86"/>
<rect x="1245.00" y="1030" width="5.60" height="12" fill="rgb(127, 80, 61)" opacity="0.86"/>
<rect x="1250.00" y="1030" width="5.60" height="12" fill="rgb(130, 78, 60)" opacity="0.86"/>
<rect x="1255.00" y="1030" width="5.60" height="12" fill="rgb(133, 76, 58)" opacity="0.86"/>
<rect x="1260.00" y="1030" width="5.60" height="12" fill="rgb(136, 74, 56)" opacity="0.86"/>
<rect x="1265.00" y="1030" width="5.60" height="12" fill="rgb(139, 72, 55)" opacity="0.86"/>
<rect x="1270.00" y="1030" width="5.60" height="12" fill="rgb(142, 70, 53)" opacity="0.86"/>
<rect x="1275.00" y="1030" width="5.60" height="12" fill="rgb(145, 68, 52)" opacity="0.86"/>
<rect x="1280.00" y="1030" width="5.60" height="12" fill="rgb(148, 67, 50)" opacity="0.86"/>
<rect x="1285.00" y="1030" width="5.60" height="12" fill="rgb(151, 65, 49)" opacity="0.86"/>
<rect x="1290.00" y="1030" width="5.60" height="12" fill="rgb(154, 63, 47)" opacity="0.86"/>
<rect x="1295.00" y="1030" width="5.60" height="12" fill="rgb(154, 63, 47)" opacity="0.86"/>
<text x="90" y="1032" font-family="Hiragino Sans, Yu Gothic, sans-serif" font-size="17" fill="#555">薄い点は全100首。線は小倉順の1→100。色は序盤から終盤への進行を示す。</text>
<text x="996" y="1042" font-family="Hiragino Sans, Yu Gothic, sans-serif" font-size="14" fill="#555">H001</text>
<text x="1310" y="1042" font-family="Hiragino Sans, Yu Gothic, sans-serif" font-size="14" fill="#555">H100</text>
<text x="90" y="1064" font-family="Hiragino Sans, Yu Gothic, sans-serif" font-size="15" fill="#74706a">PC1+PC2寄与率 0.117。この線は2次元射影上の見え方であり、高次元の近さそのものではない。</text>
<text x="90" y="1088" font-family="Hiragino Sans, Yu Gothic, sans-serif" font-size="15" fill="#74706a">経路長 31.447（ランダム平均 32.969, percentile 0.136）。中心回り累積 22.8周分（percentile 0.085）。</text>
<text x="90" y="1112" font-family="Hiragino Sans, Yu Gothic, sans-serif" font-size="15" fill="#74706a">進行方向の総回転 34.5周分（ランダム平均 32.7, percentile 0.942）。小刻みに曲がる度合いを見る補助値。</text>
<text x="1181.39" y="1004.00" font-family="Hiragino Sans, Yu Gothic, sans-serif" font-size="16" fill="#74706a">PC1</text>
<text x="294.61" y="140.00" font-family="Hiragino Sans, Yu Gothic, sans-serif" font-size="16" fill="#74706a">PC2</text>
</svg>
