<svg xmlns="http://www.w3.org/2000/svg" width="1200" height="900" viewBox="0 0 1200 900">
<rect width="1200" height="900" fill="#fbfaf7"/>
<text x="80" y="50" font-family="Hiragino Sans, Yu Gothic, sans-serif" font-size="28" fill="#222">小倉百人一首 意味空間 PCA</text>
<text x="80" y="80" font-family="Hiragino Sans, Yu Gothic, sans-serif" font-size="15" fill="#555">本文 + 読みによる OpenAI embedding。線は小倉順。</text>
<line x1="318.50" y1="372.01" x2="96.42" y2="324.46" stroke="#d2ccc0" stroke-width="1.2" opacity="0.65"/>
<line x1="96.42" y1="324.46" x2="386.83" y2="560.39" stroke="#d2ccc0" stroke-width="1.2" opacity="0.65"/>
<line x1="386.83" y1="560.39" x2="177.68" y2="227.02" stroke="#d2ccc0" stroke-width="1.2" opacity="0.65"/>
<line x1="177.68" y1="227.02" x2="301.30" y2="425.60" stroke="#d2ccc0" stroke-width="1.2" opacity="0.65"/>
<line x1="301.30" y1="425.60" x2="253.63" y2="445.16" stroke="#d2ccc0" stroke-width="1.2" opacity="0.65"/>
<line x1="253.63" y1="445.16" x2="80.00" y2="502.57" stroke="#d2ccc0" stroke-width="1.2" opacity="0.65"/>
<line x1="80.00" y1="502.57" x2="584.55" y2="273.16" stroke="#d2ccc0" stroke-width="1.2" opacity="0.65"/>
<line x1="584.55" y1="273.16" x2="609.70" y2="363.22" stroke="#d2ccc0" stroke-width="1.2" opacity="0.65"/>
<line x1="609.70" y1="363.22" x2="563.69" y2="265.06" stroke="#d2ccc0" stroke-width="1.2" opacity="0.65"/>
<line x1="563.69" y1="265.06" x2="620.65" y2="171.13" stroke="#d2ccc0" stroke-width="1.2" opacity="0.65"/>
<line x1="620.65" y1="171.13" x2="447.43" y2="341.36" stroke="#d2ccc0" stroke-width="1.2" opacity="0.65"/>
<line x1="447.43" y1="341.36" x2="575.11" y2="269.23" stroke="#d2ccc0" stroke-width="1.2" opacity="0.65"/>
<line x1="575.11" y1="269.23" x2="623.67" y2="177.43" stroke="#d2ccc0" stroke-width="1.2" opacity="0.65"/>
<line x1="623.67" y1="177.43" x2="228.45" y2="353.40" stroke="#d2ccc0" stroke-width="1.2" opacity="0.65"/>
<line x1="228.45" y1="353.40" x2="344.43" y2="372.12" stroke="#d2ccc0" stroke-width="1.2" opacity="0.65"/>
<line x1="344.43" y1="372.12" x2="604.60" y2="228.15" stroke="#d2ccc0" stroke-width="1.2" opacity="0.65"/>
<line x1="604.60" y1="228.15" x2="577.17" y2="346.60" stroke="#d2ccc0" stroke-width="1.2" opacity="0.65"/>
<line x1="577.17" y1="346.60" x2="647.86" y2="266.50" stroke="#d2ccc0" stroke-width="1.2" opacity="0.65"/>
<line x1="647.86" y1="266.50" x2="960.05" y2="411.28" stroke="#d2ccc0" stroke-width="1.2" opacity="0.65"/>
<line x1="960.05" y1="411.28" x2="393.45" y2="811.63" stroke="#d2ccc0" stroke-width="1.2" opacity="0.65"/>
<line x1="393.45" y1="811.63" x2="188.31" y2="214.89" stroke="#d2ccc0" stroke-width="1.2" opacity="0.65"/>
<line x1="188.31" y1="214.89" x2="530.44" y2="610.38" stroke="#d2ccc0" stroke-width="1.2" opacity="0.65"/>
<line x1="530.44" y1="610.38" x2="292.70" y2="278.56" stroke="#d2ccc0" stroke-width="1.2" opacity="0.65"/>
<line x1="292.70" y1="278.56" x2="552.65" y2="172.01" stroke="#d2ccc0" stroke-width="1.2" opacity="0.65"/>
<line x1="552.65" y1="172.01" x2="472.81" y2="347.37" stroke="#d2ccc0" stroke-width="1.2" opacity="0.65"/>
<line x1="472.81" y1="347.37" x2="516.44" y2="362.91" stroke="#d2ccc0" stroke-width="1.2" opacity="0.65"/>
<line x1="516.44" y1="362.91" x2="438.50" y2="408.68" stroke="#d2ccc0" stroke-width="1.2" opacity="0.65"/>
<line x1="438.50" y1="408.68" x2="479.55" y2="432.57" stroke="#d2ccc0" stroke-width="1.2" opacity="0.65"/>
<line x1="479.55" y1="432.57" x2="541.74" y2="767.78" stroke="#d2ccc0" stroke-width="1.2" opacity="0.65"/>
<line x1="541.74" y1="767.78" x2="81.77" y2="515.31" stroke="#d2ccc0" stroke-width="1.2" opacity="0.65"/>
<line x1="81.77" y1="515.31" x2="367.98" y2="229.32" stroke="#d2ccc0" stroke-width="1.2" opacity="0.65"/>
<line x1="367.98" y1="229.32" x2="335.28" y2="513.50" stroke="#d2ccc0" stroke-width="1.2" opacity="0.65"/>
<line x1="335.28" y1="513.50" x2="771.98" y2="307.12" stroke="#d2ccc0" stroke-width="1.2" opacity="0.65"/>
<line x1="771.98" y1="307.12" x2="608.03" y2="373.67" stroke="#d2ccc0" stroke-width="1.2" opacity="0.65"/>
<line x1="608.03" y1="373.67" x2="260.57" y2="800.19" stroke="#d2ccc0" stroke-width="1.2" opacity="0.65"/>
<line x1="260.57" y1="800.19" x2="240.59" y2="448.05" stroke="#d2ccc0" stroke-width="1.2" opacity="0.65"/>
<line x1="240.59" y1="448.05" x2="1110.77" y2="408.02" stroke="#d2ccc0" stroke-width="1.2" opacity="0.65"/>
<line x1="1110.77" y1="408.02" x2="629.40" y2="351.81" stroke="#d2ccc0" stroke-width="1.2" opacity="0.65"/>
<line x1="629.40" y1="351.81" x2="799.04" y2="414.41" stroke="#d2ccc0" stroke-width="1.2" opacity="0.65"/>
<line x1="799.04" y1="414.41" x2="732.83" y2="451.43" stroke="#d2ccc0" stroke-width="1.2" opacity="0.65"/>
<line x1="732.83" y1="451.43" x2="520.35" y2="123.03" stroke="#d2ccc0" stroke-width="1.2" opacity="0.65"/>
<line x1="520.35" y1="123.03" x2="830.52" y2="579.90" stroke="#d2ccc0" stroke-width="1.2" opacity="0.65"/>
<line x1="830.52" y1="579.90" x2="1052.32" y2="402.41" stroke="#d2ccc0" stroke-width="1.2" opacity="0.65"/>
<line x1="1052.32" y1="402.41" x2="1101.06" y2="479.26" stroke="#d2ccc0" stroke-width="1.2" opacity="0.65"/>
<line x1="1101.06" y1="479.26" x2="694.68" y2="322.02" stroke="#d2ccc0" stroke-width="1.2" opacity="0.65"/>
<line x1="694.68" y1="322.02" x2="399.81" y2="519.66" stroke="#d2ccc0" stroke-width="1.2" opacity="0.65"/>
<line x1="399.81" y1="519.66" x2="648.91" y2="348.12" stroke="#d2ccc0" stroke-width="1.2" opacity="0.65"/>
<line x1="648.91" y1="348.12" x2="396.02" y2="612.01" stroke="#d2ccc0" stroke-width="1.2" opacity="0.65"/>
<line x1="396.02" y1="612.01" x2="1027.34" y2="493.25" stroke="#d2ccc0" stroke-width="1.2" opacity="0.65"/>
<line x1="1027.34" y1="493.25" x2="569.80" y2="342.04" stroke="#d2ccc0" stroke-width="1.2" opacity="0.65"/>
<line x1="569.80" y1="342.04" x2="673.59" y2="678.50" stroke="#d2ccc0" stroke-width="1.2" opacity="0.65"/>
<line x1="673.59" y1="678.50" x2="647.43" y2="781.98" stroke="#d2ccc0" stroke-width="1.2" opacity="0.65"/>
<line x1="647.43" y1="781.98" x2="906.95" y2="442.74" stroke="#d2ccc0" stroke-width="1.2" opacity="0.65"/>
<line x1="906.95" y1="442.74" x2="601.79" y2="310.73" stroke="#d2ccc0" stroke-width="1.2" opacity="0.65"/>
<line x1="601.79" y1="310.73" x2="855.30" y2="530.89" stroke="#d2ccc0" stroke-width="1.2" opacity="0.65"/>
<line x1="855.30" y1="530.89" x2="375.71" y2="694.73" stroke="#d2ccc0" stroke-width="1.2" opacity="0.65"/>
<line x1="375.71" y1="694.73" x2="401.88" y2="205.45" stroke="#d2ccc0" stroke-width="1.2" opacity="0.65"/>
<line x1="401.88" y1="205.45" x2="452.22" y2="820.00" stroke="#d2ccc0" stroke-width="1.2" opacity="0.65"/>
<line x1="452.22" y1="820.00" x2="494.66" y2="267.37" stroke="#d2ccc0" stroke-width="1.2" opacity="0.65"/>
<line x1="494.66" y1="267.37" x2="466.35" y2="394.16" stroke="#d2ccc0" stroke-width="1.2" opacity="0.65"/>
<line x1="466.35" y1="394.16" x2="422.13" y2="540.32" stroke="#d2ccc0" stroke-width="1.2" opacity="0.65"/>
<line x1="422.13" y1="540.32" x2="941.53" y2="488.09" stroke="#d2ccc0" stroke-width="1.2" opacity="0.65"/>
<line x1="941.53" y1="488.09" x2="321.57" y2="286.40" stroke="#d2ccc0" stroke-width="1.2" opacity="0.65"/>
<line x1="321.57" y1="286.40" x2="903.01" y2="384.48" stroke="#d2ccc0" stroke-width="1.2" opacity="0.65"/>
<line x1="903.01" y1="384.48" x2="606.72" y2="411.84" stroke="#d2ccc0" stroke-width="1.2" opacity="0.65"/>
<line x1="606.72" y1="411.84" x2="657.54" y2="550.18" stroke="#d2ccc0" stroke-width="1.2" opacity="0.65"/>
<line x1="657.54" y1="550.18" x2="584.99" y2="809.75" stroke="#d2ccc0" stroke-width="1.2" opacity="0.65"/>
<line x1="584.99" y1="809.75" x2="235.56" y2="106.87" stroke="#d2ccc0" stroke-width="1.2" opacity="0.65"/>
<line x1="235.56" y1="106.87" x2="391.11" y2="603.08" stroke="#d2ccc0" stroke-width="1.2" opacity="0.65"/>
<line x1="391.11" y1="603.08" x2="154.70" y2="392.06" stroke="#d2ccc0" stroke-width="1.2" opacity="0.65"/>
<line x1="154.70" y1="392.06" x2="482.43" y2="80.00" stroke="#d2ccc0" stroke-width="1.2" opacity="0.65"/>
<line x1="482.43" y1="80.00" x2="199.17" y2="290.82" stroke="#d2ccc0" stroke-width="1.2" opacity="0.65"/>
<line x1="199.17" y1="290.82" x2="759.97" y2="278.04" stroke="#d2ccc0" stroke-width="1.2" opacity="0.65"/>
<line x1="759.97" y1="278.04" x2="465.30" y2="444.74" stroke="#d2ccc0" stroke-width="1.2" opacity="0.65"/>
<line x1="465.30" y1="444.74" x2="354.11" y2="244.17" stroke="#d2ccc0" stroke-width="1.2" opacity="0.65"/>
<line x1="354.11" y1="244.17" x2="617.80" y2="310.18" stroke="#d2ccc0" stroke-width="1.2" opacity="0.65"/>
<line x1="617.80" y1="310.18" x2="441.96" y2="371.29" stroke="#d2ccc0" stroke-width="1.2" opacity="0.65"/>
<line x1="441.96" y1="371.29" x2="154.00" y2="667.94" stroke="#d2ccc0" stroke-width="1.2" opacity="0.65"/>
<line x1="154.00" y1="667.94" x2="758.15" y2="501.82" stroke="#d2ccc0" stroke-width="1.2" opacity="0.65"/>
<line x1="758.15" y1="501.82" x2="360.38" y2="778.23" stroke="#d2ccc0" stroke-width="1.2" opacity="0.65"/>
<line x1="360.38" y1="778.23" x2="907.98" y2="475.34" stroke="#d2ccc0" stroke-width="1.2" opacity="0.65"/>
<line x1="907.98" y1="475.34" x2="655.66" y2="336.86" stroke="#d2ccc0" stroke-width="1.2" opacity="0.65"/>
<line x1="655.66" y1="336.86" x2="695.19" y2="550.85" stroke="#d2ccc0" stroke-width="1.2" opacity="0.65"/>
<line x1="695.19" y1="550.85" x2="580.52" y2="783.07" stroke="#d2ccc0" stroke-width="1.2" opacity="0.65"/>
<line x1="580.52" y1="783.07" x2="584.82" y2="744.05" stroke="#d2ccc0" stroke-width="1.2" opacity="0.65"/>
<line x1="584.82" y1="744.05" x2="114.49" y2="465.51" stroke="#d2ccc0" stroke-width="1.2" opacity="0.65"/>
<line x1="114.49" y1="465.51" x2="637.40" y2="486.70" stroke="#d2ccc0" stroke-width="1.2" opacity="0.65"/>
<line x1="637.40" y1="486.70" x2="792.89" y2="380.33" stroke="#d2ccc0" stroke-width="1.2" opacity="0.65"/>
<line x1="792.89" y1="380.33" x2="425.60" y2="168.54" stroke="#d2ccc0" stroke-width="1.2" opacity="0.65"/>
<line x1="425.60" y1="168.54" x2="400.86" y2="533.36" stroke="#d2ccc0" stroke-width="1.2" opacity="0.65"/>
<line x1="400.86" y1="533.36" x2="839.26" y2="242.10" stroke="#d2ccc0" stroke-width="1.2" opacity="0.65"/>
<line x1="839.26" y1="242.10" x2="850.81" y2="265.40" stroke="#d2ccc0" stroke-width="1.2" opacity="0.65"/>
<line x1="850.81" y1="265.40" x2="234.29" y2="398.03" stroke="#d2ccc0" stroke-width="1.2" opacity="0.65"/>
<line x1="234.29" y1="398.03" x2="736.61" y2="286.13" stroke="#d2ccc0" stroke-width="1.2" opacity="0.65"/>
<line x1="736.61" y1="286.13" x2="400.25" y2="344.27" stroke="#d2ccc0" stroke-width="1.2" opacity="0.65"/>
<line x1="400.25" y1="344.27" x2="695.21" y2="280.27" stroke="#d2ccc0" stroke-width="1.2" opacity="0.65"/>
<line x1="695.21" y1="280.27" x2="252.50" y2="394.58" stroke="#d2ccc0" stroke-width="1.2" opacity="0.65"/>
<line x1="252.50" y1="394.58" x2="1120.00" y2="479.51" stroke="#d2ccc0" stroke-width="1.2" opacity="0.65"/>
<line x1="1120.00" y1="479.51" x2="508.82" y2="343.34" stroke="#d2ccc0" stroke-width="1.2" opacity="0.65"/>
<circle cx="318.50" cy="372.01" r="7" fill="#c27a00" opacity="0.88"/>
<text x="327.50" y="376.01" font-family="Hiragino Sans, Yu Gothic, sans-serif" font-size="11" fill="#222">1</text>
<circle cx="96.42" cy="324.46" r="7" fill="#008c95" opacity="0.88"/>
<text x="105.42" y="328.46" font-family="Hiragino Sans, Yu Gothic, sans-serif" font-size="11" fill="#222">2</text>
<circle cx="386.83" cy="560.39" r="7" fill="#c44f73" opacity="0.88"/>
<text x="395.83" y="564.39" font-family="Hiragino Sans, Yu Gothic, sans-serif" font-size="11" fill="#222">3</text>
<circle cx="177.68" cy="227.02" r="7" fill="#3f6fb5" opacity="0.88"/>
<text x="186.68" y="231.02" font-family="Hiragino Sans, Yu Gothic, sans-serif" font-size="11" fill="#222">4</text>
<circle cx="301.30" cy="425.60" r="7" fill="#c27a00" opacity="0.88"/>
<text x="310.30" y="429.60" font-family="Hiragino Sans, Yu Gothic, sans-serif" font-size="11" fill="#222">5</text>
<circle cx="253.63" cy="445.16" r="7" fill="#3f6fb5" opacity="0.88"/>
<text x="262.63" y="449.16" font-family="Hiragino Sans, Yu Gothic, sans-serif" font-size="11" fill="#222">6</text>
<circle cx="80.00" cy="502.57" r="7" fill="#7b61b8" opacity="0.88"/>
<text x="89.00" y="506.57" font-family="Hiragino Sans, Yu Gothic, sans-serif" font-size="11" fill="#222">7</text>
<circle cx="584.55" cy="273.16" r="7" fill="#666666" opacity="0.88"/>
<text x="593.55" y="277.16" font-family="Hiragino Sans, Yu Gothic, sans-serif" font-size="11" fill="#222">8</text>
<circle cx="609.70" cy="363.22" r="7" fill="#64a338" opacity="0.88"/>
<text x="618.70" y="367.22" font-family="Hiragino Sans, Yu Gothic, sans-serif" font-size="11" fill="#222">9</text>
<circle cx="563.69" cy="265.06" r="7" fill="#666666" opacity="0.88"/>
<text x="572.69" y="269.06" font-family="Hiragino Sans, Yu Gothic, sans-serif" font-size="11" fill="#222">10</text>
<circle cx="620.65" cy="171.13" r="7" fill="#7b61b8" opacity="0.88"/>
<text x="629.65" y="175.13" font-family="Hiragino Sans, Yu Gothic, sans-serif" font-size="11" fill="#222">11</text>
<circle cx="447.43" cy="341.36" r="7" fill="#666666" opacity="0.88"/>
<text x="456.43" y="345.36" font-family="Hiragino Sans, Yu Gothic, sans-serif" font-size="11" fill="#222">12</text>
<circle cx="575.11" cy="269.23" r="7" fill="#c44f73" opacity="0.88"/>
<text x="584.11" y="273.23" font-family="Hiragino Sans, Yu Gothic, sans-serif" font-size="11" fill="#222">13</text>
<circle cx="623.67" cy="177.43" r="7" fill="#c44f73" opacity="0.88"/>
<text x="632.67" y="181.43" font-family="Hiragino Sans, Yu Gothic, sans-serif" font-size="11" fill="#222">14</text>
<circle cx="228.45" cy="353.40" r="7" fill="#64a338" opacity="0.88"/>
<text x="237.45" y="357.40" font-family="Hiragino Sans, Yu Gothic, sans-serif" font-size="11" fill="#222">15</text>
<circle cx="344.43" cy="372.12" r="7" fill="#bd5e21" opacity="0.88"/>
<text x="353.43" y="376.12" font-family="Hiragino Sans, Yu Gothic, sans-serif" font-size="11" fill="#222">16</text>
<circle cx="604.60" cy="228.15" r="7" fill="#c27a00" opacity="0.88"/>
<text x="613.60" y="232.15" font-family="Hiragino Sans, Yu Gothic, sans-serif" font-size="11" fill="#222">17</text>
<circle cx="577.17" cy="346.60" r="7" fill="#c44f73" opacity="0.88"/>
<text x="586.17" y="350.60" font-family="Hiragino Sans, Yu Gothic, sans-serif" font-size="11" fill="#222">18</text>
<circle cx="647.86" cy="266.50" r="7" fill="#c44f73" opacity="0.88"/>
<text x="656.86" y="270.50" font-family="Hiragino Sans, Yu Gothic, sans-serif" font-size="11" fill="#222">19</text>
<circle cx="960.05" cy="411.28" r="7" fill="#c44f73" opacity="0.88"/>
<text x="969.05" y="415.28" font-family="Hiragino Sans, Yu Gothic, sans-serif" font-size="11" fill="#222">20</text>
<circle cx="393.45" cy="811.63" r="7" fill="#c44f73" opacity="0.88"/>
<text x="402.45" y="815.63" font-family="Hiragino Sans, Yu Gothic, sans-serif" font-size="11" fill="#222">21</text>
<circle cx="188.31" cy="214.89" r="7" fill="#c27a00" opacity="0.88"/>
<text x="197.31" y="218.89" font-family="Hiragino Sans, Yu Gothic, sans-serif" font-size="11" fill="#222">22</text>
<circle cx="530.44" cy="610.38" r="7" fill="#c27a00" opacity="0.88"/>
<text x="539.44" y="614.38" font-family="Hiragino Sans, Yu Gothic, sans-serif" font-size="11" fill="#222">23</text>
<circle cx="292.70" cy="278.56" r="7" fill="#7b61b8" opacity="0.88"/>
<text x="301.70" y="282.56" font-family="Hiragino Sans, Yu Gothic, sans-serif" font-size="11" fill="#222">24</text>
<circle cx="552.65" cy="172.01" r="7" fill="#c44f73" opacity="0.88"/>
<text x="561.65" y="176.01" font-family="Hiragino Sans, Yu Gothic, sans-serif" font-size="11" fill="#222">25</text>
<circle cx="472.81" cy="347.37" r="7" fill="#c27a00" opacity="0.88"/>
<text x="481.81" y="351.37" font-family="Hiragino Sans, Yu Gothic, sans-serif" font-size="11" fill="#222">26</text>
<circle cx="516.44" cy="362.91" r="7" fill="#c44f73" opacity="0.88"/>
<text x="525.44" y="366.91" font-family="Hiragino Sans, Yu Gothic, sans-serif" font-size="11" fill="#222">27</text>
<circle cx="438.50" cy="408.68" r="7" fill="#3f6fb5" opacity="0.88"/>
<text x="447.50" y="412.68" font-family="Hiragino Sans, Yu Gothic, sans-serif" font-size="11" fill="#222">28</text>
<circle cx="479.55" cy="432.57" r="7" fill="#c27a00" opacity="0.88"/>
<text x="488.55" y="436.57" font-family="Hiragino Sans, Yu Gothic, sans-serif" font-size="11" fill="#222">29</text>
<circle cx="541.74" cy="767.78" r="7" fill="#c44f73" opacity="0.88"/>
<text x="550.74" y="771.78" font-family="Hiragino Sans, Yu Gothic, sans-serif" font-size="11" fill="#222">30</text>
<circle cx="81.77" cy="515.31" r="7" fill="#3f6fb5" opacity="0.88"/>
<text x="90.77" y="519.31" font-family="Hiragino Sans, Yu Gothic, sans-serif" font-size="11" fill="#222">31</text>
<circle cx="367.98" cy="229.32" r="7" fill="#c27a00" opacity="0.88"/>
<text x="376.98" y="233.32" font-family="Hiragino Sans, Yu Gothic, sans-serif" font-size="11" fill="#222">32</text>
<circle cx="335.28" cy="513.50" r="7" fill="#64a338" opacity="0.88"/>
<text x="344.28" y="517.50" font-family="Hiragino Sans, Yu Gothic, sans-serif" font-size="11" fill="#222">33</text>
<circle cx="771.98" cy="307.12" r="7" fill="#666666" opacity="0.88"/>
<text x="780.98" y="311.12" font-family="Hiragino Sans, Yu Gothic, sans-serif" font-size="11" fill="#222">34</text>
<circle cx="608.03" cy="373.67" r="7" fill="#64a338" opacity="0.88"/>
<text x="617.03" y="377.67" font-family="Hiragino Sans, Yu Gothic, sans-serif" font-size="11" fill="#222">35</text>
<circle cx="260.57" cy="800.19" r="7" fill="#008c95" opacity="0.88"/>
<text x="269.57" y="804.19" font-family="Hiragino Sans, Yu Gothic, sans-serif" font-size="11" fill="#222">36</text>
<circle cx="240.59" cy="448.05" r="7" fill="#c27a00" opacity="0.88"/>
<text x="249.59" y="452.05" font-family="Hiragino Sans, Yu Gothic, sans-serif" font-size="11" fill="#222">37</text>
<circle cx="1110.77" cy="408.02" r="7" fill="#c44f73" opacity="0.88"/>
<text x="1119.77" y="412.02" font-family="Hiragino Sans, Yu Gothic, sans-serif" font-size="11" fill="#222">38</text>
<circle cx="629.40" cy="351.81" r="7" fill="#c44f73" opacity="0.88"/>
<text x="638.40" y="355.81" font-family="Hiragino Sans, Yu Gothic, sans-serif" font-size="11" fill="#222">39</text>
<circle cx="799.04" cy="414.41" r="7" fill="#c44f73" opacity="0.88"/>
<text x="808.04" y="418.41" font-family="Hiragino Sans, Yu Gothic, sans-serif" font-size="11" fill="#222">40</text>
<circle cx="732.83" cy="451.43" r="7" fill="#c44f73" opacity="0.88"/>
<text x="741.83" y="455.43" font-family="Hiragino Sans, Yu Gothic, sans-serif" font-size="11" fill="#222">41</text>
<circle cx="520.35" cy="123.03" r="7" fill="#c44f73" opacity="0.88"/>
<text x="529.35" y="127.03" font-family="Hiragino Sans, Yu Gothic, sans-serif" font-size="11" fill="#222">42</text>
<circle cx="830.52" cy="579.90" r="7" fill="#c44f73" opacity="0.88"/>
<text x="839.52" y="583.90" font-family="Hiragino Sans, Yu Gothic, sans-serif" font-size="11" fill="#222">43</text>
<circle cx="1052.32" cy="402.41" r="7" fill="#c44f73" opacity="0.88"/>
<text x="1061.32" y="406.41" font-family="Hiragino Sans, Yu Gothic, sans-serif" font-size="11" fill="#222">44</text>
<circle cx="1101.06" cy="479.26" r="7" fill="#c44f73" opacity="0.88"/>
<text x="1110.06" y="483.26" font-family="Hiragino Sans, Yu Gothic, sans-serif" font-size="11" fill="#222">45</text>
<circle cx="694.68" cy="322.02" r="7" fill="#c44f73" opacity="0.88"/>
<text x="703.68" y="326.02" font-family="Hiragino Sans, Yu Gothic, sans-serif" font-size="11" fill="#222">46</text>
<circle cx="399.81" cy="519.66" r="7" fill="#c27a00" opacity="0.88"/>
<text x="408.81" y="523.66" font-family="Hiragino Sans, Yu Gothic, sans-serif" font-size="11" fill="#222">47</text>
<circle cx="648.91" cy="348.12" r="7" fill="#c44f73" opacity="0.88"/>
<text x="657.91" y="352.12" font-family="Hiragino Sans, Yu Gothic, sans-serif" font-size="11" fill="#222">48</text>
<circle cx="396.02" cy="612.01" r="7" fill="#c44f73" opacity="0.88"/>
<text x="405.02" y="616.01" font-family="Hiragino Sans, Yu Gothic, sans-serif" font-size="11" fill="#222">49</text>
<circle cx="1027.34" cy="493.25" r="7" fill="#c44f73" opacity="0.88"/>
<text x="1036.34" y="497.25" font-family="Hiragino Sans, Yu Gothic, sans-serif" font-size="11" fill="#222">50</text>
<circle cx="569.80" cy="342.04" r="7" fill="#c44f73" opacity="0.88"/>
<text x="578.80" y="346.04" font-family="Hiragino Sans, Yu Gothic, sans-serif" font-size="11" fill="#222">51</text>
<circle cx="673.59" cy="678.50" r="7" fill="#c44f73" opacity="0.88"/>
<text x="682.59" y="682.50" font-family="Hiragino Sans, Yu Gothic, sans-serif" font-size="11" fill="#222">52</text>
<circle cx="647.43" cy="781.98" r="7" fill="#c44f73" opacity="0.88"/>
<text x="656.43" y="785.98" font-family="Hiragino Sans, Yu Gothic, sans-serif" font-size="11" fill="#222">53</text>
<circle cx="906.95" cy="442.74" r="7" fill="#c44f73" opacity="0.88"/>
<text x="915.95" y="446.74" font-family="Hiragino Sans, Yu Gothic, sans-serif" font-size="11" fill="#222">54</text>
<circle cx="601.79" cy="310.73" r="7" fill="#666666" opacity="0.88"/>
<text x="610.79" y="314.73" font-family="Hiragino Sans, Yu Gothic, sans-serif" font-size="11" fill="#222">55</text>
<circle cx="855.30" cy="530.89" r="7" fill="#c44f73" opacity="0.88"/>
<text x="864.30" y="534.89" font-family="Hiragino Sans, Yu Gothic, sans-serif" font-size="11" fill="#222">56</text>
<circle cx="375.71" cy="694.73" r="7" fill="#666666" opacity="0.88"/>
<text x="384.71" y="698.73" font-family="Hiragino Sans, Yu Gothic, sans-serif" font-size="11" fill="#222">57</text>
<circle cx="401.88" cy="205.45" r="7" fill="#c44f73" opacity="0.88"/>
<text x="410.88" y="209.45" font-family="Hiragino Sans, Yu Gothic, sans-serif" font-size="11" fill="#222">58</text>
<circle cx="452.22" cy="820.00" r="7" fill="#c44f73" opacity="0.88"/>
<text x="461.22" y="824.00" font-family="Hiragino Sans, Yu Gothic, sans-serif" font-size="11" fill="#222">59</text>
<circle cx="494.66" cy="267.37" r="7" fill="#666666" opacity="0.88"/>
<text x="503.66" y="271.37" font-family="Hiragino Sans, Yu Gothic, sans-serif" font-size="11" fill="#222">60</text>
<circle cx="466.35" cy="394.16" r="7" fill="#64a338" opacity="0.88"/>
<text x="475.35" y="398.16" font-family="Hiragino Sans, Yu Gothic, sans-serif" font-size="11" fill="#222">61</text>
<circle cx="422.13" cy="540.32" r="7" fill="#666666" opacity="0.88"/>
<text x="431.13" y="544.32" font-family="Hiragino Sans, Yu Gothic, sans-serif" font-size="11" fill="#222">62</text>
<circle cx="941.53" cy="488.09" r="7" fill="#c44f73" opacity="0.88"/>
<text x="950.53" y="492.09" font-family="Hiragino Sans, Yu Gothic, sans-serif" font-size="11" fill="#222">63</text>
<circle cx="321.57" cy="286.40" r="7" fill="#3f6fb5" opacity="0.88"/>
<text x="330.57" y="290.40" font-family="Hiragino Sans, Yu Gothic, sans-serif" font-size="11" fill="#222">64</text>
<circle cx="903.01" cy="384.48" r="7" fill="#c44f73" opacity="0.88"/>
<text x="912.01" y="388.48" font-family="Hiragino Sans, Yu Gothic, sans-serif" font-size="11" fill="#222">65</text>
<circle cx="606.72" cy="411.84" r="7" fill="#666666" opacity="0.88"/>
<text x="615.72" y="415.84" font-family="Hiragino Sans, Yu Gothic, sans-serif" font-size="11" fill="#222">66</text>
<circle cx="657.54" cy="550.18" r="7" fill="#666666" opacity="0.88"/>
<text x="666.54" y="554.18" font-family="Hiragino Sans, Yu Gothic, sans-serif" font-size="11" fill="#222">67</text>
<circle cx="584.99" cy="809.75" r="7" fill="#666666" opacity="0.88"/>
<text x="593.99" y="813.75" font-family="Hiragino Sans, Yu Gothic, sans-serif" font-size="11" fill="#222">68</text>
<circle cx="235.56" cy="106.87" r="7" fill="#c27a00" opacity="0.88"/>
<text x="244.56" y="110.87" font-family="Hiragino Sans, Yu Gothic, sans-serif" font-size="11" fill="#222">69</text>
<circle cx="391.11" cy="603.08" r="7" fill="#c27a00" opacity="0.88"/>
<text x="400.11" y="607.08" font-family="Hiragino Sans, Yu Gothic, sans-serif" font-size="11" fill="#222">70</text>
<circle cx="154.70" cy="392.06" r="7" fill="#c27a00" opacity="0.88"/>
<text x="163.70" y="396.06" font-family="Hiragino Sans, Yu Gothic, sans-serif" font-size="11" fill="#222">71</text>
<circle cx="482.43" cy="80.00" r="7" fill="#c44f73" opacity="0.88"/>
<text x="491.43" y="84.00" font-family="Hiragino Sans, Yu Gothic, sans-serif" font-size="11" fill="#222">72</text>
<circle cx="199.17" cy="290.82" r="7" fill="#64a338" opacity="0.88"/>
<text x="208.17" y="294.82" font-family="Hiragino Sans, Yu Gothic, sans-serif" font-size="11" fill="#222">73</text>
<circle cx="759.97" cy="278.04" r="7" fill="#c44f73" opacity="0.88"/>
<text x="768.97" y="282.04" font-family="Hiragino Sans, Yu Gothic, sans-serif" font-size="11" fill="#222">74</text>
<circle cx="465.30" cy="444.74" r="7" fill="#666666" opacity="0.88"/>
<text x="474.30" y="448.74" font-family="Hiragino Sans, Yu Gothic, sans-serif" font-size="11" fill="#222">75</text>
<circle cx="354.11" cy="244.17" r="7" fill="#666666" opacity="0.88"/>
<text x="363.11" y="248.17" font-family="Hiragino Sans, Yu Gothic, sans-serif" font-size="11" fill="#222">76</text>
<circle cx="617.80" cy="310.18" r="7" fill="#c44f73" opacity="0.88"/>
<text x="626.80" y="314.18" font-family="Hiragino Sans, Yu Gothic, sans-serif" font-size="11" fill="#222">77</text>
<circle cx="441.96" cy="371.29" r="7" fill="#3f6fb5" opacity="0.88"/>
<text x="450.96" y="375.29" font-family="Hiragino Sans, Yu Gothic, sans-serif" font-size="11" fill="#222">78</text>
<circle cx="154.00" cy="667.94" r="7" fill="#c27a00" opacity="0.88"/>
<text x="163.00" y="671.94" font-family="Hiragino Sans, Yu Gothic, sans-serif" font-size="11" fill="#222">79</text>
<circle cx="758.15" cy="501.82" r="7" fill="#c44f73" opacity="0.88"/>
<text x="767.15" y="505.82" font-family="Hiragino Sans, Yu Gothic, sans-serif" font-size="11" fill="#222">80</text>
<circle cx="360.38" cy="778.23" r="7" fill="#008c95" opacity="0.88"/>
<text x="369.38" y="782.23" font-family="Hiragino Sans, Yu Gothic, sans-serif" font-size="11" fill="#222">81</text>
<circle cx="907.98" cy="475.34" r="7" fill="#c44f73" opacity="0.88"/>
<text x="916.98" y="479.34" font-family="Hiragino Sans, Yu Gothic, sans-serif" font-size="11" fill="#222">82</text>
<circle cx="655.66" cy="336.86" r="7" fill="#666666" opacity="0.88"/>
<text x="664.66" y="340.86" font-family="Hiragino Sans, Yu Gothic, sans-serif" font-size="11" fill="#222">83</text>
<circle cx="695.19" cy="550.85" r="7" fill="#666666" opacity="0.88"/>
<text x="704.19" y="554.85" font-family="Hiragino Sans, Yu Gothic, sans-serif" font-size="11" fill="#222">84</text>
<circle cx="580.52" cy="783.07" r="7" fill="#c44f73" opacity="0.88"/>
<text x="589.52" y="787.07" font-family="Hiragino Sans, Yu Gothic, sans-serif" font-size="11" fill="#222">85</text>
<circle cx="584.82" cy="744.05" r="7" fill="#c44f73" opacity="0.88"/>
<text x="593.82" y="748.05" font-family="Hiragino Sans, Yu Gothic, sans-serif" font-size="11" fill="#222">86</text>
<circle cx="114.49" cy="465.51" r="7" fill="#c27a00" opacity="0.88"/>
<text x="123.49" y="469.51" font-family="Hiragino Sans, Yu Gothic, sans-serif" font-size="11" fill="#222">87</text>
<circle cx="637.40" cy="486.70" r="7" fill="#c44f73" opacity="0.88"/>
<text x="646.40" y="490.70" font-family="Hiragino Sans, Yu Gothic, sans-serif" font-size="11" fill="#222">88</text>
<circle cx="792.89" cy="380.33" r="7" fill="#c44f73" opacity="0.88"/>
<text x="801.89" y="384.33" font-family="Hiragino Sans, Yu Gothic, sans-serif" font-size="11" fill="#222">89</text>
<circle cx="425.60" cy="168.54" r="7" fill="#c44f73" opacity="0.88"/>
<text x="434.60" y="172.54" font-family="Hiragino Sans, Yu Gothic, sans-serif" font-size="11" fill="#222">90</text>
<circle cx="400.86" cy="533.36" r="7" fill="#c27a00" opacity="0.88"/>
<text x="409.86" y="537.36" font-family="Hiragino Sans, Yu Gothic, sans-serif" font-size="11" fill="#222">91</text>
<circle cx="839.26" cy="242.10" r="7" fill="#c44f73" opacity="0.88"/>
<text x="848.26" y="246.10" font-family="Hiragino Sans, Yu Gothic, sans-serif" font-size="11" fill="#222">92</text>
<circle cx="850.81" cy="265.40" r="7" fill="#7b61b8" opacity="0.88"/>
<text x="859.81" y="269.40" font-family="Hiragino Sans, Yu Gothic, sans-serif" font-size="11" fill="#222">93</text>
<circle cx="234.29" cy="398.03" r="7" fill="#c27a00" opacity="0.88"/>
<text x="243.29" y="402.03" font-family="Hiragino Sans, Yu Gothic, sans-serif" font-size="11" fill="#222">94</text>
<circle cx="736.61" cy="286.13" r="7" fill="#666666" opacity="0.88"/>
<text x="745.61" y="290.13" font-family="Hiragino Sans, Yu Gothic, sans-serif" font-size="11" fill="#222">95</text>
<circle cx="400.25" cy="344.27" r="7" fill="#666666" opacity="0.88"/>
<text x="409.25" y="348.27" font-family="Hiragino Sans, Yu Gothic, sans-serif" font-size="11" fill="#222">96</text>
<circle cx="695.21" cy="280.27" r="7" fill="#c44f73" opacity="0.88"/>
<text x="704.21" y="284.27" font-family="Hiragino Sans, Yu Gothic, sans-serif" font-size="11" fill="#222">97</text>
<circle cx="252.50" cy="394.58" r="7" fill="#008c95" opacity="0.88"/>
<text x="261.50" y="398.58" font-family="Hiragino Sans, Yu Gothic, sans-serif" font-size="11" fill="#222">98</text>
<circle cx="1120.00" cy="479.51" r="7" fill="#666666" opacity="0.88"/>
<text x="1129.00" y="483.51" font-family="Hiragino Sans, Yu Gothic, sans-serif" font-size="11" fill="#222">99</text>
<circle cx="508.82" cy="343.34" r="7" fill="#666666" opacity="0.88"/>
<text x="517.82" y="347.34" font-family="Hiragino Sans, Yu Gothic, sans-serif" font-size="11" fill="#222">100</text>
<circle cx="880" cy="120" r="6" fill="#64a338"/>
<text x="894" y="125" font-family="Hiragino Sans, Yu Gothic, sans-serif" font-size="14" fill="#333">春</text>
<circle cx="880" cy="144" r="6" fill="#008c95"/>
<text x="894" y="149" font-family="Hiragino Sans, Yu Gothic, sans-serif" font-size="14" fill="#333">夏</text>
<circle cx="880" cy="168" r="6" fill="#c27a00"/>
<text x="894" y="173" font-family="Hiragino Sans, Yu Gothic, sans-serif" font-size="14" fill="#333">秋</text>
<circle cx="880" cy="192" r="6" fill="#3f6fb5"/>
<text x="894" y="197" font-family="Hiragino Sans, Yu Gothic, sans-serif" font-size="14" fill="#333">冬</text>
<circle cx="880" cy="216" r="6" fill="#c44f73"/>
<text x="894" y="221" font-family="Hiragino Sans, Yu Gothic, sans-serif" font-size="14" fill="#333">恋</text>
<circle cx="880" cy="240" r="6" fill="#666666"/>
<text x="894" y="245" font-family="Hiragino Sans, Yu Gothic, sans-serif" font-size="14" fill="#333">雑</text>
<circle cx="880" cy="264" r="6" fill="#7b61b8"/>
<text x="894" y="269" font-family="Hiragino Sans, Yu Gothic, sans-serif" font-size="14" fill="#333">羇旅</text>
<circle cx="880" cy="288" r="6" fill="#bd5e21"/>
<text x="894" y="293" font-family="Hiragino Sans, Yu Gothic, sans-serif" font-size="14" fill="#333">離別</text>
<circle cx="880" cy="312" r="6" fill="#6a6f7d"/>
<text x="894" y="317" font-family="Hiragino Sans, Yu Gothic, sans-serif" font-size="14" fill="#333">哀傷</text>
</svg>
