<svg xmlns="http://www.w3.org/2000/svg" width="1200" height="900" viewBox="0 0 1200 900">
<rect width="1200" height="900" fill="#fbfaf7"/>
<text x="80" y="50" font-family="Hiragino Sans, Yu Gothic, sans-serif" font-size="28" fill="#222">小倉百人一首 意味空間 PCA</text>
<text x="80" y="80" font-family="Hiragino Sans, Yu Gothic, sans-serif" font-size="15" fill="#555">本文 + 読みによる OpenAI embedding。線は小倉順。</text>
<line x1="287.93" y1="226.47" x2="270.27" y2="288.27" stroke="#d2ccc0" stroke-width="1.2" opacity="0.65"/>
<line x1="270.27" y1="288.27" x2="450.41" y2="441.11" stroke="#d2ccc0" stroke-width="1.2" opacity="0.65"/>
<line x1="450.41" y1="441.11" x2="325.51" y2="116.19" stroke="#d2ccc0" stroke-width="1.2" opacity="0.65"/>
<line x1="325.51" y1="116.19" x2="241.15" y2="368.69" stroke="#d2ccc0" stroke-width="1.2" opacity="0.65"/>
<line x1="241.15" y1="368.69" x2="410.84" y2="387.24" stroke="#d2ccc0" stroke-width="1.2" opacity="0.65"/>
<line x1="410.84" y1="387.24" x2="178.28" y2="480.14" stroke="#d2ccc0" stroke-width="1.2" opacity="0.65"/>
<line x1="178.28" y1="480.14" x2="709.77" y2="216.88" stroke="#d2ccc0" stroke-width="1.2" opacity="0.65"/>
<line x1="709.77" y1="216.88" x2="742.15" y2="375.49" stroke="#d2ccc0" stroke-width="1.2" opacity="0.65"/>
<line x1="742.15" y1="375.49" x2="752.65" y2="323.42" stroke="#d2ccc0" stroke-width="1.2" opacity="0.65"/>
<line x1="752.65" y1="323.42" x2="714.17" y2="80.00" stroke="#d2ccc0" stroke-width="1.2" opacity="0.65"/>
<line x1="714.17" y1="80.00" x2="419.73" y2="429.78" stroke="#d2ccc0" stroke-width="1.2" opacity="0.65"/>
<line x1="419.73" y1="429.78" x2="578.19" y2="122.04" stroke="#d2ccc0" stroke-width="1.2" opacity="0.65"/>
<line x1="578.19" y1="122.04" x2="719.43" y2="172.24" stroke="#d2ccc0" stroke-width="1.2" opacity="0.65"/>
<line x1="719.43" y1="172.24" x2="306.49" y2="343.90" stroke="#d2ccc0" stroke-width="1.2" opacity="0.65"/>
<line x1="306.49" y1="343.90" x2="570.64" y2="149.51" stroke="#d2ccc0" stroke-width="1.2" opacity="0.65"/>
<line x1="570.64" y1="149.51" x2="575.90" y2="124.07" stroke="#d2ccc0" stroke-width="1.2" opacity="0.65"/>
<line x1="575.90" y1="124.07" x2="634.18" y2="331.25" stroke="#d2ccc0" stroke-width="1.2" opacity="0.65"/>
<line x1="634.18" y1="331.25" x2="693.06" y2="161.65" stroke="#d2ccc0" stroke-width="1.2" opacity="0.65"/>
<line x1="693.06" y1="161.65" x2="970.90" y2="413.58" stroke="#d2ccc0" stroke-width="1.2" opacity="0.65"/>
<line x1="970.90" y1="413.58" x2="409.54" y2="711.69" stroke="#d2ccc0" stroke-width="1.2" opacity="0.65"/>
<line x1="409.54" y1="711.69" x2="240.62" y2="198.25" stroke="#d2ccc0" stroke-width="1.2" opacity="0.65"/>
<line x1="240.62" y1="198.25" x2="363.20" y2="642.36" stroke="#d2ccc0" stroke-width="1.2" opacity="0.65"/>
<line x1="363.20" y1="642.36" x2="315.39" y2="255.28" stroke="#d2ccc0" stroke-width="1.2" opacity="0.65"/>
<line x1="315.39" y1="255.28" x2="699.05" y2="110.77" stroke="#d2ccc0" stroke-width="1.2" opacity="0.65"/>
<line x1="699.05" y1="110.77" x2="465.87" y2="261.09" stroke="#d2ccc0" stroke-width="1.2" opacity="0.65"/>
<line x1="465.87" y1="261.09" x2="672.99" y2="287.52" stroke="#d2ccc0" stroke-width="1.2" opacity="0.65"/>
<line x1="672.99" y1="287.52" x2="472.02" y2="385.13" stroke="#d2ccc0" stroke-width="1.2" opacity="0.65"/>
<line x1="472.02" y1="385.13" x2="419.05" y2="484.68" stroke="#d2ccc0" stroke-width="1.2" opacity="0.65"/>
<line x1="419.05" y1="484.68" x2="602.85" y2="716.95" stroke="#d2ccc0" stroke-width="1.2" opacity="0.65"/>
<line x1="602.85" y1="716.95" x2="170.01" y2="483.04" stroke="#d2ccc0" stroke-width="1.2" opacity="0.65"/>
<line x1="170.01" y1="483.04" x2="279.48" y2="261.57" stroke="#d2ccc0" stroke-width="1.2" opacity="0.65"/>
<line x1="279.48" y1="261.57" x2="349.07" y2="363.06" stroke="#d2ccc0" stroke-width="1.2" opacity="0.65"/>
<line x1="349.07" y1="363.06" x2="798.46" y2="289.97" stroke="#d2ccc0" stroke-width="1.2" opacity="0.65"/>
<line x1="798.46" y1="289.97" x2="826.64" y2="324.95" stroke="#d2ccc0" stroke-width="1.2" opacity="0.65"/>
<line x1="826.64" y1="324.95" x2="239.31" y2="629.48" stroke="#d2ccc0" stroke-width="1.2" opacity="0.65"/>
<line x1="239.31" y1="629.48" x2="150.44" y2="325.04" stroke="#d2ccc0" stroke-width="1.2" opacity="0.65"/>
<line x1="150.44" y1="325.04" x2="1090.27" y2="538.00" stroke="#d2ccc0" stroke-width="1.2" opacity="0.65"/>
<line x1="1090.27" y1="538.00" x2="757.21" y2="242.16" stroke="#d2ccc0" stroke-width="1.2" opacity="0.65"/>
<line x1="757.21" y1="242.16" x2="921.72" y2="439.77" stroke="#d2ccc0" stroke-width="1.2" opacity="0.65"/>
<line x1="921.72" y1="439.77" x2="972.71" y2="345.35" stroke="#d2ccc0" stroke-width="1.2" opacity="0.65"/>
<line x1="972.71" y1="345.35" x2="560.27" y2="253.33" stroke="#d2ccc0" stroke-width="1.2" opacity="0.65"/>
<line x1="560.27" y1="253.33" x2="858.08" y2="559.40" stroke="#d2ccc0" stroke-width="1.2" opacity="0.65"/>
<line x1="858.08" y1="559.40" x2="968.34" y2="394.16" stroke="#d2ccc0" stroke-width="1.2" opacity="0.65"/>
<line x1="968.34" y1="394.16" x2="990.41" y2="502.20" stroke="#d2ccc0" stroke-width="1.2" opacity="0.65"/>
<line x1="990.41" y1="502.20" x2="857.20" y2="294.07" stroke="#d2ccc0" stroke-width="1.2" opacity="0.65"/>
<line x1="857.20" y1="294.07" x2="354.50" y2="400.05" stroke="#d2ccc0" stroke-width="1.2" opacity="0.65"/>
<line x1="354.50" y1="400.05" x2="779.15" y2="292.65" stroke="#d2ccc0" stroke-width="1.2" opacity="0.65"/>
<line x1="779.15" y1="292.65" x2="571.29" y2="596.31" stroke="#d2ccc0" stroke-width="1.2" opacity="0.65"/>
<line x1="571.29" y1="596.31" x2="952.75" y2="550.40" stroke="#d2ccc0" stroke-width="1.2" opacity="0.65"/>
<line x1="952.75" y1="550.40" x2="788.87" y2="330.85" stroke="#d2ccc0" stroke-width="1.2" opacity="0.65"/>
<line x1="788.87" y1="330.85" x2="731.07" y2="546.23" stroke="#d2ccc0" stroke-width="1.2" opacity="0.65"/>
<line x1="731.07" y1="546.23" x2="556.97" y2="768.70" stroke="#d2ccc0" stroke-width="1.2" opacity="0.65"/>
<line x1="556.97" y1="768.70" x2="907.79" y2="482.30" stroke="#d2ccc0" stroke-width="1.2" opacity="0.65"/>
<line x1="907.79" y1="482.30" x2="664.27" y2="246.94" stroke="#d2ccc0" stroke-width="1.2" opacity="0.65"/>
<line x1="664.27" y1="246.94" x2="917.33" y2="471.04" stroke="#d2ccc0" stroke-width="1.2" opacity="0.65"/>
<line x1="917.33" y1="471.04" x2="389.01" y2="711.60" stroke="#d2ccc0" stroke-width="1.2" opacity="0.65"/>
<line x1="389.01" y1="711.60" x2="680.63" y2="221.78" stroke="#d2ccc0" stroke-width="1.2" opacity="0.65"/>
<line x1="680.63" y1="221.78" x2="386.54" y2="683.99" stroke="#d2ccc0" stroke-width="1.2" opacity="0.65"/>
<line x1="386.54" y1="683.99" x2="454.89" y2="250.46" stroke="#d2ccc0" stroke-width="1.2" opacity="0.65"/>
<line x1="454.89" y1="250.46" x2="587.12" y2="200.56" stroke="#d2ccc0" stroke-width="1.2" opacity="0.65"/>
<line x1="587.12" y1="200.56" x2="456.08" y2="475.40" stroke="#d2ccc0" stroke-width="1.2" opacity="0.65"/>
<line x1="456.08" y1="475.40" x2="1068.13" y2="496.95" stroke="#d2ccc0" stroke-width="1.2" opacity="0.65"/>
<line x1="1068.13" y1="496.95" x2="474.42" y2="106.85" stroke="#d2ccc0" stroke-width="1.2" opacity="0.65"/>
<line x1="474.42" y1="106.85" x2="894.27" y2="399.13" stroke="#d2ccc0" stroke-width="1.2" opacity="0.65"/>
<line x1="894.27" y1="399.13" x2="767.92" y2="277.64" stroke="#d2ccc0" stroke-width="1.2" opacity="0.65"/>
<line x1="767.92" y1="277.64" x2="532.89" y2="537.48" stroke="#d2ccc0" stroke-width="1.2" opacity="0.65"/>
<line x1="532.89" y1="537.48" x2="613.18" y2="820.00" stroke="#d2ccc0" stroke-width="1.2" opacity="0.65"/>
<line x1="613.18" y1="820.00" x2="278.36" y2="124.62" stroke="#d2ccc0" stroke-width="1.2" opacity="0.65"/>
<line x1="278.36" y1="124.62" x2="330.90" y2="594.89" stroke="#d2ccc0" stroke-width="1.2" opacity="0.65"/>
<line x1="330.90" y1="594.89" x2="202.97" y2="318.64" stroke="#d2ccc0" stroke-width="1.2" opacity="0.65"/>
<line x1="202.97" y1="318.64" x2="604.44" y2="209.53" stroke="#d2ccc0" stroke-width="1.2" opacity="0.65"/>
<line x1="604.44" y1="209.53" x2="364.15" y2="239.28" stroke="#d2ccc0" stroke-width="1.2" opacity="0.65"/>
<line x1="364.15" y1="239.28" x2="787.25" y2="200.35" stroke="#d2ccc0" stroke-width="1.2" opacity="0.65"/>
<line x1="787.25" y1="200.35" x2="461.70" y2="435.83" stroke="#d2ccc0" stroke-width="1.2" opacity="0.65"/>
<line x1="461.70" y1="435.83" x2="483.13" y2="226.13" stroke="#d2ccc0" stroke-width="1.2" opacity="0.65"/>
<line x1="483.13" y1="226.13" x2="758.25" y2="248.26" stroke="#d2ccc0" stroke-width="1.2" opacity="0.65"/>
<line x1="758.25" y1="248.26" x2="504.37" y2="372.48" stroke="#d2ccc0" stroke-width="1.2" opacity="0.65"/>
<line x1="504.37" y1="372.48" x2="215.02" y2="552.81" stroke="#d2ccc0" stroke-width="1.2" opacity="0.65"/>
<line x1="215.02" y1="552.81" x2="841.59" y2="455.58" stroke="#d2ccc0" stroke-width="1.2" opacity="0.65"/>
<line x1="841.59" y1="455.58" x2="400.11" y2="649.35" stroke="#d2ccc0" stroke-width="1.2" opacity="0.65"/>
<line x1="400.11" y1="649.35" x2="956.24" y2="553.03" stroke="#d2ccc0" stroke-width="1.2" opacity="0.65"/>
<line x1="956.24" y1="553.03" x2="697.54" y2="244.52" stroke="#d2ccc0" stroke-width="1.2" opacity="0.65"/>
<line x1="697.54" y1="244.52" x2="934.11" y2="474.20" stroke="#d2ccc0" stroke-width="1.2" opacity="0.65"/>
<line x1="934.11" y1="474.20" x2="579.66" y2="733.44" stroke="#d2ccc0" stroke-width="1.2" opacity="0.65"/>
<line x1="579.66" y1="733.44" x2="624.13" y2="746.40" stroke="#d2ccc0" stroke-width="1.2" opacity="0.65"/>
<line x1="624.13" y1="746.40" x2="80.00" y2="338.21" stroke="#d2ccc0" stroke-width="1.2" opacity="0.65"/>
<line x1="80.00" y1="338.21" x2="547.79" y2="399.90" stroke="#d2ccc0" stroke-width="1.2" opacity="0.65"/>
<line x1="547.79" y1="399.90" x2="811.17" y2="353.46" stroke="#d2ccc0" stroke-width="1.2" opacity="0.65"/>
<line x1="811.17" y1="353.46" x2="681.58" y2="260.10" stroke="#d2ccc0" stroke-width="1.2" opacity="0.65"/>
<line x1="681.58" y1="260.10" x2="419.95" y2="579.74" stroke="#d2ccc0" stroke-width="1.2" opacity="0.65"/>
<line x1="419.95" y1="579.74" x2="769.94" y2="220.81" stroke="#d2ccc0" stroke-width="1.2" opacity="0.65"/>
<line x1="769.94" y1="220.81" x2="847.91" y2="224.47" stroke="#d2ccc0" stroke-width="1.2" opacity="0.65"/>
<line x1="847.91" y1="224.47" x2="241.13" y2="365.92" stroke="#d2ccc0" stroke-width="1.2" opacity="0.65"/>
<line x1="241.13" y1="365.92" x2="673.34" y2="200.04" stroke="#d2ccc0" stroke-width="1.2" opacity="0.65"/>
<line x1="673.34" y1="200.04" x2="555.82" y2="251.82" stroke="#d2ccc0" stroke-width="1.2" opacity="0.65"/>
<line x1="555.82" y1="251.82" x2="706.90" y2="217.87" stroke="#d2ccc0" stroke-width="1.2" opacity="0.65"/>
<line x1="706.90" y1="217.87" x2="188.51" y2="314.21" stroke="#d2ccc0" stroke-width="1.2" opacity="0.65"/>
<line x1="188.51" y1="314.21" x2="1120.00" y2="531.18" stroke="#d2ccc0" stroke-width="1.2" opacity="0.65"/>
<line x1="1120.00" y1="531.18" x2="744.30" y2="189.41" stroke="#d2ccc0" stroke-width="1.2" opacity="0.65"/>
<circle cx="287.93" cy="226.47" r="7" fill="#c27a00" opacity="0.88"/>
<text x="296.93" y="230.47" font-family="Hiragino Sans, Yu Gothic, sans-serif" font-size="11" fill="#222">1</text>
<circle cx="270.27" cy="288.27" r="7" fill="#008c95" opacity="0.88"/>
<text x="279.27" y="292.27" font-family="Hiragino Sans, Yu Gothic, sans-serif" font-size="11" fill="#222">2</text>
<circle cx="450.41" cy="441.11" r="7" fill="#c44f73" opacity="0.88"/>
<text x="459.41" y="445.11" font-family="Hiragino Sans, Yu Gothic, sans-serif" font-size="11" fill="#222">3</text>
<circle cx="325.51" cy="116.19" r="7" fill="#3f6fb5" opacity="0.88"/>
<text x="334.51" y="120.19" font-family="Hiragino Sans, Yu Gothic, sans-serif" font-size="11" fill="#222">4</text>
<circle cx="241.15" cy="368.69" r="7" fill="#c27a00" opacity="0.88"/>
<text x="250.15" y="372.69" font-family="Hiragino Sans, Yu Gothic, sans-serif" font-size="11" fill="#222">5</text>
<circle cx="410.84" cy="387.24" r="7" fill="#3f6fb5" opacity="0.88"/>
<text x="419.84" y="391.24" font-family="Hiragino Sans, Yu Gothic, sans-serif" font-size="11" fill="#222">6</text>
<circle cx="178.28" cy="480.14" r="7" fill="#7b61b8" opacity="0.88"/>
<text x="187.28" y="484.14" font-family="Hiragino Sans, Yu Gothic, sans-serif" font-size="11" fill="#222">7</text>
<circle cx="709.77" cy="216.88" r="7" fill="#666666" opacity="0.88"/>
<text x="718.77" y="220.88" font-family="Hiragino Sans, Yu Gothic, sans-serif" font-size="11" fill="#222">8</text>
<circle cx="742.15" cy="375.49" r="7" fill="#64a338" opacity="0.88"/>
<text x="751.15" y="379.49" font-family="Hiragino Sans, Yu Gothic, sans-serif" font-size="11" fill="#222">9</text>
<circle cx="752.65" cy="323.42" r="7" fill="#666666" opacity="0.88"/>
<text x="761.65" y="327.42" font-family="Hiragino Sans, Yu Gothic, sans-serif" font-size="11" fill="#222">10</text>
<circle cx="714.17" cy="80.00" r="7" fill="#7b61b8" opacity="0.88"/>
<text x="723.17" y="84.00" font-family="Hiragino Sans, Yu Gothic, sans-serif" font-size="11" fill="#222">11</text>
<circle cx="419.73" cy="429.78" r="7" fill="#666666" opacity="0.88"/>
<text x="428.73" y="433.78" font-family="Hiragino Sans, Yu Gothic, sans-serif" font-size="11" fill="#222">12</text>
<circle cx="578.19" cy="122.04" r="7" fill="#c44f73" opacity="0.88"/>
<text x="587.19" y="126.04" font-family="Hiragino Sans, Yu Gothic, sans-serif" font-size="11" fill="#222">13</text>
<circle cx="719.43" cy="172.24" r="7" fill="#c44f73" opacity="0.88"/>
<text x="728.43" y="176.24" font-family="Hiragino Sans, Yu Gothic, sans-serif" font-size="11" fill="#222">14</text>
<circle cx="306.49" cy="343.90" r="7" fill="#64a338" opacity="0.88"/>
<text x="315.49" y="347.90" font-family="Hiragino Sans, Yu Gothic, sans-serif" font-size="11" fill="#222">15</text>
<circle cx="570.64" cy="149.51" r="7" fill="#bd5e21" opacity="0.88"/>
<text x="579.64" y="153.51" font-family="Hiragino Sans, Yu Gothic, sans-serif" font-size="11" fill="#222">16</text>
<circle cx="575.90" cy="124.07" r="7" fill="#c27a00" opacity="0.88"/>
<text x="584.90" y="128.07" font-family="Hiragino Sans, Yu Gothic, sans-serif" font-size="11" fill="#222">17</text>
<circle cx="634.18" cy="331.25" r="7" fill="#c44f73" opacity="0.88"/>
<text x="643.18" y="335.25" font-family="Hiragino Sans, Yu Gothic, sans-serif" font-size="11" fill="#222">18</text>
<circle cx="693.06" cy="161.65" r="7" fill="#c44f73" opacity="0.88"/>
<text x="702.06" y="165.65" font-family="Hiragino Sans, Yu Gothic, sans-serif" font-size="11" fill="#222">19</text>
<circle cx="970.90" cy="413.58" r="7" fill="#c44f73" opacity="0.88"/>
<text x="979.90" y="417.58" font-family="Hiragino Sans, Yu Gothic, sans-serif" font-size="11" fill="#222">20</text>
<circle cx="409.54" cy="711.69" r="7" fill="#c44f73" opacity="0.88"/>
<text x="418.54" y="715.69" font-family="Hiragino Sans, Yu Gothic, sans-serif" font-size="11" fill="#222">21</text>
<circle cx="240.62" cy="198.25" r="7" fill="#c27a00" opacity="0.88"/>
<text x="249.62" y="202.25" font-family="Hiragino Sans, Yu Gothic, sans-serif" font-size="11" fill="#222">22</text>
<circle cx="363.20" cy="642.36" r="7" fill="#c27a00" opacity="0.88"/>
<text x="372.20" y="646.36" font-family="Hiragino Sans, Yu Gothic, sans-serif" font-size="11" fill="#222">23</text>
<circle cx="315.39" cy="255.28" r="7" fill="#7b61b8" opacity="0.88"/>
<text x="324.39" y="259.28" font-family="Hiragino Sans, Yu Gothic, sans-serif" font-size="11" fill="#222">24</text>
<circle cx="699.05" cy="110.77" r="7" fill="#c44f73" opacity="0.88"/>
<text x="708.05" y="114.77" font-family="Hiragino Sans, Yu Gothic, sans-serif" font-size="11" fill="#222">25</text>
<circle cx="465.87" cy="261.09" r="7" fill="#c27a00" opacity="0.88"/>
<text x="474.87" y="265.09" font-family="Hiragino Sans, Yu Gothic, sans-serif" font-size="11" fill="#222">26</text>
<circle cx="672.99" cy="287.52" r="7" fill="#c44f73" opacity="0.88"/>
<text x="681.99" y="291.52" font-family="Hiragino Sans, Yu Gothic, sans-serif" font-size="11" fill="#222">27</text>
<circle cx="472.02" cy="385.13" r="7" fill="#3f6fb5" opacity="0.88"/>
<text x="481.02" y="389.13" font-family="Hiragino Sans, Yu Gothic, sans-serif" font-size="11" fill="#222">28</text>
<circle cx="419.05" cy="484.68" r="7" fill="#c27a00" opacity="0.88"/>
<text x="428.05" y="488.68" font-family="Hiragino Sans, Yu Gothic, sans-serif" font-size="11" fill="#222">29</text>
<circle cx="602.85" cy="716.95" r="7" fill="#c44f73" opacity="0.88"/>
<text x="611.85" y="720.95" font-family="Hiragino Sans, Yu Gothic, sans-serif" font-size="11" fill="#222">30</text>
<circle cx="170.01" cy="483.04" r="7" fill="#3f6fb5" opacity="0.88"/>
<text x="179.01" y="487.04" font-family="Hiragino Sans, Yu Gothic, sans-serif" font-size="11" fill="#222">31</text>
<circle cx="279.48" cy="261.57" r="7" fill="#c27a00" opacity="0.88"/>
<text x="288.48" y="265.57" font-family="Hiragino Sans, Yu Gothic, sans-serif" font-size="11" fill="#222">32</text>
<circle cx="349.07" cy="363.06" r="7" fill="#64a338" opacity="0.88"/>
<text x="358.07" y="367.06" font-family="Hiragino Sans, Yu Gothic, sans-serif" font-size="11" fill="#222">33</text>
<circle cx="798.46" cy="289.97" r="7" fill="#666666" opacity="0.88"/>
<text x="807.46" y="293.97" font-family="Hiragino Sans, Yu Gothic, sans-serif" font-size="11" fill="#222">34</text>
<circle cx="826.64" cy="324.95" r="7" fill="#64a338" opacity="0.88"/>
<text x="835.64" y="328.95" font-family="Hiragino Sans, Yu Gothic, sans-serif" font-size="11" fill="#222">35</text>
<circle cx="239.31" cy="629.48" r="7" fill="#008c95" opacity="0.88"/>
<text x="248.31" y="633.48" font-family="Hiragino Sans, Yu Gothic, sans-serif" font-size="11" fill="#222">36</text>
<circle cx="150.44" cy="325.04" r="7" fill="#c27a00" opacity="0.88"/>
<text x="159.44" y="329.04" font-family="Hiragino Sans, Yu Gothic, sans-serif" font-size="11" fill="#222">37</text>
<circle cx="1090.27" cy="538.00" r="7" fill="#c44f73" opacity="0.88"/>
<text x="1099.27" y="542.00" font-family="Hiragino Sans, Yu Gothic, sans-serif" font-size="11" fill="#222">38</text>
<circle cx="757.21" cy="242.16" r="7" fill="#c44f73" opacity="0.88"/>
<text x="766.21" y="246.16" font-family="Hiragino Sans, Yu Gothic, sans-serif" font-size="11" fill="#222">39</text>
<circle cx="921.72" cy="439.77" r="7" fill="#c44f73" opacity="0.88"/>
<text x="930.72" y="443.77" font-family="Hiragino Sans, Yu Gothic, sans-serif" font-size="11" fill="#222">40</text>
<circle cx="972.71" cy="345.35" r="7" fill="#c44f73" opacity="0.88"/>
<text x="981.71" y="349.35" font-family="Hiragino Sans, Yu Gothic, sans-serif" font-size="11" fill="#222">41</text>
<circle cx="560.27" cy="253.33" r="7" fill="#c44f73" opacity="0.88"/>
<text x="569.27" y="257.33" font-family="Hiragino Sans, Yu Gothic, sans-serif" font-size="11" fill="#222">42</text>
<circle cx="858.08" cy="559.40" r="7" fill="#c44f73" opacity="0.88"/>
<text x="867.08" y="563.40" font-family="Hiragino Sans, Yu Gothic, sans-serif" font-size="11" fill="#222">43</text>
<circle cx="968.34" cy="394.16" r="7" fill="#c44f73" opacity="0.88"/>
<text x="977.34" y="398.16" font-family="Hiragino Sans, Yu Gothic, sans-serif" font-size="11" fill="#222">44</text>
<circle cx="990.41" cy="502.20" r="7" fill="#c44f73" opacity="0.88"/>
<text x="999.41" y="506.20" font-family="Hiragino Sans, Yu Gothic, sans-serif" font-size="11" fill="#222">45</text>
<circle cx="857.20" cy="294.07" r="7" fill="#c44f73" opacity="0.88"/>
<text x="866.20" y="298.07" font-family="Hiragino Sans, Yu Gothic, sans-serif" font-size="11" fill="#222">46</text>
<circle cx="354.50" cy="400.05" r="7" fill="#c27a00" opacity="0.88"/>
<text x="363.50" y="404.05" font-family="Hiragino Sans, Yu Gothic, sans-serif" font-size="11" fill="#222">47</text>
<circle cx="779.15" cy="292.65" r="7" fill="#c44f73" opacity="0.88"/>
<text x="788.15" y="296.65" font-family="Hiragino Sans, Yu Gothic, sans-serif" font-size="11" fill="#222">48</text>
<circle cx="571.29" cy="596.31" r="7" fill="#c44f73" opacity="0.88"/>
<text x="580.29" y="600.31" font-family="Hiragino Sans, Yu Gothic, sans-serif" font-size="11" fill="#222">49</text>
<circle cx="952.75" cy="550.40" r="7" fill="#c44f73" opacity="0.88"/>
<text x="961.75" y="554.40" font-family="Hiragino Sans, Yu Gothic, sans-serif" font-size="11" fill="#222">50</text>
<circle cx="788.87" cy="330.85" r="7" fill="#c44f73" opacity="0.88"/>
<text x="797.87" y="334.85" font-family="Hiragino Sans, Yu Gothic, sans-serif" font-size="11" fill="#222">51</text>
<circle cx="731.07" cy="546.23" r="7" fill="#c44f73" opacity="0.88"/>
<text x="740.07" y="550.23" font-family="Hiragino Sans, Yu Gothic, sans-serif" font-size="11" fill="#222">52</text>
<circle cx="556.97" cy="768.70" r="7" fill="#c44f73" opacity="0.88"/>
<text x="565.97" y="772.70" font-family="Hiragino Sans, Yu Gothic, sans-serif" font-size="11" fill="#222">53</text>
<circle cx="907.79" cy="482.30" r="7" fill="#c44f73" opacity="0.88"/>
<text x="916.79" y="486.30" font-family="Hiragino Sans, Yu Gothic, sans-serif" font-size="11" fill="#222">54</text>
<circle cx="664.27" cy="246.94" r="7" fill="#666666" opacity="0.88"/>
<text x="673.27" y="250.94" font-family="Hiragino Sans, Yu Gothic, sans-serif" font-size="11" fill="#222">55</text>
<circle cx="917.33" cy="471.04" r="7" fill="#c44f73" opacity="0.88"/>
<text x="926.33" y="475.04" font-family="Hiragino Sans, Yu Gothic, sans-serif" font-size="11" fill="#222">56</text>
<circle cx="389.01" cy="711.60" r="7" fill="#666666" opacity="0.88"/>
<text x="398.01" y="715.60" font-family="Hiragino Sans, Yu Gothic, sans-serif" font-size="11" fill="#222">57</text>
<circle cx="680.63" cy="221.78" r="7" fill="#c44f73" opacity="0.88"/>
<text x="689.63" y="225.78" font-family="Hiragino Sans, Yu Gothic, sans-serif" font-size="11" fill="#222">58</text>
<circle cx="386.54" cy="683.99" r="7" fill="#c44f73" opacity="0.88"/>
<text x="395.54" y="687.99" font-family="Hiragino Sans, Yu Gothic, sans-serif" font-size="11" fill="#222">59</text>
<circle cx="454.89" cy="250.46" r="7" fill="#666666" opacity="0.88"/>
<text x="463.89" y="254.46" font-family="Hiragino Sans, Yu Gothic, sans-serif" font-size="11" fill="#222">60</text>
<circle cx="587.12" cy="200.56" r="7" fill="#64a338" opacity="0.88"/>
<text x="596.12" y="204.56" font-family="Hiragino Sans, Yu Gothic, sans-serif" font-size="11" fill="#222">61</text>
<circle cx="456.08" cy="475.40" r="7" fill="#666666" opacity="0.88"/>
<text x="465.08" y="479.40" font-family="Hiragino Sans, Yu Gothic, sans-serif" font-size="11" fill="#222">62</text>
<circle cx="1068.13" cy="496.95" r="7" fill="#c44f73" opacity="0.88"/>
<text x="1077.13" y="500.95" font-family="Hiragino Sans, Yu Gothic, sans-serif" font-size="11" fill="#222">63</text>
<circle cx="474.42" cy="106.85" r="7" fill="#3f6fb5" opacity="0.88"/>
<text x="483.42" y="110.85" font-family="Hiragino Sans, Yu Gothic, sans-serif" font-size="11" fill="#222">64</text>
<circle cx="894.27" cy="399.13" r="7" fill="#c44f73" opacity="0.88"/>
<text x="903.27" y="403.13" font-family="Hiragino Sans, Yu Gothic, sans-serif" font-size="11" fill="#222">65</text>
<circle cx="767.92" cy="277.64" r="7" fill="#666666" opacity="0.88"/>
<text x="776.92" y="281.64" font-family="Hiragino Sans, Yu Gothic, sans-serif" font-size="11" fill="#222">66</text>
<circle cx="532.89" cy="537.48" r="7" fill="#666666" opacity="0.88"/>
<text x="541.89" y="541.48" font-family="Hiragino Sans, Yu Gothic, sans-serif" font-size="11" fill="#222">67</text>
<circle cx="613.18" cy="820.00" r="7" fill="#666666" opacity="0.88"/>
<text x="622.18" y="824.00" font-family="Hiragino Sans, Yu Gothic, sans-serif" font-size="11" fill="#222">68</text>
<circle cx="278.36" cy="124.62" r="7" fill="#c27a00" opacity="0.88"/>
<text x="287.36" y="128.62" font-family="Hiragino Sans, Yu Gothic, sans-serif" font-size="11" fill="#222">69</text>
<circle cx="330.90" cy="594.89" r="7" fill="#c27a00" opacity="0.88"/>
<text x="339.90" y="598.89" font-family="Hiragino Sans, Yu Gothic, sans-serif" font-size="11" fill="#222">70</text>
<circle cx="202.97" cy="318.64" r="7" fill="#c27a00" opacity="0.88"/>
<text x="211.97" y="322.64" font-family="Hiragino Sans, Yu Gothic, sans-serif" font-size="11" fill="#222">71</text>
<circle cx="604.44" cy="209.53" r="7" fill="#c44f73" opacity="0.88"/>
<text x="613.44" y="213.53" font-family="Hiragino Sans, Yu Gothic, sans-serif" font-size="11" fill="#222">72</text>
<circle cx="364.15" cy="239.28" r="7" fill="#64a338" opacity="0.88"/>
<text x="373.15" y="243.28" font-family="Hiragino Sans, Yu Gothic, sans-serif" font-size="11" fill="#222">73</text>
<circle cx="787.25" cy="200.35" r="7" fill="#c44f73" opacity="0.88"/>
<text x="796.25" y="204.35" font-family="Hiragino Sans, Yu Gothic, sans-serif" font-size="11" fill="#222">74</text>
<circle cx="461.70" cy="435.83" r="7" fill="#666666" opacity="0.88"/>
<text x="470.70" y="439.83" font-family="Hiragino Sans, Yu Gothic, sans-serif" font-size="11" fill="#222">75</text>
<circle cx="483.13" cy="226.13" r="7" fill="#666666" opacity="0.88"/>
<text x="492.13" y="230.13" font-family="Hiragino Sans, Yu Gothic, sans-serif" font-size="11" fill="#222">76</text>
<circle cx="758.25" cy="248.26" r="7" fill="#c44f73" opacity="0.88"/>
<text x="767.25" y="252.26" font-family="Hiragino Sans, Yu Gothic, sans-serif" font-size="11" fill="#222">77</text>
<circle cx="504.37" cy="372.48" r="7" fill="#3f6fb5" opacity="0.88"/>
<text x="513.37" y="376.48" font-family="Hiragino Sans, Yu Gothic, sans-serif" font-size="11" fill="#222">78</text>
<circle cx="215.02" cy="552.81" r="7" fill="#c27a00" opacity="0.88"/>
<text x="224.02" y="556.81" font-family="Hiragino Sans, Yu Gothic, sans-serif" font-size="11" fill="#222">79</text>
<circle cx="841.59" cy="455.58" r="7" fill="#c44f73" opacity="0.88"/>
<text x="850.59" y="459.58" font-family="Hiragino Sans, Yu Gothic, sans-serif" font-size="11" fill="#222">80</text>
<circle cx="400.11" cy="649.35" r="7" fill="#008c95" opacity="0.88"/>
<text x="409.11" y="653.35" font-family="Hiragino Sans, Yu Gothic, sans-serif" font-size="11" fill="#222">81</text>
<circle cx="956.24" cy="553.03" r="7" fill="#c44f73" opacity="0.88"/>
<text x="965.24" y="557.03" font-family="Hiragino Sans, Yu Gothic, sans-serif" font-size="11" fill="#222">82</text>
<circle cx="697.54" cy="244.52" r="7" fill="#666666" opacity="0.88"/>
<text x="706.54" y="248.52" font-family="Hiragino Sans, Yu Gothic, sans-serif" font-size="11" fill="#222">83</text>
<circle cx="934.11" cy="474.20" r="7" fill="#666666" opacity="0.88"/>
<text x="943.11" y="478.20" font-family="Hiragino Sans, Yu Gothic, sans-serif" font-size="11" fill="#222">84</text>
<circle cx="579.66" cy="733.44" r="7" fill="#c44f73" opacity="0.88"/>
<text x="588.66" y="737.44" font-family="Hiragino Sans, Yu Gothic, sans-serif" font-size="11" fill="#222">85</text>
<circle cx="624.13" cy="746.40" r="7" fill="#c44f73" opacity="0.88"/>
<text x="633.13" y="750.40" font-family="Hiragino Sans, Yu Gothic, sans-serif" font-size="11" fill="#222">86</text>
<circle cx="80.00" cy="338.21" r="7" fill="#c27a00" opacity="0.88"/>
<text x="89.00" y="342.21" font-family="Hiragino Sans, Yu Gothic, sans-serif" font-size="11" fill="#222">87</text>
<circle cx="547.79" cy="399.90" r="7" fill="#c44f73" opacity="0.88"/>
<text x="556.79" y="403.90" font-family="Hiragino Sans, Yu Gothic, sans-serif" font-size="11" fill="#222">88</text>
<circle cx="811.17" cy="353.46" r="7" fill="#c44f73" opacity="0.88"/>
<text x="820.17" y="357.46" font-family="Hiragino Sans, Yu Gothic, sans-serif" font-size="11" fill="#222">89</text>
<circle cx="681.58" cy="260.10" r="7" fill="#c44f73" opacity="0.88"/>
<text x="690.58" y="264.10" font-family="Hiragino Sans, Yu Gothic, sans-serif" font-size="11" fill="#222">90</text>
<circle cx="419.95" cy="579.74" r="7" fill="#c27a00" opacity="0.88"/>
<text x="428.95" y="583.74" font-family="Hiragino Sans, Yu Gothic, sans-serif" font-size="11" fill="#222">91</text>
<circle cx="769.94" cy="220.81" r="7" fill="#c44f73" opacity="0.88"/>
<text x="778.94" y="224.81" font-family="Hiragino Sans, Yu Gothic, sans-serif" font-size="11" fill="#222">92</text>
<circle cx="847.91" cy="224.47" r="7" fill="#7b61b8" opacity="0.88"/>
<text x="856.91" y="228.47" font-family="Hiragino Sans, Yu Gothic, sans-serif" font-size="11" fill="#222">93</text>
<circle cx="241.13" cy="365.92" r="7" fill="#c27a00" opacity="0.88"/>
<text x="250.13" y="369.92" font-family="Hiragino Sans, Yu Gothic, sans-serif" font-size="11" fill="#222">94</text>
<circle cx="673.34" cy="200.04" r="7" fill="#666666" opacity="0.88"/>
<text x="682.34" y="204.04" font-family="Hiragino Sans, Yu Gothic, sans-serif" font-size="11" fill="#222">95</text>
<circle cx="555.82" cy="251.82" r="7" fill="#666666" opacity="0.88"/>
<text x="564.82" y="255.82" font-family="Hiragino Sans, Yu Gothic, sans-serif" font-size="11" fill="#222">96</text>
<circle cx="706.90" cy="217.87" r="7" fill="#c44f73" opacity="0.88"/>
<text x="715.90" y="221.87" font-family="Hiragino Sans, Yu Gothic, sans-serif" font-size="11" fill="#222">97</text>
<circle cx="188.51" cy="314.21" r="7" fill="#008c95" opacity="0.88"/>
<text x="197.51" y="318.21" font-family="Hiragino Sans, Yu Gothic, sans-serif" font-size="11" fill="#222">98</text>
<circle cx="1120.00" cy="531.18" r="7" fill="#666666" opacity="0.88"/>
<text x="1129.00" y="535.18" font-family="Hiragino Sans, Yu Gothic, sans-serif" font-size="11" fill="#222">99</text>
<circle cx="744.30" cy="189.41" r="7" fill="#666666" opacity="0.88"/>
<text x="753.30" y="193.41" font-family="Hiragino Sans, Yu Gothic, sans-serif" font-size="11" fill="#222">100</text>
<circle cx="880" cy="120" r="6" fill="#64a338"/>
<text x="894" y="125" font-family="Hiragino Sans, Yu Gothic, sans-serif" font-size="14" fill="#333">春</text>
<circle cx="880" cy="144" r="6" fill="#008c95"/>
<text x="894" y="149" font-family="Hiragino Sans, Yu Gothic, sans-serif" font-size="14" fill="#333">夏</text>
<circle cx="880" cy="168" r="6" fill="#c27a00"/>
<text x="894" y="173" font-family="Hiragino Sans, Yu Gothic, sans-serif" font-size="14" fill="#333">秋</text>
<circle cx="880" cy="192" r="6" fill="#3f6fb5"/>
<text x="894" y="197" font-family="Hiragino Sans, Yu Gothic, sans-serif" font-size="14" fill="#333">冬</text>
<circle cx="880" cy="216" r="6" fill="#c44f73"/>
<text x="894" y="221" font-family="Hiragino Sans, Yu Gothic, sans-serif" font-size="14" fill="#333">恋</text>
<circle cx="880" cy="240" r="6" fill="#666666"/>
<text x="894" y="245" font-family="Hiragino Sans, Yu Gothic, sans-serif" font-size="14" fill="#333">雑</text>
<circle cx="880" cy="264" r="6" fill="#7b61b8"/>
<text x="894" y="269" font-family="Hiragino Sans, Yu Gothic, sans-serif" font-size="14" fill="#333">羇旅</text>
<circle cx="880" cy="288" r="6" fill="#bd5e21"/>
<text x="894" y="293" font-family="Hiragino Sans, Yu Gothic, sans-serif" font-size="14" fill="#333">離別</text>
<circle cx="880" cy="312" r="6" fill="#6a6f7d"/>
<text x="894" y="317" font-family="Hiragino Sans, Yu Gothic, sans-serif" font-size="14" fill="#333">哀傷</text>
</svg>
