<svg xmlns="http://www.w3.org/2000/svg" width="1200" height="900" viewBox="0 0 1200 900">
<rect width="1200" height="900" fill="#fbfaf7"/>
<text x="80" y="50" font-family="Hiragino Sans, Yu Gothic, sans-serif" font-size="28" fill="#222">小倉百人一首 意味空間 PCA 分布</text>
<text x="80" y="80" font-family="Hiragino Sans, Yu Gothic, sans-serif" font-size="15" fill="#555">線は引いていない。点の色は主題、薄い大きな点は主題別centroid。</text>
<line x1="90" y1="418.50" x2="930" y2="418.50" stroke="#e5dfd5" stroke-width="1"/>
<line x1="459.18" y1="90" x2="459.18" y2="810" stroke="#e5dfd5" stroke-width="1"/>
<circle cx="290.92" cy="412.50" r="15.74" fill="#c27a00" opacity="0.16"/>
<circle cx="221.23" cy="571.00" r="12.88" fill="#008c95" opacity="0.16"/>
<circle cx="584.23" cy="431.58" r="20.80" fill="#c44f73" opacity="0.16"/>
<circle cx="256.26" cy="377.65" r="13.32" fill="#3f6fb5" opacity="0.16"/>
<circle cx="397.76" cy="308.35" r="12.88" fill="#7b61b8" opacity="0.16"/>
<circle cx="495.00" cy="411.67" r="16.18" fill="#666666" opacity="0.16"/>
<circle cx="354.78" cy="383.31" r="13.32" fill="#64a338" opacity="0.16"/>
<circle cx="303.58" cy="374.22" r="12.22" fill="#bd5e21" opacity="0.16"/>
<circle cx="282.64" cy="374.12" r="7.5" fill="#c27a00" opacity="0.9"/>
<text x="291.64" y="378.12" font-family="Hiragino Sans, Yu Gothic, sans-serif" font-size="11" fill="#222">1</text>
<circle cx="103.26" cy="327.86" r="7.5" fill="#008c95" opacity="0.9"/>
<text x="112.26" y="331.86" font-family="Hiragino Sans, Yu Gothic, sans-serif" font-size="11" fill="#222">2</text>
<circle cx="337.82" cy="557.41" r="7.5" fill="#c44f73" opacity="0.9"/>
<text x="346.82" y="561.41" font-family="Hiragino Sans, Yu Gothic, sans-serif" font-size="11" fill="#222">3</text>
<circle cx="168.90" cy="233.04" r="7.5" fill="#3f6fb5" opacity="0.9"/>
<text x="177.90" y="237.04" font-family="Hiragino Sans, Yu Gothic, sans-serif" font-size="11" fill="#222">4</text>
<circle cx="268.75" cy="426.26" r="7.5" fill="#c27a00" opacity="0.9"/>
<text x="277.75" y="430.26" font-family="Hiragino Sans, Yu Gothic, sans-serif" font-size="11" fill="#222">5</text>
<circle cx="230.24" cy="445.30" r="7.5" fill="#3f6fb5" opacity="0.9"/>
<text x="239.24" y="449.30" font-family="Hiragino Sans, Yu Gothic, sans-serif" font-size="11" fill="#222">6</text>
<circle cx="90.00" cy="501.15" r="7.5" fill="#7b61b8" opacity="0.9"/>
<text x="99.00" y="505.15" font-family="Hiragino Sans, Yu Gothic, sans-serif" font-size="11" fill="#222">7</text>
<circle cx="497.52" cy="277.94" r="7.5" fill="#666666" opacity="0.9"/>
<text x="506.52" y="281.94" font-family="Hiragino Sans, Yu Gothic, sans-serif" font-size="11" fill="#222">8</text>
<circle cx="517.83" cy="365.56" r="7.5" fill="#64a338" opacity="0.9"/>
<text x="526.83" y="369.56" font-family="Hiragino Sans, Yu Gothic, sans-serif" font-size="11" fill="#222">9</text>
<circle cx="480.67" cy="270.05" r="7.5" fill="#666666" opacity="0.9"/>
<text x="489.67" y="274.05" font-family="Hiragino Sans, Yu Gothic, sans-serif" font-size="11" fill="#222">10</text>
<circle cx="526.68" cy="178.67" r="7.5" fill="#7b61b8" opacity="0.9"/>
<text x="535.68" y="182.67" font-family="Hiragino Sans, Yu Gothic, sans-serif" font-size="11" fill="#222">11</text>
<circle cx="386.77" cy="344.30" r="7.5" fill="#666666" opacity="0.9"/>
<text x="395.77" y="348.30" font-family="Hiragino Sans, Yu Gothic, sans-serif" font-size="11" fill="#222">12</text>
<circle cx="489.90" cy="274.12" r="7.5" fill="#c44f73" opacity="0.9"/>
<text x="498.90" y="278.12" font-family="Hiragino Sans, Yu Gothic, sans-serif" font-size="11" fill="#222">13</text>
<circle cx="529.12" cy="184.80" r="7.5" fill="#c44f73" opacity="0.9"/>
<text x="538.12" y="188.80" font-family="Hiragino Sans, Yu Gothic, sans-serif" font-size="11" fill="#222">14</text>
<circle cx="209.90" cy="356.01" r="7.5" fill="#64a338" opacity="0.9"/>
<text x="218.90" y="360.01" font-family="Hiragino Sans, Yu Gothic, sans-serif" font-size="11" fill="#222">15</text>
<circle cx="303.58" cy="374.22" r="7.5" fill="#bd5e21" opacity="0.9"/>
<text x="312.58" y="378.22" font-family="Hiragino Sans, Yu Gothic, sans-serif" font-size="11" fill="#222">16</text>
<circle cx="513.72" cy="234.14" r="7.5" fill="#c27a00" opacity="0.9"/>
<text x="522.72" y="238.14" font-family="Hiragino Sans, Yu Gothic, sans-serif" font-size="11" fill="#222">17</text>
<circle cx="491.56" cy="349.39" r="7.5" fill="#c44f73" opacity="0.9"/>
<text x="500.56" y="353.39" font-family="Hiragino Sans, Yu Gothic, sans-serif" font-size="11" fill="#222">18</text>
<circle cx="548.65" cy="271.46" r="7.5" fill="#c44f73" opacity="0.9"/>
<text x="557.65" y="275.46" font-family="Hiragino Sans, Yu Gothic, sans-serif" font-size="11" fill="#222">19</text>
<circle cx="800.81" cy="412.33" r="7.5" fill="#c44f73" opacity="0.9"/>
<text x="809.81" y="416.33" font-family="Hiragino Sans, Yu Gothic, sans-serif" font-size="11" fill="#222">20</text>
<circle cx="343.17" cy="801.86" r="7.5" fill="#c44f73" opacity="0.9"/>
<text x="352.17" y="805.86" font-family="Hiragino Sans, Yu Gothic, sans-serif" font-size="11" fill="#222">21</text>
<circle cx="177.48" cy="221.25" r="7.5" fill="#c27a00" opacity="0.9"/>
<text x="186.48" y="225.25" font-family="Hiragino Sans, Yu Gothic, sans-serif" font-size="11" fill="#222">22</text>
<circle cx="453.82" cy="606.04" r="7.5" fill="#c27a00" opacity="0.9"/>
<text x="462.82" y="610.04" font-family="Hiragino Sans, Yu Gothic, sans-serif" font-size="11" fill="#222">23</text>
<circle cx="261.79" cy="283.19" r="7.5" fill="#7b61b8" opacity="0.9"/>
<text x="270.79" y="287.19" font-family="Hiragino Sans, Yu Gothic, sans-serif" font-size="11" fill="#222">24</text>
<circle cx="471.76" cy="179.52" r="7.5" fill="#c44f73" opacity="0.9"/>
<text x="480.76" y="183.52" font-family="Hiragino Sans, Yu Gothic, sans-serif" font-size="11" fill="#222">25</text>
<circle cx="407.27" cy="350.14" r="7.5" fill="#c27a00" opacity="0.9"/>
<text x="416.27" y="354.14" font-family="Hiragino Sans, Yu Gothic, sans-serif" font-size="11" fill="#222">26</text>
<circle cx="442.51" cy="365.27" r="7.5" fill="#c44f73" opacity="0.9"/>
<text x="451.51" y="369.27" font-family="Hiragino Sans, Yu Gothic, sans-serif" font-size="11" fill="#222">27</text>
<circle cx="379.56" cy="409.79" r="7.5" fill="#3f6fb5" opacity="0.9"/>
<text x="388.56" y="413.79" font-family="Hiragino Sans, Yu Gothic, sans-serif" font-size="11" fill="#222">28</text>
<circle cx="412.71" cy="433.04" r="7.5" fill="#c27a00" opacity="0.9"/>
<text x="421.71" y="437.04" font-family="Hiragino Sans, Yu Gothic, sans-serif" font-size="11" fill="#222">29</text>
<circle cx="462.95" cy="759.19" r="7.5" fill="#c44f73" opacity="0.9"/>
<text x="471.95" y="763.19" font-family="Hiragino Sans, Yu Gothic, sans-serif" font-size="11" fill="#222">30</text>
<circle cx="91.43" cy="513.54" r="7.5" fill="#3f6fb5" opacity="0.9"/>
<text x="100.43" y="517.54" font-family="Hiragino Sans, Yu Gothic, sans-serif" font-size="11" fill="#222">31</text>
<circle cx="322.60" cy="235.29" r="7.5" fill="#c27a00" opacity="0.9"/>
<text x="331.60" y="239.29" font-family="Hiragino Sans, Yu Gothic, sans-serif" font-size="11" fill="#222">32</text>
<circle cx="296.19" cy="511.78" r="7.5" fill="#64a338" opacity="0.9"/>
<text x="305.19" y="515.78" font-family="Hiragino Sans, Yu Gothic, sans-serif" font-size="11" fill="#222">33</text>
<circle cx="648.91" cy="310.98" r="7.5" fill="#666666" opacity="0.9"/>
<text x="657.91" y="314.98" font-family="Hiragino Sans, Yu Gothic, sans-serif" font-size="11" fill="#222">34</text>
<circle cx="516.48" cy="375.73" r="7.5" fill="#64a338" opacity="0.9"/>
<text x="525.48" y="379.73" font-family="Hiragino Sans, Yu Gothic, sans-serif" font-size="11" fill="#222">35</text>
<circle cx="235.85" cy="790.72" r="7.5" fill="#008c95" opacity="0.9"/>
<text x="244.85" y="794.72" font-family="Hiragino Sans, Yu Gothic, sans-serif" font-size="11" fill="#222">36</text>
<circle cx="219.70" cy="448.11" r="7.5" fill="#c27a00" opacity="0.9"/>
<text x="228.70" y="452.11" font-family="Hiragino Sans, Yu Gothic, sans-serif" font-size="11" fill="#222">37</text>
<circle cx="922.55" cy="409.16" r="7.5" fill="#c44f73" opacity="0.9"/>
<text x="931.55" y="413.16" font-family="Hiragino Sans, Yu Gothic, sans-serif" font-size="11" fill="#222">38</text>
<circle cx="533.75" cy="354.46" r="7.5" fill="#c44f73" opacity="0.9"/>
<text x="542.75" y="358.46" font-family="Hiragino Sans, Yu Gothic, sans-serif" font-size="11" fill="#222">39</text>
<circle cx="670.76" cy="415.38" r="7.5" fill="#c44f73" opacity="0.9"/>
<text x="679.76" y="419.38" font-family="Hiragino Sans, Yu Gothic, sans-serif" font-size="11" fill="#222">40</text>
<circle cx="617.29" cy="451.39" r="7.5" fill="#c44f73" opacity="0.9"/>
<text x="626.29" y="455.39" font-family="Hiragino Sans, Yu Gothic, sans-serif" font-size="11" fill="#222">41</text>
<circle cx="445.67" cy="131.86" r="7.5" fill="#c44f73" opacity="0.9"/>
<text x="454.67" y="135.86" font-family="Hiragino Sans, Yu Gothic, sans-serif" font-size="11" fill="#222">42</text>
<circle cx="696.19" cy="576.39" r="7.5" fill="#c44f73" opacity="0.9"/>
<text x="705.19" y="580.39" font-family="Hiragino Sans, Yu Gothic, sans-serif" font-size="11" fill="#222">43</text>
<circle cx="875.34" cy="403.69" r="7.5" fill="#c44f73" opacity="0.9"/>
<text x="884.34" y="407.69" font-family="Hiragino Sans, Yu Gothic, sans-serif" font-size="11" fill="#222">44</text>
<circle cx="914.70" cy="478.47" r="7.5" fill="#c44f73" opacity="0.9"/>
<text x="923.70" y="482.47" font-family="Hiragino Sans, Yu Gothic, sans-serif" font-size="11" fill="#222">45</text>
<circle cx="586.47" cy="325.48" r="7.5" fill="#c44f73" opacity="0.9"/>
<text x="595.47" y="329.48" font-family="Hiragino Sans, Yu Gothic, sans-serif" font-size="11" fill="#222">46</text>
<circle cx="348.31" cy="517.77" r="7.5" fill="#c27a00" opacity="0.9"/>
<text x="357.31" y="521.77" font-family="Hiragino Sans, Yu Gothic, sans-serif" font-size="11" fill="#222">47</text>
<circle cx="549.51" cy="350.87" r="7.5" fill="#c44f73" opacity="0.9"/>
<text x="558.51" y="354.87" font-family="Hiragino Sans, Yu Gothic, sans-serif" font-size="11" fill="#222">48</text>
<circle cx="345.24" cy="607.63" r="7.5" fill="#c44f73" opacity="0.9"/>
<text x="354.24" y="611.63" font-family="Hiragino Sans, Yu Gothic, sans-serif" font-size="11" fill="#222">49</text>
<circle cx="855.16" cy="492.08" r="7.5" fill="#c44f73" opacity="0.9"/>
<text x="864.16" y="496.08" font-family="Hiragino Sans, Yu Gothic, sans-serif" font-size="11" fill="#222">50</text>
<circle cx="485.61" cy="344.96" r="7.5" fill="#c44f73" opacity="0.9"/>
<text x="494.61" y="348.96" font-family="Hiragino Sans, Yu Gothic, sans-serif" font-size="11" fill="#222">51</text>
<circle cx="569.44" cy="672.32" r="7.5" fill="#c44f73" opacity="0.9"/>
<text x="578.44" y="676.32" font-family="Hiragino Sans, Yu Gothic, sans-serif" font-size="11" fill="#222">52</text>
<circle cx="548.31" cy="773.01" r="7.5" fill="#c44f73" opacity="0.9"/>
<text x="557.31" y="777.01" font-family="Hiragino Sans, Yu Gothic, sans-serif" font-size="11" fill="#222">53</text>
<circle cx="757.92" cy="442.94" r="7.5" fill="#c44f73" opacity="0.9"/>
<text x="766.92" y="446.94" font-family="Hiragino Sans, Yu Gothic, sans-serif" font-size="11" fill="#222">54</text>
<circle cx="511.45" cy="314.49" r="7.5" fill="#666666" opacity="0.9"/>
<text x="520.45" y="318.49" font-family="Hiragino Sans, Yu Gothic, sans-serif" font-size="11" fill="#222">55</text>
<circle cx="716.20" cy="528.70" r="7.5" fill="#c44f73" opacity="0.9"/>
<text x="725.20" y="532.70" font-family="Hiragino Sans, Yu Gothic, sans-serif" font-size="11" fill="#222">56</text>
<circle cx="328.84" cy="688.12" r="7.5" fill="#666666" opacity="0.9"/>
<text x="337.84" y="692.12" font-family="Hiragino Sans, Yu Gothic, sans-serif" font-size="11" fill="#222">57</text>
<circle cx="349.98" cy="212.06" r="7.5" fill="#c44f73" opacity="0.9"/>
<text x="358.98" y="216.06" font-family="Hiragino Sans, Yu Gothic, sans-serif" font-size="11" fill="#222">58</text>
<circle cx="390.64" cy="810.00" r="7.5" fill="#c44f73" opacity="0.9"/>
<text x="399.64" y="814.00" font-family="Hiragino Sans, Yu Gothic, sans-serif" font-size="11" fill="#222">59</text>
<circle cx="424.92" cy="272.31" r="7.5" fill="#666666" opacity="0.9"/>
<text x="433.92" y="276.31" font-family="Hiragino Sans, Yu Gothic, sans-serif" font-size="11" fill="#222">60</text>
<circle cx="402.05" cy="395.67" r="7.5" fill="#64a338" opacity="0.9"/>
<text x="411.05" y="399.67" font-family="Hiragino Sans, Yu Gothic, sans-serif" font-size="11" fill="#222">61</text>
<circle cx="366.33" cy="537.88" r="7.5" fill="#666666" opacity="0.9"/>
<text x="375.33" y="541.88" font-family="Hiragino Sans, Yu Gothic, sans-serif" font-size="11" fill="#222">62</text>
<circle cx="785.85" cy="487.06" r="7.5" fill="#c44f73" opacity="0.9"/>
<text x="794.85" y="491.06" font-family="Hiragino Sans, Yu Gothic, sans-serif" font-size="11" fill="#222">63</text>
<circle cx="285.12" cy="290.82" r="7.5" fill="#3f6fb5" opacity="0.9"/>
<text x="294.12" y="294.82" font-family="Hiragino Sans, Yu Gothic, sans-serif" font-size="11" fill="#222">64</text>
<circle cx="754.74" cy="386.25" r="7.5" fill="#c44f73" opacity="0.9"/>
<text x="763.74" y="390.25" font-family="Hiragino Sans, Yu Gothic, sans-serif" font-size="11" fill="#222">65</text>
<circle cx="515.43" cy="412.87" r="7.5" fill="#666666" opacity="0.9"/>
<text x="524.43" y="416.87" font-family="Hiragino Sans, Yu Gothic, sans-serif" font-size="11" fill="#222">66</text>
<circle cx="556.48" cy="547.48" r="7.5" fill="#666666" opacity="0.9"/>
<text x="565.48" y="551.48" font-family="Hiragino Sans, Yu Gothic, sans-serif" font-size="11" fill="#222">67</text>
<circle cx="497.88" cy="800.02" r="7.5" fill="#666666" opacity="0.9"/>
<text x="506.88" y="804.02" font-family="Hiragino Sans, Yu Gothic, sans-serif" font-size="11" fill="#222">68</text>
<circle cx="215.65" cy="116.14" r="7.5" fill="#c27a00" opacity="0.9"/>
<text x="224.65" y="120.14" font-family="Hiragino Sans, Yu Gothic, sans-serif" font-size="11" fill="#222">69</text>
<circle cx="341.28" cy="598.94" r="7.5" fill="#c27a00" opacity="0.9"/>
<text x="350.28" y="602.94" font-family="Hiragino Sans, Yu Gothic, sans-serif" font-size="11" fill="#222">70</text>
<circle cx="150.34" cy="393.63" r="7.5" fill="#c27a00" opacity="0.9"/>
<text x="159.34" y="397.63" font-family="Hiragino Sans, Yu Gothic, sans-serif" font-size="11" fill="#222">71</text>
<circle cx="415.04" cy="90.00" r="7.5" fill="#c44f73" opacity="0.9"/>
<text x="424.04" y="94.00" font-family="Hiragino Sans, Yu Gothic, sans-serif" font-size="11" fill="#222">72</text>
<circle cx="186.25" cy="295.13" r="7.5" fill="#64a338" opacity="0.9"/>
<text x="195.25" y="299.13" font-family="Hiragino Sans, Yu Gothic, sans-serif" font-size="11" fill="#222">73</text>
<circle cx="639.21" cy="282.69" r="7.5" fill="#c44f73" opacity="0.9"/>
<text x="648.21" y="286.69" font-family="Hiragino Sans, Yu Gothic, sans-serif" font-size="11" fill="#222">74</text>
<circle cx="401.20" cy="444.88" r="7.5" fill="#666666" opacity="0.9"/>
<text x="410.20" y="448.88" font-family="Hiragino Sans, Yu Gothic, sans-serif" font-size="11" fill="#222">75</text>
<circle cx="311.40" cy="249.73" r="7.5" fill="#666666" opacity="0.9"/>
<text x="320.40" y="253.73" font-family="Hiragino Sans, Yu Gothic, sans-serif" font-size="11" fill="#222">76</text>
<circle cx="524.38" cy="313.96" r="7.5" fill="#c44f73" opacity="0.9"/>
<text x="533.38" y="317.96" font-family="Hiragino Sans, Yu Gothic, sans-serif" font-size="11" fill="#222">77</text>
<circle cx="382.35" cy="373.42" r="7.5" fill="#3f6fb5" opacity="0.9"/>
<text x="391.35" y="377.42" font-family="Hiragino Sans, Yu Gothic, sans-serif" font-size="11" fill="#222">78</text>
<circle cx="149.77" cy="662.05" r="7.5" fill="#c27a00" opacity="0.9"/>
<text x="158.77" y="666.05" font-family="Hiragino Sans, Yu Gothic, sans-serif" font-size="11" fill="#222">79</text>
<circle cx="637.74" cy="500.42" r="7.5" fill="#c44f73" opacity="0.9"/>
<text x="646.74" y="504.42" font-family="Hiragino Sans, Yu Gothic, sans-serif" font-size="11" fill="#222">80</text>
<circle cx="316.46" cy="769.36" r="7.5" fill="#008c95" opacity="0.9"/>
<text x="325.46" y="773.36" font-family="Hiragino Sans, Yu Gothic, sans-serif" font-size="11" fill="#222">81</text>
<circle cx="758.76" cy="474.66" r="7.5" fill="#c44f73" opacity="0.9"/>
<text x="767.76" y="478.66" font-family="Hiragino Sans, Yu Gothic, sans-serif" font-size="11" fill="#222">82</text>
<circle cx="554.96" cy="339.92" r="7.5" fill="#666666" opacity="0.9"/>
<text x="563.96" y="343.92" font-family="Hiragino Sans, Yu Gothic, sans-serif" font-size="11" fill="#222">83</text>
<circle cx="586.89" cy="548.13" r="7.5" fill="#666666" opacity="0.9"/>
<text x="595.89" y="552.13" font-family="Hiragino Sans, Yu Gothic, sans-serif" font-size="11" fill="#222">84</text>
<circle cx="494.26" cy="774.07" r="7.5" fill="#c44f73" opacity="0.9"/>
<text x="503.26" y="778.07" font-family="Hiragino Sans, Yu Gothic, sans-serif" font-size="11" fill="#222">85</text>
<circle cx="497.74" cy="736.10" r="7.5" fill="#c44f73" opacity="0.9"/>
<text x="506.74" y="740.10" font-family="Hiragino Sans, Yu Gothic, sans-serif" font-size="11" fill="#222">86</text>
<circle cx="117.85" cy="465.09" r="7.5" fill="#c27a00" opacity="0.9"/>
<text x="126.85" y="469.09" font-family="Hiragino Sans, Yu Gothic, sans-serif" font-size="11" fill="#222">87</text>
<circle cx="540.21" cy="485.70" r="7.5" fill="#c44f73" opacity="0.9"/>
<text x="549.21" y="489.70" font-family="Hiragino Sans, Yu Gothic, sans-serif" font-size="11" fill="#222">88</text>
<circle cx="665.80" cy="382.21" r="7.5" fill="#c44f73" opacity="0.9"/>
<text x="674.80" y="386.21" font-family="Hiragino Sans, Yu Gothic, sans-serif" font-size="11" fill="#222">89</text>
<circle cx="369.14" cy="176.14" r="7.5" fill="#c44f73" opacity="0.9"/>
<text x="378.14" y="180.14" font-family="Hiragino Sans, Yu Gothic, sans-serif" font-size="11" fill="#222">90</text>
<circle cx="349.16" cy="531.10" r="7.5" fill="#c27a00" opacity="0.9"/>
<text x="358.16" y="535.10" font-family="Hiragino Sans, Yu Gothic, sans-serif" font-size="11" fill="#222">91</text>
<circle cx="703.25" cy="247.72" r="7.5" fill="#c44f73" opacity="0.9"/>
<text x="712.25" y="251.72" font-family="Hiragino Sans, Yu Gothic, sans-serif" font-size="11" fill="#222">92</text>
<circle cx="712.58" cy="270.39" r="7.5" fill="#7b61b8" opacity="0.9"/>
<text x="721.58" y="274.39" font-family="Hiragino Sans, Yu Gothic, sans-serif" font-size="11" fill="#222">93</text>
<circle cx="214.62" cy="399.43" r="7.5" fill="#c27a00" opacity="0.9"/>
<text x="223.62" y="403.43" font-family="Hiragino Sans, Yu Gothic, sans-serif" font-size="11" fill="#222">94</text>
<circle cx="620.34" cy="290.56" r="7.5" fill="#666666" opacity="0.9"/>
<text x="629.34" y="294.56" font-family="Hiragino Sans, Yu Gothic, sans-serif" font-size="11" fill="#222">95</text>
<circle cx="348.66" cy="347.13" r="7.5" fill="#666666" opacity="0.9"/>
<text x="357.66" y="351.13" font-family="Hiragino Sans, Yu Gothic, sans-serif" font-size="11" fill="#222">96</text>
<circle cx="586.90" cy="284.86" r="7.5" fill="#c44f73" opacity="0.9"/>
<text x="595.90" y="288.86" font-family="Hiragino Sans, Yu Gothic, sans-serif" font-size="11" fill="#222">97</text>
<circle cx="229.33" cy="396.07" r="7.5" fill="#008c95" opacity="0.9"/>
<text x="238.33" y="400.07" font-family="Hiragino Sans, Yu Gothic, sans-serif" font-size="11" fill="#222">98</text>
<circle cx="930.00" cy="478.71" r="7.5" fill="#666666" opacity="0.9"/>
<text x="939.00" y="482.71" font-family="Hiragino Sans, Yu Gothic, sans-serif" font-size="11" fill="#222">99</text>
<circle cx="436.35" cy="346.22" r="7.5" fill="#666666" opacity="0.9"/>
<text x="445.35" y="350.22" font-family="Hiragino Sans, Yu Gothic, sans-serif" font-size="11" fill="#222">100</text>
<circle cx="980" cy="120" r="6" fill="#64a338"/>
<text x="994" y="125" font-family="Hiragino Sans, Yu Gothic, sans-serif" font-size="14" fill="#333">春 (6)</text>
<circle cx="980" cy="144" r="6" fill="#008c95"/>
<text x="994" y="149" font-family="Hiragino Sans, Yu Gothic, sans-serif" font-size="14" fill="#333">夏 (4)</text>
<circle cx="980" cy="168" r="6" fill="#c27a00"/>
<text x="994" y="173" font-family="Hiragino Sans, Yu Gothic, sans-serif" font-size="14" fill="#333">秋 (17)</text>
<circle cx="980" cy="192" r="6" fill="#3f6fb5"/>
<text x="994" y="197" font-family="Hiragino Sans, Yu Gothic, sans-serif" font-size="14" fill="#333">冬 (6)</text>
<circle cx="980" cy="216" r="6" fill="#c44f73"/>
<text x="994" y="221" font-family="Hiragino Sans, Yu Gothic, sans-serif" font-size="14" fill="#333">恋 (43)</text>
<circle cx="980" cy="240" r="6" fill="#666666"/>
<text x="994" y="245" font-family="Hiragino Sans, Yu Gothic, sans-serif" font-size="14" fill="#333">雑 (19)</text>
<circle cx="980" cy="264" r="6" fill="#7b61b8"/>
<text x="994" y="269" font-family="Hiragino Sans, Yu Gothic, sans-serif" font-size="14" fill="#333">羇旅 (4)</text>
<circle cx="980" cy="288" r="6" fill="#bd5e21"/>
<text x="994" y="293" font-family="Hiragino Sans, Yu Gothic, sans-serif" font-size="14" fill="#333">離別 (1)</text>
<circle cx="980" cy="312" r="6" fill="#6a6f7d"/>
<text x="994" y="317" font-family="Hiragino Sans, Yu Gothic, sans-serif" font-size="14" fill="#333">哀傷 (0)</text>
</svg>
