<svg xmlns="http://www.w3.org/2000/svg" width="1200" height="900" viewBox="0 0 1200 900">
<rect width="1200" height="900" fill="#fbfaf7"/>
<text x="80" y="50" font-family="Hiragino Sans, Yu Gothic, sans-serif" font-size="28" fill="#222">小倉百人一首 意味空間 PCA 分布</text>
<text x="80" y="80" font-family="Hiragino Sans, Yu Gothic, sans-serif" font-size="15" fill="#555">線は引いていない。点の色は主題、薄い大きな点は主題別centroid。</text>
<line x1="90" y1="377.46" x2="930" y2="377.46" stroke="#e5dfd5" stroke-width="1"/>
<line x1="501.46" y1="90" x2="501.46" y2="810" stroke="#e5dfd5" stroke-width="1"/>
<circle cx="269.90" cy="365.13" r="15.74" fill="#c27a00" opacity="0.16"/>
<circle cx="247.14" cy="469.78" r="12.88" fill="#008c95" opacity="0.16"/>
<circle cx="632.29" cy="407.60" r="20.80" fill="#c44f73" opacity="0.16"/>
<circle cx="342.70" cy="312.31" r="13.32" fill="#3f6fb5" opacity="0.16"/>
<circle cx="440.49" cy="265.11" r="12.88" fill="#7b61b8" opacity="0.16"/>
<circle cx="545.23" cy="377.42" r="16.18" fill="#666666" opacity="0.16"/>
<circle cx="452.87" cy="311.71" r="13.32" fill="#64a338" opacity="0.16"/>
<circle cx="486.29" cy="157.63" r="12.22" fill="#bd5e21" opacity="0.16"/>
<circle cx="257.94" cy="232.51" r="7.5" fill="#c27a00" opacity="0.9"/>
<text x="266.94" y="236.51" font-family="Hiragino Sans, Yu Gothic, sans-serif" font-size="11" fill="#222">1</text>
<circle cx="243.68" cy="292.64" r="7.5" fill="#008c95" opacity="0.9"/>
<text x="252.68" y="296.64" font-family="Hiragino Sans, Yu Gothic, sans-serif" font-size="11" fill="#222">2</text>
<circle cx="389.18" cy="441.35" r="7.5" fill="#c44f73" opacity="0.9"/>
<text x="398.18" y="445.35" font-family="Hiragino Sans, Yu Gothic, sans-serif" font-size="11" fill="#222">3</text>
<circle cx="288.30" cy="125.21" r="7.5" fill="#3f6fb5" opacity="0.9"/>
<text x="297.30" y="129.21" font-family="Hiragino Sans, Yu Gothic, sans-serif" font-size="11" fill="#222">4</text>
<circle cx="220.16" cy="370.89" r="7.5" fill="#c27a00" opacity="0.9"/>
<text x="229.16" y="374.89" font-family="Hiragino Sans, Yu Gothic, sans-serif" font-size="11" fill="#222">5</text>
<circle cx="357.22" cy="388.94" r="7.5" fill="#3f6fb5" opacity="0.9"/>
<text x="366.22" y="392.94" font-family="Hiragino Sans, Yu Gothic, sans-serif" font-size="11" fill="#222">6</text>
<circle cx="169.38" cy="479.33" r="7.5" fill="#7b61b8" opacity="0.9"/>
<text x="178.38" y="483.33" font-family="Hiragino Sans, Yu Gothic, sans-serif" font-size="11" fill="#222">7</text>
<circle cx="598.66" cy="223.18" r="7.5" fill="#666666" opacity="0.9"/>
<text x="607.66" y="227.18" font-family="Hiragino Sans, Yu Gothic, sans-serif" font-size="11" fill="#222">8</text>
<circle cx="624.81" cy="377.51" r="7.5" fill="#64a338" opacity="0.9"/>
<text x="633.81" y="381.51" font-family="Hiragino Sans, Yu Gothic, sans-serif" font-size="11" fill="#222">9</text>
<circle cx="633.29" cy="326.85" r="7.5" fill="#666666" opacity="0.9"/>
<text x="642.29" y="330.85" font-family="Hiragino Sans, Yu Gothic, sans-serif" font-size="11" fill="#222">10</text>
<circle cx="602.22" cy="90.00" r="7.5" fill="#7b61b8" opacity="0.9"/>
<text x="611.22" y="94.00" font-family="Hiragino Sans, Yu Gothic, sans-serif" font-size="11" fill="#222">11</text>
<circle cx="364.40" cy="430.32" r="7.5" fill="#666666" opacity="0.9"/>
<text x="373.40" y="434.32" font-family="Hiragino Sans, Yu Gothic, sans-serif" font-size="11" fill="#222">12</text>
<circle cx="492.38" cy="130.90" r="7.5" fill="#c44f73" opacity="0.9"/>
<text x="501.38" y="134.90" font-family="Hiragino Sans, Yu Gothic, sans-serif" font-size="11" fill="#222">13</text>
<circle cx="606.46" cy="179.75" r="7.5" fill="#c44f73" opacity="0.9"/>
<text x="615.46" y="183.75" font-family="Hiragino Sans, Yu Gothic, sans-serif" font-size="11" fill="#222">14</text>
<circle cx="272.93" cy="346.77" r="7.5" fill="#64a338" opacity="0.9"/>
<text x="281.93" y="350.77" font-family="Hiragino Sans, Yu Gothic, sans-serif" font-size="11" fill="#222">15</text>
<circle cx="486.29" cy="157.63" r="7.5" fill="#bd5e21" opacity="0.9"/>
<text x="495.29" y="161.63" font-family="Hiragino Sans, Yu Gothic, sans-serif" font-size="11" fill="#222">16</text>
<circle cx="490.53" cy="132.88" r="7.5" fill="#c27a00" opacity="0.9"/>
<text x="499.53" y="136.88" font-family="Hiragino Sans, Yu Gothic, sans-serif" font-size="11" fill="#222">17</text>
<circle cx="537.61" cy="334.46" r="7.5" fill="#c44f73" opacity="0.9"/>
<text x="546.61" y="338.46" font-family="Hiragino Sans, Yu Gothic, sans-serif" font-size="11" fill="#222">18</text>
<circle cx="585.16" cy="169.44" r="7.5" fill="#c44f73" opacity="0.9"/>
<text x="594.16" y="173.44" font-family="Hiragino Sans, Yu Gothic, sans-serif" font-size="11" fill="#222">19</text>
<circle cx="809.57" cy="414.57" r="7.5" fill="#c44f73" opacity="0.9"/>
<text x="818.57" y="418.57" font-family="Hiragino Sans, Yu Gothic, sans-serif" font-size="11" fill="#222">20</text>
<circle cx="356.17" cy="704.62" r="7.5" fill="#c44f73" opacity="0.9"/>
<text x="365.17" y="708.62" font-family="Hiragino Sans, Yu Gothic, sans-serif" font-size="11" fill="#222">21</text>
<circle cx="219.73" cy="205.05" r="7.5" fill="#c27a00" opacity="0.9"/>
<text x="228.73" y="209.05" font-family="Hiragino Sans, Yu Gothic, sans-serif" font-size="11" fill="#222">22</text>
<circle cx="318.74" cy="637.16" r="7.5" fill="#c27a00" opacity="0.9"/>
<text x="327.74" y="641.16" font-family="Hiragino Sans, Yu Gothic, sans-serif" font-size="11" fill="#222">23</text>
<circle cx="280.12" cy="260.54" r="7.5" fill="#7b61b8" opacity="0.9"/>
<text x="289.12" y="264.54" font-family="Hiragino Sans, Yu Gothic, sans-serif" font-size="11" fill="#222">24</text>
<circle cx="590.00" cy="119.93" r="7.5" fill="#c44f73" opacity="0.9"/>
<text x="599.00" y="123.93" font-family="Hiragino Sans, Yu Gothic, sans-serif" font-size="11" fill="#222">25</text>
<circle cx="401.66" cy="266.20" r="7.5" fill="#c27a00" opacity="0.9"/>
<text x="410.66" y="270.20" font-family="Hiragino Sans, Yu Gothic, sans-serif" font-size="11" fill="#222">26</text>
<circle cx="568.96" cy="291.91" r="7.5" fill="#c44f73" opacity="0.9"/>
<text x="577.96" y="295.91" font-family="Hiragino Sans, Yu Gothic, sans-serif" font-size="11" fill="#222">27</text>
<circle cx="406.63" cy="386.88" r="7.5" fill="#3f6fb5" opacity="0.9"/>
<text x="415.63" y="390.88" font-family="Hiragino Sans, Yu Gothic, sans-serif" font-size="11" fill="#222">28</text>
<circle cx="363.85" cy="483.75" r="7.5" fill="#c27a00" opacity="0.9"/>
<text x="372.85" y="487.75" font-family="Hiragino Sans, Yu Gothic, sans-serif" font-size="11" fill="#222">29</text>
<circle cx="512.30" cy="709.73" r="7.5" fill="#c44f73" opacity="0.9"/>
<text x="521.30" y="713.73" font-family="Hiragino Sans, Yu Gothic, sans-serif" font-size="11" fill="#222">30</text>
<circle cx="162.70" cy="482.15" r="7.5" fill="#3f6fb5" opacity="0.9"/>
<text x="171.70" y="486.15" font-family="Hiragino Sans, Yu Gothic, sans-serif" font-size="11" fill="#222">31</text>
<circle cx="251.12" cy="266.66" r="7.5" fill="#c27a00" opacity="0.9"/>
<text x="260.12" y="270.66" font-family="Hiragino Sans, Yu Gothic, sans-serif" font-size="11" fill="#222">32</text>
<circle cx="307.32" cy="365.41" r="7.5" fill="#64a338" opacity="0.9"/>
<text x="316.32" y="369.41" font-family="Hiragino Sans, Yu Gothic, sans-serif" font-size="11" fill="#222">33</text>
<circle cx="670.29" cy="294.29" r="7.5" fill="#666666" opacity="0.9"/>
<text x="679.29" y="298.29" font-family="Hiragino Sans, Yu Gothic, sans-serif" font-size="11" fill="#222">34</text>
<circle cx="693.05" cy="328.33" r="7.5" fill="#64a338" opacity="0.9"/>
<text x="702.05" y="332.33" font-family="Hiragino Sans, Yu Gothic, sans-serif" font-size="11" fill="#222">35</text>
<circle cx="218.67" cy="624.63" r="7.5" fill="#008c95" opacity="0.9"/>
<text x="227.67" y="628.63" font-family="Hiragino Sans, Yu Gothic, sans-serif" font-size="11" fill="#222">36</text>
<circle cx="146.89" cy="328.42" r="7.5" fill="#c27a00" opacity="0.9"/>
<text x="155.89" y="332.42" font-family="Hiragino Sans, Yu Gothic, sans-serif" font-size="11" fill="#222">37</text>
<circle cx="905.99" cy="535.63" r="7.5" fill="#c44f73" opacity="0.9"/>
<text x="914.99" y="539.63" font-family="Hiragino Sans, Yu Gothic, sans-serif" font-size="11" fill="#222">38</text>
<circle cx="636.98" cy="247.77" r="7.5" fill="#c44f73" opacity="0.9"/>
<text x="645.98" y="251.77" font-family="Hiragino Sans, Yu Gothic, sans-serif" font-size="11" fill="#222">39</text>
<circle cx="769.85" cy="440.05" r="7.5" fill="#c44f73" opacity="0.9"/>
<text x="778.85" y="444.05" font-family="Hiragino Sans, Yu Gothic, sans-serif" font-size="11" fill="#222">40</text>
<circle cx="811.03" cy="348.18" r="7.5" fill="#c44f73" opacity="0.9"/>
<text x="820.03" y="352.18" font-family="Hiragino Sans, Yu Gothic, sans-serif" font-size="11" fill="#222">41</text>
<circle cx="477.91" cy="258.65" r="7.5" fill="#c44f73" opacity="0.9"/>
<text x="486.91" y="262.65" font-family="Hiragino Sans, Yu Gothic, sans-serif" font-size="11" fill="#222">42</text>
<circle cx="718.45" cy="556.44" r="7.5" fill="#c44f73" opacity="0.9"/>
<text x="727.45" y="560.44" font-family="Hiragino Sans, Yu Gothic, sans-serif" font-size="11" fill="#222">43</text>
<circle cx="807.51" cy="395.67" r="7.5" fill="#c44f73" opacity="0.9"/>
<text x="816.51" y="399.67" font-family="Hiragino Sans, Yu Gothic, sans-serif" font-size="11" fill="#222">44</text>
<circle cx="825.33" cy="500.79" r="7.5" fill="#c44f73" opacity="0.9"/>
<text x="834.33" y="504.79" font-family="Hiragino Sans, Yu Gothic, sans-serif" font-size="11" fill="#222">45</text>
<circle cx="717.74" cy="298.28" r="7.5" fill="#c44f73" opacity="0.9"/>
<text x="726.74" y="302.28" font-family="Hiragino Sans, Yu Gothic, sans-serif" font-size="11" fill="#222">46</text>
<circle cx="311.71" cy="401.40" r="7.5" fill="#c27a00" opacity="0.9"/>
<text x="320.71" y="405.40" font-family="Hiragino Sans, Yu Gothic, sans-serif" font-size="11" fill="#222">47</text>
<circle cx="654.69" cy="296.91" r="7.5" fill="#c44f73" opacity="0.9"/>
<text x="663.69" y="300.91" font-family="Hiragino Sans, Yu Gothic, sans-serif" font-size="11" fill="#222">48</text>
<circle cx="486.81" cy="592.36" r="7.5" fill="#c44f73" opacity="0.9"/>
<text x="495.81" y="596.36" font-family="Hiragino Sans, Yu Gothic, sans-serif" font-size="11" fill="#222">49</text>
<circle cx="794.92" cy="547.69" r="7.5" fill="#c44f73" opacity="0.9"/>
<text x="803.92" y="551.69" font-family="Hiragino Sans, Yu Gothic, sans-serif" font-size="11" fill="#222">50</text>
<circle cx="662.55" cy="334.07" r="7.5" fill="#c44f73" opacity="0.9"/>
<text x="671.55" y="338.07" font-family="Hiragino Sans, Yu Gothic, sans-serif" font-size="11" fill="#222">51</text>
<circle cx="615.86" cy="543.63" r="7.5" fill="#c44f73" opacity="0.9"/>
<text x="624.86" y="547.63" font-family="Hiragino Sans, Yu Gothic, sans-serif" font-size="11" fill="#222">52</text>
<circle cx="475.24" cy="760.08" r="7.5" fill="#c44f73" opacity="0.9"/>
<text x="484.24" y="764.08" font-family="Hiragino Sans, Yu Gothic, sans-serif" font-size="11" fill="#222">53</text>
<circle cx="758.60" cy="481.43" r="7.5" fill="#c44f73" opacity="0.9"/>
<text x="767.60" y="485.43" font-family="Hiragino Sans, Yu Gothic, sans-serif" font-size="11" fill="#222">54</text>
<circle cx="561.91" cy="252.42" r="7.5" fill="#666666" opacity="0.9"/>
<text x="570.91" y="256.42" font-family="Hiragino Sans, Yu Gothic, sans-serif" font-size="11" fill="#222">55</text>
<circle cx="766.31" cy="470.47" r="7.5" fill="#c44f73" opacity="0.9"/>
<text x="775.31" y="474.47" font-family="Hiragino Sans, Yu Gothic, sans-serif" font-size="11" fill="#222">56</text>
<circle cx="339.58" cy="704.53" r="7.5" fill="#666666" opacity="0.9"/>
<text x="348.58" y="708.53" font-family="Hiragino Sans, Yu Gothic, sans-serif" font-size="11" fill="#222">57</text>
<circle cx="575.12" cy="227.94" r="7.5" fill="#c44f73" opacity="0.9"/>
<text x="584.12" y="231.94" font-family="Hiragino Sans, Yu Gothic, sans-serif" font-size="11" fill="#222">58</text>
<circle cx="337.59" cy="677.66" r="7.5" fill="#c44f73" opacity="0.9"/>
<text x="346.59" y="681.66" font-family="Hiragino Sans, Yu Gothic, sans-serif" font-size="11" fill="#222">59</text>
<circle cx="392.79" cy="255.86" r="7.5" fill="#666666" opacity="0.9"/>
<text x="401.79" y="259.86" font-family="Hiragino Sans, Yu Gothic, sans-serif" font-size="11" fill="#222">60</text>
<circle cx="499.60" cy="207.30" r="7.5" fill="#64a338" opacity="0.9"/>
<text x="508.60" y="211.30" font-family="Hiragino Sans, Yu Gothic, sans-serif" font-size="11" fill="#222">61</text>
<circle cx="393.76" cy="474.71" r="7.5" fill="#666666" opacity="0.9"/>
<text x="402.76" y="478.71" font-family="Hiragino Sans, Yu Gothic, sans-serif" font-size="11" fill="#222">62</text>
<circle cx="888.10" cy="495.68" r="7.5" fill="#c44f73" opacity="0.9"/>
<text x="897.10" y="499.68" font-family="Hiragino Sans, Yu Gothic, sans-serif" font-size="11" fill="#222">63</text>
<circle cx="408.57" cy="116.13" r="7.5" fill="#3f6fb5" opacity="0.9"/>
<text x="417.57" y="120.13" font-family="Hiragino Sans, Yu Gothic, sans-serif" font-size="11" fill="#222">64</text>
<circle cx="747.68" cy="400.51" r="7.5" fill="#c44f73" opacity="0.9"/>
<text x="756.68" y="404.51" font-family="Hiragino Sans, Yu Gothic, sans-serif" font-size="11" fill="#222">65</text>
<circle cx="645.62" cy="282.30" r="7.5" fill="#666666" opacity="0.9"/>
<text x="654.62" y="286.30" font-family="Hiragino Sans, Yu Gothic, sans-serif" font-size="11" fill="#222">66</text>
<circle cx="455.79" cy="535.12" r="7.5" fill="#666666" opacity="0.9"/>
<text x="464.79" y="539.12" font-family="Hiragino Sans, Yu Gothic, sans-serif" font-size="11" fill="#222">67</text>
<circle cx="520.65" cy="810.00" r="7.5" fill="#666666" opacity="0.9"/>
<text x="529.65" y="814.00" font-family="Hiragino Sans, Yu Gothic, sans-serif" font-size="11" fill="#222">68</text>
<circle cx="250.21" cy="133.42" r="7.5" fill="#c27a00" opacity="0.9"/>
<text x="259.21" y="137.42" font-family="Hiragino Sans, Yu Gothic, sans-serif" font-size="11" fill="#222">69</text>
<circle cx="292.65" cy="590.98" r="7.5" fill="#c27a00" opacity="0.9"/>
<text x="301.65" y="594.98" font-family="Hiragino Sans, Yu Gothic, sans-serif" font-size="11" fill="#222">70</text>
<circle cx="189.32" cy="322.19" r="7.5" fill="#c27a00" opacity="0.9"/>
<text x="198.32" y="326.19" font-family="Hiragino Sans, Yu Gothic, sans-serif" font-size="11" fill="#222">71</text>
<circle cx="513.59" cy="216.03" r="7.5" fill="#c44f73" opacity="0.9"/>
<text x="522.59" y="220.03" font-family="Hiragino Sans, Yu Gothic, sans-serif" font-size="11" fill="#222">72</text>
<circle cx="319.51" cy="244.97" r="7.5" fill="#64a338" opacity="0.9"/>
<text x="328.51" y="248.97" font-family="Hiragino Sans, Yu Gothic, sans-serif" font-size="11" fill="#222">73</text>
<circle cx="661.24" cy="207.10" r="7.5" fill="#c44f73" opacity="0.9"/>
<text x="670.24" y="211.10" font-family="Hiragino Sans, Yu Gothic, sans-serif" font-size="11" fill="#222">74</text>
<circle cx="398.30" cy="436.22" r="7.5" fill="#666666" opacity="0.9"/>
<text x="407.30" y="440.22" font-family="Hiragino Sans, Yu Gothic, sans-serif" font-size="11" fill="#222">75</text>
<circle cx="415.60" cy="232.18" r="7.5" fill="#666666" opacity="0.9"/>
<text x="424.60" y="236.18" font-family="Hiragino Sans, Yu Gothic, sans-serif" font-size="11" fill="#222">76</text>
<circle cx="637.82" cy="253.72" r="7.5" fill="#c44f73" opacity="0.9"/>
<text x="646.82" y="257.72" font-family="Hiragino Sans, Yu Gothic, sans-serif" font-size="11" fill="#222">77</text>
<circle cx="432.76" cy="374.57" r="7.5" fill="#3f6fb5" opacity="0.9"/>
<text x="441.76" y="378.57" font-family="Hiragino Sans, Yu Gothic, sans-serif" font-size="11" fill="#222">78</text>
<circle cx="199.06" cy="550.03" r="7.5" fill="#c27a00" opacity="0.9"/>
<text x="208.06" y="554.03" font-family="Hiragino Sans, Yu Gothic, sans-serif" font-size="11" fill="#222">79</text>
<circle cx="705.13" cy="455.43" r="7.5" fill="#c44f73" opacity="0.9"/>
<text x="714.13" y="459.43" font-family="Hiragino Sans, Yu Gothic, sans-serif" font-size="11" fill="#222">80</text>
<circle cx="348.55" cy="643.96" r="7.5" fill="#008c95" opacity="0.9"/>
<text x="357.55" y="647.96" font-family="Hiragino Sans, Yu Gothic, sans-serif" font-size="11" fill="#222">81</text>
<circle cx="797.73" cy="550.24" r="7.5" fill="#c44f73" opacity="0.9"/>
<text x="806.73" y="554.24" font-family="Hiragino Sans, Yu Gothic, sans-serif" font-size="11" fill="#222">82</text>
<circle cx="588.79" cy="250.07" r="7.5" fill="#666666" opacity="0.9"/>
<text x="597.79" y="254.07" font-family="Hiragino Sans, Yu Gothic, sans-serif" font-size="11" fill="#222">83</text>
<circle cx="779.86" cy="473.55" r="7.5" fill="#666666" opacity="0.9"/>
<text x="788.86" y="477.55" font-family="Hiragino Sans, Yu Gothic, sans-serif" font-size="11" fill="#222">84</text>
<circle cx="493.57" cy="725.78" r="7.5" fill="#c44f73" opacity="0.9"/>
<text x="502.57" y="729.78" font-family="Hiragino Sans, Yu Gothic, sans-serif" font-size="11" fill="#222">85</text>
<circle cx="529.49" cy="738.39" r="7.5" fill="#c44f73" opacity="0.9"/>
<text x="538.49" y="742.39" font-family="Hiragino Sans, Yu Gothic, sans-serif" font-size="11" fill="#222">86</text>
<circle cx="90.00" cy="341.23" r="7.5" fill="#c27a00" opacity="0.9"/>
<text x="99.00" y="345.23" font-family="Hiragino Sans, Yu Gothic, sans-serif" font-size="11" fill="#222">87</text>
<circle cx="467.83" cy="401.26" r="7.5" fill="#c44f73" opacity="0.9"/>
<text x="476.83" y="405.26" font-family="Hiragino Sans, Yu Gothic, sans-serif" font-size="11" fill="#222">88</text>
<circle cx="680.56" cy="356.07" r="7.5" fill="#c44f73" opacity="0.9"/>
<text x="689.56" y="360.07" font-family="Hiragino Sans, Yu Gothic, sans-serif" font-size="11" fill="#222">89</text>
<circle cx="575.89" cy="265.23" r="7.5" fill="#c44f73" opacity="0.9"/>
<text x="584.89" y="269.23" font-family="Hiragino Sans, Yu Gothic, sans-serif" font-size="11" fill="#222">90</text>
<circle cx="364.58" cy="576.23" r="7.5" fill="#c27a00" opacity="0.9"/>
<text x="373.58" y="580.23" font-family="Hiragino Sans, Yu Gothic, sans-serif" font-size="11" fill="#222">91</text>
<circle cx="647.26" cy="227.00" r="7.5" fill="#c44f73" opacity="0.9"/>
<text x="656.26" y="231.00" font-family="Hiragino Sans, Yu Gothic, sans-serif" font-size="11" fill="#222">92</text>
<circle cx="710.23" cy="230.57" r="7.5" fill="#7b61b8" opacity="0.9"/>
<text x="719.23" y="234.57" font-family="Hiragino Sans, Yu Gothic, sans-serif" font-size="11" fill="#222">93</text>
<circle cx="220.14" cy="368.19" r="7.5" fill="#c27a00" opacity="0.9"/>
<text x="229.14" y="372.19" font-family="Hiragino Sans, Yu Gothic, sans-serif" font-size="11" fill="#222">94</text>
<circle cx="569.24" cy="206.80" r="7.5" fill="#666666" opacity="0.9"/>
<text x="578.24" y="210.80" font-family="Hiragino Sans, Yu Gothic, sans-serif" font-size="11" fill="#222">95</text>
<circle cx="474.32" cy="257.18" r="7.5" fill="#666666" opacity="0.9"/>
<text x="483.32" y="261.18" font-family="Hiragino Sans, Yu Gothic, sans-serif" font-size="11" fill="#222">96</text>
<circle cx="596.34" cy="224.14" r="7.5" fill="#c44f73" opacity="0.9"/>
<text x="605.34" y="228.14" font-family="Hiragino Sans, Yu Gothic, sans-serif" font-size="11" fill="#222">97</text>
<circle cx="177.65" cy="317.88" r="7.5" fill="#008c95" opacity="0.9"/>
<text x="186.65" y="321.88" font-family="Hiragino Sans, Yu Gothic, sans-serif" font-size="11" fill="#222">98</text>
<circle cx="930.00" cy="528.98" r="7.5" fill="#666666" opacity="0.9"/>
<text x="939.00" y="532.98" font-family="Hiragino Sans, Yu Gothic, sans-serif" font-size="11" fill="#222">99</text>
<circle cx="626.55" cy="196.46" r="7.5" fill="#666666" opacity="0.9"/>
<text x="635.55" y="200.46" font-family="Hiragino Sans, Yu Gothic, sans-serif" font-size="11" fill="#222">100</text>
<circle cx="980" cy="120" r="6" fill="#64a338"/>
<text x="994" y="125" font-family="Hiragino Sans, Yu Gothic, sans-serif" font-size="14" fill="#333">春 (6)</text>
<circle cx="980" cy="144" r="6" fill="#008c95"/>
<text x="994" y="149" font-family="Hiragino Sans, Yu Gothic, sans-serif" font-size="14" fill="#333">夏 (4)</text>
<circle cx="980" cy="168" r="6" fill="#c27a00"/>
<text x="994" y="173" font-family="Hiragino Sans, Yu Gothic, sans-serif" font-size="14" fill="#333">秋 (17)</text>
<circle cx="980" cy="192" r="6" fill="#3f6fb5"/>
<text x="994" y="197" font-family="Hiragino Sans, Yu Gothic, sans-serif" font-size="14" fill="#333">冬 (6)</text>
<circle cx="980" cy="216" r="6" fill="#c44f73"/>
<text x="994" y="221" font-family="Hiragino Sans, Yu Gothic, sans-serif" font-size="14" fill="#333">恋 (43)</text>
<circle cx="980" cy="240" r="6" fill="#666666"/>
<text x="994" y="245" font-family="Hiragino Sans, Yu Gothic, sans-serif" font-size="14" fill="#333">雑 (19)</text>
<circle cx="980" cy="264" r="6" fill="#7b61b8"/>
<text x="994" y="269" font-family="Hiragino Sans, Yu Gothic, sans-serif" font-size="14" fill="#333">羇旅 (4)</text>
<circle cx="980" cy="288" r="6" fill="#bd5e21"/>
<text x="994" y="293" font-family="Hiragino Sans, Yu Gothic, sans-serif" font-size="14" fill="#333">離別 (1)</text>
<circle cx="980" cy="312" r="6" fill="#6a6f7d"/>
<text x="994" y="317" font-family="Hiragino Sans, Yu Gothic, sans-serif" font-size="14" fill="#333">哀傷 (0)</text>
</svg>
