<svg xmlns="http://www.w3.org/2000/svg" width="1200" height="720" viewBox="0 0 1200 720">
<rect width="1200" height="720" fill="#fbfaf7"/>
<text x="70" y="48" font-family="Hiragino Sans, Yu Gothic, sans-serif" font-size="28" fill="#222">共通97首固定 10x10配置モデル比較</text>
<text x="70" y="78" font-family="Hiragino Sans, Yu Gothic, sans-serif" font-size="15" fill="#555">百人秀歌の共通歌を小倉側セルに固定。差し替え4首から1首を外し、残り3首をH074/H099/H100セルへ割当。</text>
<text x="70" y="103" font-family="Hiragino Sans, Yu Gothic, sans-serif" font-size="14" fill="#666">棒は上下左右近傍の最良percentile、点は8近傍の最良percentile。各配置で24通りを探索。</text>
<line x1="270.0" y1="120" x2="270.0" y2="590" stroke="#e5dfd5" stroke-width="1"/>
<text x="258.0" y="620" font-family="Hiragino Sans, Yu Gothic, sans-serif" font-size="13" fill="#555">0.00</text>
<line x1="482.5" y1="120" x2="482.5" y2="590" stroke="#e5dfd5" stroke-width="1"/>
<text x="470.5" y="620" font-family="Hiragino Sans, Yu Gothic, sans-serif" font-size="13" fill="#555">0.25</text>
<line x1="695.0" y1="120" x2="695.0" y2="590" stroke="#d7cfc3" stroke-width="1.5"/>
<text x="683.0" y="620" font-family="Hiragino Sans, Yu Gothic, sans-serif" font-size="13" fill="#555">0.50</text>
<line x1="907.5" y1="120" x2="907.5" y2="590" stroke="#e5dfd5" stroke-width="1"/>
<text x="895.5" y="620" font-family="Hiragino Sans, Yu Gothic, sans-serif" font-size="13" fill="#555">0.75</text>
<line x1="1120.0" y1="120" x2="1120.0" y2="590" stroke="#e5dfd5" stroke-width="1"/>
<text x="1108.0" y="620" font-family="Hiragino Sans, Yu Gothic, sans-serif" font-size="13" fill="#555">1.00</text>
<rect x="735" y="94" width="28" height="12" fill="#4c6f5b" opacity="0.86"/>
<text x="770" y="105" font-family="Hiragino Sans, Yu Gothic, sans-serif" font-size="13" fill="#555">上下左右近傍</text>
<circle cx="910" cy="100" r="6" fill="#b05a46" opacity="0.9"/>
<text x="925" y="105" font-family="Hiragino Sans, Yu Gothic, sans-serif" font-size="13" fill="#555">8近傍</text>
<text x="70" y="153" font-family="Hiragino Sans, Yu Gothic, sans-serif" font-size="16" fill="#222">Spiral</text>
<rect x="270" y="130" width="679.7" height="34" fill="#4c6f5b" opacity="0.86"/>
<text x="959.7" y="153" font-family="Hiragino Sans, Yu Gothic, sans-serif" font-size="14" fill="#333">pct 0.800, z 0.84, mean 0.4642</text>
<circle cx="959.3" cy="147" r="6" fill="#b05a46" opacity="0.9"/>
<line x1="959.3" y1="134" x2="959.3" y2="160" stroke="#b05a46" stroke-width="1" opacity="0.65"/>
<text x="70" y="213" font-family="Hiragino Sans, Yu Gothic, sans-serif" font-size="16" fill="#222">Diagonal NW-SE</text>
<rect x="270" y="190" width="574.6" height="34" fill="#4c6f5b" opacity="0.86"/>
<text x="854.6" y="213" font-family="Hiragino Sans, Yu Gothic, sans-serif" font-size="14" fill="#333">pct 0.676, z 0.46, mean 0.4614</text>
<circle cx="958.8" cy="207" r="6" fill="#b05a46" opacity="0.9"/>
<line x1="958.8" y1="194" x2="958.8" y2="220" stroke="#b05a46" stroke-width="1" opacity="0.65"/>
<text x="70" y="273" font-family="Hiragino Sans, Yu Gothic, sans-serif" font-size="16" fill="#222">Diagonal NE-SW</text>
<rect x="270" y="250" width="574.6" height="34" fill="#4c6f5b" opacity="0.86"/>
<text x="854.6" y="273" font-family="Hiragino Sans, Yu Gothic, sans-serif" font-size="14" fill="#333">pct 0.676, z 0.46, mean 0.4614</text>
<circle cx="958.8" cy="267" r="6" fill="#b05a46" opacity="0.9"/>
<line x1="958.8" y1="254" x2="958.8" y2="280" stroke="#b05a46" stroke-width="1" opacity="0.65"/>
<text x="70" y="333" font-family="Hiragino Sans, Yu Gothic, sans-serif" font-size="16" fill="#222">Row Major</text>
<rect x="270" y="310" width="318.8" height="34" fill="#777777" opacity="0.86"/>
<text x="598.8" y="333" font-family="Hiragino Sans, Yu Gothic, sans-serif" font-size="14" fill="#333">pct 0.375, z -0.32, mean 0.4577</text>
<circle cx="771.7" cy="327" r="6" fill="#b05a46" opacity="0.9"/>
<line x1="771.7" y1="314" x2="771.7" y2="340" stroke="#b05a46" stroke-width="1" opacity="0.65"/>
<text x="70" y="393" font-family="Hiragino Sans, Yu Gothic, sans-serif" font-size="16" fill="#222">Column Major</text>
<rect x="270" y="370" width="318.8" height="34" fill="#777777" opacity="0.86"/>
<text x="598.8" y="393" font-family="Hiragino Sans, Yu Gothic, sans-serif" font-size="14" fill="#333">pct 0.375, z -0.32, mean 0.4577</text>
<circle cx="771.7" cy="387" r="6" fill="#b05a46" opacity="0.9"/>
<line x1="771.7" y1="374" x2="771.7" y2="400" stroke="#b05a46" stroke-width="1" opacity="0.65"/>
<text x="70" y="453" font-family="Hiragino Sans, Yu Gothic, sans-serif" font-size="16" fill="#222">Row Serpentine</text>
<rect x="270" y="430" width="309.7" height="34" fill="#777777" opacity="0.86"/>
<text x="589.7" y="453" font-family="Hiragino Sans, Yu Gothic, sans-serif" font-size="14" fill="#333">pct 0.364, z -0.34, mean 0.4575</text>
<circle cx="616.8" cy="447" r="6" fill="#b05a46" opacity="0.9"/>
<line x1="616.8" y1="434" x2="616.8" y2="460" stroke="#b05a46" stroke-width="1" opacity="0.65"/>
<text x="70" y="513" font-family="Hiragino Sans, Yu Gothic, sans-serif" font-size="16" fill="#222">Column Serpentine</text>
<rect x="270" y="490" width="309.7" height="34" fill="#777777" opacity="0.86"/>
<text x="589.7" y="513" font-family="Hiragino Sans, Yu Gothic, sans-serif" font-size="14" fill="#333">pct 0.364, z -0.34, mean 0.4575</text>
<circle cx="616.8" cy="507" r="6" fill="#b05a46" opacity="0.9"/>
<line x1="616.8" y1="494" x2="616.8" y2="520" stroke="#b05a46" stroke-width="1" opacity="0.65"/>
<text x="70" y="670" font-family="Hiragino Sans, Yu Gothic, sans-serif" font-size="13" fill="#666">注意: 各配置で24通りの差し替え割当から最良値を表示しているため、ここにも探索バイアスがある。</text>
<text x="70" y="694" font-family="Hiragino Sans, Yu Gothic, sans-serif" font-size="13" fill="#666">観察: 共通歌固定では最大でも percentile 約0.81、z 約0.88。自由配置時の百人秀歌10x10シグナルより弱い。</text>
</svg>
