<svg xmlns="http://www.w3.org/2000/svg" width="1280" height="752" viewBox="0 0 1280 752" role="img">
<defs>
  <filter id="shadow" x="-12%" y="-12%" width="124%" height="124%">
    <feDropShadow dx="0" dy="16" stdDeviation="16" flood-color="#202124" flood-opacity="0.11"/>
  </filter>
  <linearGradient id="barGloss" x1="0" x2="1" y1="0" y2="0">
    <stop offset="0%" stop-color="#ffffff" stop-opacity="0.18"/>
    <stop offset="100%" stop-color="#ffffff" stop-opacity="0"/>
  </linearGradient>
</defs>
<rect width="1280" height="752" fill="#fbfaf7"/>
<rect x="34" y="34" width="1212" height="684" rx="18" fill="#fffdf8" stroke="#ded6c9" filter="url(#shadow)"/>
<text x="78" y="82" fill="#526b55" font-family="Hiragino Mincho ProN, Yu Mincho, serif" font-size="32" font-weight="700" letter-spacing="0">百人秀歌基準・共通97首固定比較</text>
<text x="78" y="116" fill="#6f6a62" font-family="Hiragino Sans, Yu Gothic, sans-serif" font-size="17" letter-spacing="0">共通97首のセルを固定し、百人秀歌側の差し替えセルへ小倉74・99・100を入れる。</text>
<rect x="860" y="78" width="130" height="34" fill="#f4f1ea" stroke="#526b55" rx="17" stroke-width="1.4"/>
<text x="925.0" y="101" fill="#526b55" font-family="Hiragino Sans, Yu Gothic, sans-serif" font-size="15" font-weight="700" text-anchor="middle" letter-spacing="0">百人秀歌</text>
<rect x="1004" y="78" width="138" height="34" fill="#f4f1ea" stroke="#9a3f2f" rx="17" stroke-width="1.4"/>
<text x="1073.0" y="101" fill="#9a3f2f" font-family="Hiragino Sans, Yu Gothic, sans-serif" font-size="15" font-weight="700" text-anchor="middle" letter-spacing="0">小倉差替</text>
<rect x="1154" y="78" width="104" height="34" fill="#f4f1ea" stroke="#4b2447" rx="17" stroke-width="1.4"/>
<text x="1206.0" y="101" fill="#4b2447" font-family="Hiragino Sans, Yu Gothic, sans-serif" font-size="15" font-weight="700" text-anchor="middle" letter-spacing="0">上下左右</text>
<line x1="310" y1="164" x2="310" y2="636" stroke="#ded6c9" stroke-width="1" opacity="0.75"/>
<text x="310" y="152" fill="#6f6a62" font-family="Hiragino Sans, Yu Gothic, sans-serif" font-size="13" text-anchor="middle" letter-spacing="0">0</text>
<line x1="465.0" y1="164" x2="465.0" y2="636" stroke="#ded6c9" stroke-width="1" opacity="0.75"/>
<text x="465.0" y="152" fill="#6f6a62" font-family="Hiragino Sans, Yu Gothic, sans-serif" font-size="13" text-anchor="middle" letter-spacing="0">0.25</text>
<line x1="620.0" y1="164" x2="620.0" y2="636" stroke="#ded6c9" stroke-width="1" opacity="0.75"/>
<text x="620.0" y="152" fill="#6f6a62" font-family="Hiragino Sans, Yu Gothic, sans-serif" font-size="13" text-anchor="middle" letter-spacing="0">0.50</text>
<line x1="775.0" y1="164" x2="775.0" y2="636" stroke="#ded6c9" stroke-width="1" opacity="0.75"/>
<text x="775.0" y="152" fill="#6f6a62" font-family="Hiragino Sans, Yu Gothic, sans-serif" font-size="13" text-anchor="middle" letter-spacing="0">0.75</text>
<line x1="930.0" y1="164" x2="930.0" y2="636" stroke="#ded6c9" stroke-width="1" opacity="0.75"/>
<text x="930.0" y="152" fill="#6f6a62" font-family="Hiragino Sans, Yu Gothic, sans-serif" font-size="13" text-anchor="middle" letter-spacing="0">1</text>
<line x1="310" y1="636" x2="930" y2="636" stroke="#ded6c9" stroke-width="1.2"/>
<text x="78" y="166" fill="#6f6a62" font-family="Hiragino Sans, Yu Gothic, sans-serif" font-size="14" font-weight="700" letter-spacing="0">置き方</text>
<text x="982" y="166" fill="#6f6a62" font-family="Hiragino Sans, Yu Gothic, sans-serif" font-size="14" font-weight="700" text-anchor="middle" letter-spacing="0">百人秀歌</text>
<text x="1088" y="166" fill="#6f6a62" font-family="Hiragino Sans, Yu Gothic, sans-serif" font-size="14" font-weight="700" text-anchor="middle" letter-spacing="0">小倉差替</text>
<text x="1190" y="166" fill="#6f6a62" font-family="Hiragino Sans, Yu Gothic, sans-serif" font-size="14" font-weight="700" text-anchor="middle" letter-spacing="0">小倉z</text>
<text x="78" y="217" fill="#202124" font-family="Hiragino Sans, Yu Gothic, sans-serif" font-size="18" font-weight="700" letter-spacing="0">渦巻き型</text>
<rect x="310" y="188" width="620" height="20" fill="#ede8dd" rx="10.0"/>
<rect x="310" y="188" width="291.64799999999997" height="20" fill="#526b55" rx="10.0" opacity="0.93"/>
<rect x="310" y="188" width="291.64799999999997" height="20" fill="url(#barGloss)" rx="10.0"/>
<text x="591.6479999999999" y="201" fill="#fffdf8" font-family="Hiragino Sans, Yu Gothic, sans-serif" font-size="14" font-weight="700" text-anchor="end" letter-spacing="0">0.470</text>
<rect x="310" y="214" width="620" height="20" fill="#ede8dd" rx="10.0"/>
<rect x="310" y="214" width="601.4" height="20" fill="#9a3f2f" rx="10.0" opacity="0.93"/>
<rect x="310" y="214" width="601.4" height="20" fill="url(#barGloss)" rx="10.0"/>
<text x="901.4" y="227" fill="#fffdf8" font-family="Hiragino Sans, Yu Gothic, sans-serif" font-size="14" font-weight="700" text-anchor="end" letter-spacing="0">0.970</text>
<text x="982" y="206" fill="#202124" font-family="Hiragino Sans, Yu Gothic, sans-serif" font-size="15" text-anchor="middle" letter-spacing="0">0.470</text>
<text x="1088" y="232" fill="#202124" font-family="Hiragino Sans, Yu Gothic, sans-serif" font-size="15" text-anchor="middle" letter-spacing="0">0.970</text>
<text x="1190" y="232" fill="#6f6a62" font-family="Hiragino Sans, Yu Gothic, sans-serif" font-size="15" text-anchor="middle" letter-spacing="0">1.93</text>
<text x="78" y="279" fill="#202124" font-family="Hiragino Sans, Yu Gothic, sans-serif" font-size="18" font-weight="700" letter-spacing="0">斜め NW-SE</text>
<rect x="310" y="250" width="620" height="20" fill="#ede8dd" rx="10.0"/>
<rect x="310" y="250" width="589.868" height="20" fill="#526b55" rx="10.0" opacity="0.93"/>
<rect x="310" y="250" width="589.868" height="20" fill="url(#barGloss)" rx="10.0"/>
<text x="889.868" y="263" fill="#fffdf8" font-family="Hiragino Sans, Yu Gothic, sans-serif" font-size="14" font-weight="700" text-anchor="end" letter-spacing="0">0.951</text>
<rect x="310" y="276" width="620" height="20" fill="#ede8dd" rx="10.0"/>
<rect x="310" y="276" width="586.458" height="20" fill="#9a3f2f" rx="10.0" opacity="0.93"/>
<rect x="310" y="276" width="586.458" height="20" fill="url(#barGloss)" rx="10.0"/>
<text x="886.458" y="289" fill="#fffdf8" font-family="Hiragino Sans, Yu Gothic, sans-serif" font-size="14" font-weight="700" text-anchor="end" letter-spacing="0">0.946</text>
<text x="982" y="268" fill="#202124" font-family="Hiragino Sans, Yu Gothic, sans-serif" font-size="15" text-anchor="middle" letter-spacing="0">0.951</text>
<text x="1088" y="294" fill="#202124" font-family="Hiragino Sans, Yu Gothic, sans-serif" font-size="15" text-anchor="middle" letter-spacing="0">0.946</text>
<text x="1190" y="294" fill="#6f6a62" font-family="Hiragino Sans, Yu Gothic, sans-serif" font-size="15" text-anchor="middle" letter-spacing="0">1.63</text>
<text x="78" y="341" fill="#202124" font-family="Hiragino Sans, Yu Gothic, sans-serif" font-size="18" font-weight="700" letter-spacing="0">斜め NE-SW</text>
<rect x="310" y="312" width="620" height="20" fill="#ede8dd" rx="10.0"/>
<rect x="310" y="312" width="589.868" height="20" fill="#526b55" rx="10.0" opacity="0.93"/>
<rect x="310" y="312" width="589.868" height="20" fill="url(#barGloss)" rx="10.0"/>
<text x="889.868" y="325" fill="#fffdf8" font-family="Hiragino Sans, Yu Gothic, sans-serif" font-size="14" font-weight="700" text-anchor="end" letter-spacing="0">0.951</text>
<rect x="310" y="338" width="620" height="20" fill="#ede8dd" rx="10.0"/>
<rect x="310" y="338" width="586.458" height="20" fill="#9a3f2f" rx="10.0" opacity="0.93"/>
<rect x="310" y="338" width="586.458" height="20" fill="url(#barGloss)" rx="10.0"/>
<text x="886.458" y="351" fill="#fffdf8" font-family="Hiragino Sans, Yu Gothic, sans-serif" font-size="14" font-weight="700" text-anchor="end" letter-spacing="0">0.946</text>
<text x="982" y="330" fill="#202124" font-family="Hiragino Sans, Yu Gothic, sans-serif" font-size="15" text-anchor="middle" letter-spacing="0">0.951</text>
<text x="1088" y="356" fill="#202124" font-family="Hiragino Sans, Yu Gothic, sans-serif" font-size="15" text-anchor="middle" letter-spacing="0">0.946</text>
<text x="1190" y="356" fill="#6f6a62" font-family="Hiragino Sans, Yu Gothic, sans-serif" font-size="15" text-anchor="middle" letter-spacing="0">1.63</text>
<text x="78" y="403" fill="#202124" font-family="Hiragino Sans, Yu Gothic, sans-serif" font-size="18" font-weight="700" letter-spacing="0">行つづら折り</text>
<rect x="310" y="374" width="620" height="20" fill="#ede8dd" rx="10.0"/>
<rect x="310" y="374" width="390.41400000000004" height="20" fill="#526b55" rx="10.0" opacity="0.93"/>
<rect x="310" y="374" width="390.41400000000004" height="20" fill="url(#barGloss)" rx="10.0"/>
<text x="690.414" y="387" fill="#fffdf8" font-family="Hiragino Sans, Yu Gothic, sans-serif" font-size="14" font-weight="700" text-anchor="end" letter-spacing="0">0.630</text>
<rect x="310" y="400" width="620" height="20" fill="#ede8dd" rx="10.0"/>
<rect x="310" y="400" width="522.722" height="20" fill="#9a3f2f" rx="10.0" opacity="0.93"/>
<rect x="310" y="400" width="522.722" height="20" fill="url(#barGloss)" rx="10.0"/>
<text x="822.722" y="413" fill="#fffdf8" font-family="Hiragino Sans, Yu Gothic, sans-serif" font-size="14" font-weight="700" text-anchor="end" letter-spacing="0">0.843</text>
<text x="982" y="392" fill="#202124" font-family="Hiragino Sans, Yu Gothic, sans-serif" font-size="15" text-anchor="middle" letter-spacing="0">0.630</text>
<text x="1088" y="418" fill="#202124" font-family="Hiragino Sans, Yu Gothic, sans-serif" font-size="15" text-anchor="middle" letter-spacing="0">0.843</text>
<text x="1190" y="418" fill="#6f6a62" font-family="Hiragino Sans, Yu Gothic, sans-serif" font-size="15" text-anchor="middle" letter-spacing="0">1.02</text>
<text x="78" y="465" fill="#202124" font-family="Hiragino Sans, Yu Gothic, sans-serif" font-size="18" font-weight="700" letter-spacing="0">列つづら折り</text>
<rect x="310" y="436" width="620" height="20" fill="#ede8dd" rx="10.0"/>
<rect x="310" y="436" width="390.41400000000004" height="20" fill="#526b55" rx="10.0" opacity="0.93"/>
<rect x="310" y="436" width="390.41400000000004" height="20" fill="url(#barGloss)" rx="10.0"/>
<text x="690.414" y="449" fill="#fffdf8" font-family="Hiragino Sans, Yu Gothic, sans-serif" font-size="14" font-weight="700" text-anchor="end" letter-spacing="0">0.630</text>
<rect x="310" y="462" width="620" height="20" fill="#ede8dd" rx="10.0"/>
<rect x="310" y="462" width="522.722" height="20" fill="#9a3f2f" rx="10.0" opacity="0.93"/>
<rect x="310" y="462" width="522.722" height="20" fill="url(#barGloss)" rx="10.0"/>
<text x="822.722" y="475" fill="#fffdf8" font-family="Hiragino Sans, Yu Gothic, sans-serif" font-size="14" font-weight="700" text-anchor="end" letter-spacing="0">0.843</text>
<text x="982" y="454" fill="#202124" font-family="Hiragino Sans, Yu Gothic, sans-serif" font-size="15" text-anchor="middle" letter-spacing="0">0.630</text>
<text x="1088" y="480" fill="#202124" font-family="Hiragino Sans, Yu Gothic, sans-serif" font-size="15" text-anchor="middle" letter-spacing="0">0.843</text>
<text x="1190" y="480" fill="#6f6a62" font-family="Hiragino Sans, Yu Gothic, sans-serif" font-size="15" text-anchor="middle" letter-spacing="0">1.02</text>
<text x="78" y="527" fill="#202124" font-family="Hiragino Sans, Yu Gothic, sans-serif" font-size="18" font-weight="700" letter-spacing="0">通常行型</text>
<rect x="310" y="498" width="620" height="20" fill="#ede8dd" rx="10.0"/>
<rect x="310" y="498" width="268.646" height="20" fill="#526b55" rx="10.0" opacity="0.93"/>
<rect x="310" y="498" width="268.646" height="20" fill="url(#barGloss)" rx="10.0"/>
<text x="568.646" y="511" fill="#fffdf8" font-family="Hiragino Sans, Yu Gothic, sans-serif" font-size="14" font-weight="700" text-anchor="end" letter-spacing="0">0.433</text>
<rect x="310" y="524" width="620" height="20" fill="#ede8dd" rx="10.0"/>
<rect x="310" y="524" width="512.554" height="20" fill="#9a3f2f" rx="10.0" opacity="0.93"/>
<rect x="310" y="524" width="512.554" height="20" fill="url(#barGloss)" rx="10.0"/>
<text x="812.554" y="537" fill="#fffdf8" font-family="Hiragino Sans, Yu Gothic, sans-serif" font-size="14" font-weight="700" text-anchor="end" letter-spacing="0">0.827</text>
<text x="982" y="516" fill="#202124" font-family="Hiragino Sans, Yu Gothic, sans-serif" font-size="15" text-anchor="middle" letter-spacing="0">0.433</text>
<text x="1088" y="542" fill="#202124" font-family="Hiragino Sans, Yu Gothic, sans-serif" font-size="15" text-anchor="middle" letter-spacing="0">0.827</text>
<text x="1190" y="542" fill="#6f6a62" font-family="Hiragino Sans, Yu Gothic, sans-serif" font-size="15" text-anchor="middle" letter-spacing="0">0.95</text>
<text x="78" y="589" fill="#202124" font-family="Hiragino Sans, Yu Gothic, sans-serif" font-size="18" font-weight="700" letter-spacing="0">通常列型</text>
<rect x="310" y="560" width="620" height="20" fill="#ede8dd" rx="10.0"/>
<rect x="310" y="560" width="268.646" height="20" fill="#526b55" rx="10.0" opacity="0.93"/>
<rect x="310" y="560" width="268.646" height="20" fill="url(#barGloss)" rx="10.0"/>
<text x="568.646" y="573" fill="#fffdf8" font-family="Hiragino Sans, Yu Gothic, sans-serif" font-size="14" font-weight="700" text-anchor="end" letter-spacing="0">0.433</text>
<rect x="310" y="586" width="620" height="20" fill="#ede8dd" rx="10.0"/>
<rect x="310" y="586" width="512.554" height="20" fill="#9a3f2f" rx="10.0" opacity="0.93"/>
<rect x="310" y="586" width="512.554" height="20" fill="url(#barGloss)" rx="10.0"/>
<text x="812.554" y="599" fill="#fffdf8" font-family="Hiragino Sans, Yu Gothic, sans-serif" font-size="14" font-weight="700" text-anchor="end" letter-spacing="0">0.827</text>
<text x="982" y="578" fill="#202124" font-family="Hiragino Sans, Yu Gothic, sans-serif" font-size="15" text-anchor="middle" letter-spacing="0">0.433</text>
<text x="1088" y="604" fill="#202124" font-family="Hiragino Sans, Yu Gothic, sans-serif" font-size="15" text-anchor="middle" letter-spacing="0">0.827</text>
<text x="1190" y="604" fill="#6f6a62" font-family="Hiragino Sans, Yu Gothic, sans-serif" font-size="15" text-anchor="middle" letter-spacing="0">0.95</text>
<rect x="78" y="644" width="540" height="70" fill="#f6efe4" stroke="#a77d35" rx="14" stroke-width="1.2"/>
<text x="104" y="672" fill="#a77d35" font-family="Hiragino Sans, Yu Gothic, sans-serif" font-size="16" font-weight="700" letter-spacing="0">上下左右の最高</text>
<text x="104" y="698" fill="#202124" font-family="Hiragino Sans, Yu Gothic, sans-serif" font-size="17" font-weight="700" letter-spacing="0">渦巻き型 / S053枠外 / 小倉差替 percentile 0.970</text>
<rect x="642" y="644" width="560" height="70" fill="#f1e8ef" stroke="#4b2447" rx="14" stroke-width="1.2"/>
<text x="668" y="672" fill="#4b2447" font-family="Hiragino Sans, Yu Gothic, sans-serif" font-size="16" font-weight="700" letter-spacing="0">8近傍の最高</text>
<text x="668" y="698" fill="#202124" font-family="Hiragino Sans, Yu Gothic, sans-serif" font-size="17" font-weight="700" letter-spacing="0">斜め型 / S076枠外 / 小倉差替 percentile 0.988</text>
</svg>
