<svg xmlns="http://www.w3.org/2000/svg" width="1280" height="900" viewBox="0 0 1280 900">
<rect width="1280" height="900" fill="#fbfaf7"/>
<text x="92" y="48" font-family="Hiragino Mincho ProN, Yu Mincho, serif" font-size="30" fill="#222">小倉100首＋百人秀歌差分4首 PCA</text>
<text x="92" y="78" font-family="Hiragino Sans, Yu Gothic, sans-serif" font-size="15" fill="#555">text-embedding-3-small / 本文のみ。小倉100首に、百人秀歌側だけの4首を追加して同じ2次元に投影。</text>
<rect x="92" y="105" width="878" height="709" fill="#fffefa" stroke="#d9d1c2"/>
<line x1="92" y1="387.12" x2="970" y2="387.12" stroke="#e4ded4" stroke-width="1"/>
<line x1="526.57" y1="105" x2="526.57" y2="814" stroke="#e4ded4" stroke-width="1"/>
<circle cx="316.34" cy="281.52" r="5.4" fill="#c27a00" opacity="0.28"/>
<circle cx="261.25" cy="354.09" r="5.4" fill="#008c95" opacity="0.28"/>
<circle cx="430.63" cy="397.86" r="5.4" fill="#c44f73" opacity="0.28"/>
<circle cx="291.61" cy="152.59" r="5.4" fill="#3f6fb5" opacity="0.28"/>
<circle cx="286.65" cy="397.68" r="5.4" fill="#c27a00" opacity="0.28"/>
<circle cx="370.89" cy="403.64" r="5.4" fill="#3f6fb5" opacity="0.28"/>
<circle cx="231.43" cy="510.56" r="5.4" fill="#7b61b8" opacity="0.28"/>
<circle cx="610.94" cy="258.40" r="5.4" fill="#666666" opacity="0.28"/>
<circle cx="617.01" cy="381.62" r="5.4" fill="#64a338" opacity="0.28"/>
<circle cx="646.59" cy="304.92" r="5.4" fill="#666666" opacity="0.28"/>
<circle cx="646.40" cy="142.98" r="5.4" fill="#7b61b8" opacity="0.28"/>
<circle cx="377.17" cy="442.72" r="5.4" fill="#666666" opacity="0.28"/>
<circle cx="513.37" cy="174.95" r="5.4" fill="#c44f73" opacity="0.28"/>
<circle cx="646.73" cy="248.55" r="5.4" fill="#c44f73" opacity="0.28"/>
<circle cx="302.16" cy="343.45" r="5.4" fill="#64a338" opacity="0.28"/>
<circle cx="498.64" cy="245.69" r="5.4" fill="#bd5e21" opacity="0.28"/>
<circle cx="499.71" cy="153.14" r="5.4" fill="#c27a00" opacity="0.28"/>
<circle cx="575.00" cy="314.20" r="5.4" fill="#c44f73" opacity="0.28"/>
<circle cx="620.57" cy="221.12" r="5.4" fill="#c44f73" opacity="0.28"/>
<circle cx="822.21" cy="439.91" r="5.4" fill="#c44f73" opacity="0.28"/>
<circle cx="414.15" cy="654.18" r="5.4" fill="#c44f73" opacity="0.28"/>
<circle cx="275.31" cy="268.98" r="5.4" fill="#c27a00" opacity="0.28"/>
<circle cx="347.32" cy="635.04" r="5.4" fill="#c27a00" opacity="0.28"/>
<circle cx="322.86" cy="264.18" r="5.4" fill="#7b61b8" opacity="0.28"/>
<circle cx="621.32" cy="159.58" r="5.4" fill="#c44f73" opacity="0.28"/>
<circle cx="430.16" cy="237.85" r="5.4" fill="#c27a00" opacity="0.28"/>
<circle cx="590.72" cy="288.10" r="5.4" fill="#c44f73" opacity="0.28"/>
<circle cx="443.70" cy="427.14" r="5.4" fill="#3f6fb5" opacity="0.28"/>
<circle cx="357.53" cy="482.05" r="5.4" fill="#c27a00" opacity="0.28"/>
<circle cx="511.07" cy="710.20" r="5.4" fill="#c44f73" opacity="0.28"/>
<circle cx="219.17" cy="481.81" r="5.4" fill="#3f6fb5" opacity="0.28"/>
<circle cx="295.24" cy="301.99" r="5.4" fill="#c27a00" opacity="0.28"/>
<circle cx="344.25" cy="412.70" r="5.4" fill="#64a338" opacity="0.28"/>
<circle cx="627.59" cy="267.49" r="5.4" fill="#666666" opacity="0.28"/>
<circle cx="707.06" cy="359.25" r="5.4" fill="#64a338" opacity="0.28"/>
<circle cx="244.31" cy="637.46" r="5.4" fill="#008c95" opacity="0.28"/>
<circle cx="178.23" cy="364.73" r="5.4" fill="#c27a00" opacity="0.28"/>
<circle cx="912.16" cy="571.75" r="5.4" fill="#c44f73" opacity="0.28"/>
<circle cx="656.79" cy="283.70" r="5.4" fill="#c44f73" opacity="0.28"/>
<circle cx="764.41" cy="469.09" r="5.4" fill="#c44f73" opacity="0.28"/>
<circle cx="799.36" cy="402.86" r="5.4" fill="#c44f73" opacity="0.28"/>
<circle cx="548.95" cy="259.18" r="5.4" fill="#c44f73" opacity="0.28"/>
<circle cx="743.69" cy="535.71" r="5.4" fill="#c44f73" opacity="0.28"/>
<circle cx="828.24" cy="432.37" r="5.4" fill="#c44f73" opacity="0.28"/>
<circle cx="825.28" cy="535.25" r="5.4" fill="#c44f73" opacity="0.28"/>
<circle cx="749.48" cy="306.08" r="5.4" fill="#c44f73" opacity="0.28"/>
<circle cx="342.64" cy="424.75" r="5.4" fill="#c27a00" opacity="0.28"/>
<circle cx="627.41" cy="267.83" r="5.4" fill="#c44f73" opacity="0.28"/>
<circle cx="498.95" cy="545.94" r="5.4" fill="#c44f73" opacity="0.28"/>
<circle cx="840.82" cy="563.85" r="5.4" fill="#c44f73" opacity="0.28"/>
<circle cx="687.46" cy="342.29" r="5.4" fill="#c44f73" opacity="0.28"/>
<circle cx="623.16" cy="570.15" r="5.4" fill="#c44f73" opacity="0.28"/>
<circle cx="483.40" cy="688.50" r="5.4" fill="#c44f73" opacity="0.28"/>
<circle cx="808.55" cy="505.73" r="5.4" fill="#c44f73" opacity="0.28"/>
<circle cx="571.35" cy="238.41" r="5.4" fill="#666666" opacity="0.28"/>
<circle cx="798.76" cy="481.08" r="5.4" fill="#c44f73" opacity="0.28"/>
<circle cx="403.96" cy="690.62" r="5.4" fill="#666666" opacity="0.28"/>
<circle cx="609.07" cy="250.81" r="5.4" fill="#c44f73" opacity="0.28"/>
<circle cx="374.08" cy="674.11" r="5.4" fill="#c44f73" opacity="0.28"/>
<circle cx="416.29" cy="284.14" r="5.4" fill="#666666" opacity="0.28"/>
<circle cx="535.55" cy="256.36" r="5.4" fill="#64a338" opacity="0.28"/>
<circle cx="430.91" cy="391.70" r="5.4" fill="#666666" opacity="0.28"/>
<circle cx="878.02" cy="495.21" r="5.4" fill="#c44f73" opacity="0.28"/>
<circle cx="432.86" cy="154.12" r="5.4" fill="#3f6fb5" opacity="0.28"/>
<circle cx="774.72" cy="440.46" r="5.4" fill="#c44f73" opacity="0.28"/>
<circle cx="627.55" cy="306.74" r="5.4" fill="#666666" opacity="0.28"/>
<circle cx="488.46" cy="556.90" r="5.4" fill="#666666" opacity="0.28"/>
<circle cx="564.91" cy="776.02" r="5.4" fill="#666666" opacity="0.28"/>
<circle cx="281.80" cy="159.17" r="5.4" fill="#c27a00" opacity="0.28"/>
<circle cx="310.47" cy="617.08" r="5.4" fill="#c27a00" opacity="0.28"/>
<circle cx="233.62" cy="359.69" r="5.4" fill="#c27a00" opacity="0.28"/>
<circle cx="530.71" cy="203.13" r="5.4" fill="#c44f73" opacity="0.28"/>
<circle cx="370.11" cy="264.68" r="5.4" fill="#64a338" opacity="0.28"/>
<circle cx="662.95" cy="228.74" r="5.4" fill="#c44f73" opacity="0.28"/>
<circle cx="480.06" cy="512.15" r="5.4" fill="#666666" opacity="0.28"/>
<circle cx="431.59" cy="273.99" r="5.4" fill="#666666" opacity="0.28"/>
<circle cx="643.46" cy="252.25" r="5.4" fill="#c44f73" opacity="0.28"/>
<circle cx="448.94" cy="326.02" r="5.4" fill="#3f6fb5" opacity="0.28"/>
<circle cx="251.35" cy="574.98" r="5.4" fill="#c27a00" opacity="0.28"/>
<circle cx="696.22" cy="444.24" r="5.4" fill="#c44f73" opacity="0.28"/>
<circle cx="347.29" cy="597.10" r="5.4" fill="#008c95" opacity="0.28"/>
<circle cx="792.17" cy="569.04" r="5.4" fill="#c44f73" opacity="0.28"/>
<circle cx="598.66" cy="255.59" r="5.4" fill="#666666" opacity="0.28"/>
<circle cx="782.40" cy="516.97" r="5.4" fill="#666666" opacity="0.28"/>
<circle cx="496.69" cy="702.03" r="5.4" fill="#c44f73" opacity="0.28"/>
<circle cx="560.15" cy="697.01" r="5.4" fill="#c44f73" opacity="0.28"/>
<circle cx="139.04" cy="388.62" r="5.4" fill="#c27a00" opacity="0.28"/>
<circle cx="504.21" cy="370.38" r="5.4" fill="#c44f73" opacity="0.28"/>
<circle cx="694.66" cy="376.84" r="5.4" fill="#c44f73" opacity="0.28"/>
<circle cx="573.89" cy="282.92" r="5.4" fill="#c44f73" opacity="0.28"/>
<circle cx="383.16" cy="510.43" r="5.4" fill="#c27a00" opacity="0.28"/>
<circle cx="638.09" cy="250.51" r="5.4" fill="#c44f73" opacity="0.28"/>
<circle cx="725.44" cy="222.35" r="5.4" fill="#7b61b8" opacity="0.28"/>
<circle cx="241.92" cy="404.56" r="5.4" fill="#c27a00" opacity="0.28"/>
<circle cx="603.17" cy="226.37" r="5.4" fill="#666666" opacity="0.28"/>
<circle cx="478.95" cy="283.33" r="5.4" fill="#666666" opacity="0.28"/>
<circle cx="648.95" cy="243.68" r="5.4" fill="#c44f73" opacity="0.28"/>
<circle cx="221.80" cy="349.27" r="5.4" fill="#008c95" opacity="0.28"/>
<circle cx="922.96" cy="520.75" r="5.4" fill="#666666" opacity="0.28"/>
<circle cx="620.19" cy="261.28" r="5.4" fill="#666666" opacity="0.28"/>
<line x1="394.21" y1="281.03" x2="662.95" y2="228.74" stroke="#7a4b88" stroke-width="2.6" stroke-dasharray="7 7" opacity="0.78"/>
<circle cx="662.95" cy="228.74" r="15" fill="#fffdfa" stroke="#9a3f2f" stroke-width="3.4"/>
<circle cx="662.95" cy="228.74" r="7" fill="#9a3f2f"/>
<circle cx="922.96" cy="520.75" r="15" fill="#fffdfa" stroke="#9a3f2f" stroke-width="3.4"/>
<circle cx="922.96" cy="520.75" r="7" fill="#9a3f2f"/>
<circle cx="620.19" cy="261.28" r="15" fill="#fffdfa" stroke="#9a3f2f" stroke-width="3.4"/>
<circle cx="620.19" cy="261.28" r="7" fill="#9a3f2f"/>
<polygon points="684.91,356.01 698.91,370.01 684.91,384.01 670.91,370.01" fill="#fffdfa" stroke="#235f78" stroke-width="3.4"/>
<polygon points="684.91,363.01 691.91,370.01 684.91,377.01 677.91,370.01" fill="#235f78"/>
<polygon points="635.01,281.58 649.01,295.58 635.01,309.58 621.01,295.58" fill="#fffdfa" stroke="#235f78" stroke-width="3.4"/>
<polygon points="635.01,288.58 642.01,295.58 635.01,302.58 628.01,295.58" fill="#235f78"/>
<polygon points="394.21,267.03 408.21,281.03 394.21,295.03 380.21,281.03" fill="#fffdfa" stroke="#235f78" stroke-width="3.4"/>
<polygon points="394.21,274.03 401.21,281.03 394.21,288.03 387.21,281.03" fill="#235f78"/>
<polygon points="591.75,230.78 605.75,244.78 591.75,258.78 577.75,244.78" fill="#fffdfa" stroke="#235f78" stroke-width="3.4"/>
<polygon points="591.75,237.78 598.75,244.78 591.75,251.78 584.75,244.78" fill="#235f78"/>
<line x1="684.91" y1="370.01" x2="702.91" y2="370.01" stroke="#235f78" stroke-width="1.7" opacity="0.68"/>
<rect x="702.91" y="357.01" width="150.00" height="27" rx="5" fill="#fffdfa" stroke="#235f78" stroke-width="1.25" opacity="0.96"/>
<text x="709.91" y="375.51" font-family="Hiragino Sans, Yu Gothic, sans-serif" font-size="13" font-weight="700" fill="#235f78">S053 一条院皇后宮</text>
<line x1="635.01" y1="295.58" x2="653.01" y2="295.58" stroke="#235f78" stroke-width="1.7" opacity="0.68"/>
<rect x="653.01" y="293.58" width="126.00" height="27" rx="5" fill="#fffdfa" stroke="#235f78" stroke-width="1.25" opacity="0.96"/>
<text x="660.01" y="312.08" font-family="Hiragino Sans, Yu Gothic, sans-serif" font-size="13" font-weight="700" fill="#235f78">S073 国信</text>
<line x1="394.21" y1="281.03" x2="376.21" y2="277.03" stroke="#235f78" stroke-width="1.7" opacity="0.68"/>
<rect x="244.21" y="250.03" width="132.00" height="27" rx="5" fill="#fffdfa" stroke="#235f78" stroke-width="1.25" opacity="0.96"/>
<text x="251.21" y="268.53" font-family="Hiragino Sans, Yu Gothic, sans-serif" font-size="13" font-weight="700" fill="#235f78">S076 源俊頼</text>
<line x1="591.75" y1="244.78" x2="573.75" y2="244.78" stroke="#235f78" stroke-width="1.7" opacity="0.68"/>
<rect x="459.75" y="217.78" width="114.00" height="27" rx="5" fill="#fffdfa" stroke="#235f78" stroke-width="1.25" opacity="0.96"/>
<text x="466.75" y="236.28" font-family="Hiragino Sans, Yu Gothic, sans-serif" font-size="13" font-weight="700" fill="#235f78">S090 長方</text>
<line x1="662.95" y1="228.74" x2="680.95" y2="228.74" stroke="#9a3f2f" stroke-width="1.7" opacity="0.68"/>
<rect x="680.95" y="210.74" width="132.00" height="27" rx="5" fill="#fffdfa" stroke="#9a3f2f" stroke-width="1.25" opacity="0.96"/>
<text x="687.95" y="229.24" font-family="Hiragino Sans, Yu Gothic, sans-serif" font-size="13" font-weight="700" fill="#9a3f2f">H074 源俊頼</text>
<line x1="922.96" y1="520.75" x2="906.96" y2="530.75" stroke="#9a3f2f" stroke-width="1.7" opacity="0.68"/>
<rect x="778.96" y="530.75" width="128.00" height="27" rx="5" fill="#fffdfa" stroke="#9a3f2f" stroke-width="1.25" opacity="0.96"/>
<text x="785.96" y="549.25" font-family="Hiragino Sans, Yu Gothic, sans-serif" font-size="13" font-weight="700" fill="#9a3f2f">H099 後鳥羽院</text>
<line x1="620.19" y1="261.28" x2="594.19" y2="291.28" stroke="#9a3f2f" stroke-width="1.7" opacity="0.68"/>
<rect x="488.19" y="291.28" width="106.00" height="27" rx="5" fill="#fffdfa" stroke="#9a3f2f" stroke-width="1.25" opacity="0.96"/>
<text x="495.19" y="309.78" font-family="Hiragino Sans, Yu Gothic, sans-serif" font-size="13" font-weight="700" fill="#9a3f2f">H100 順徳院</text>
<rect x="978" y="92" width="242" height="288" rx="8" fill="#fffefa" stroke="#d9d1c2"/>
<text x="1000" y="126" font-family="Hiragino Sans, Yu Gothic, sans-serif" font-size="16" font-weight="700" fill="#4b2447">読み方</text>
<circle cx="1000" cy="160" r="10" fill="#fffdfa" stroke="#9a3f2f" stroke-width="3"/>
<text x="1020" y="165" font-family="Hiragino Sans, Yu Gothic, sans-serif" font-size="13" fill="#333">小倉側だけの対応点</text>
<polygon points="1000.00,187.00 1010.00,197.00 1000.00,207.00 990.00,197.00" fill="#fffdfa" stroke="#235f78" stroke-width="3"/>
<text x="1020" y="202" font-family="Hiragino Sans, Yu Gothic, sans-serif" font-size="13" fill="#333">百人秀歌側だけの4首</text>
<line x1="990" y1="231" x2="1010" y2="231" stroke="#7a4b88" stroke-width="2" stroke-dasharray="6 6"/>
<text x="1020" y="236" font-family="Hiragino Sans, Yu Gothic, sans-serif" font-size="13" fill="#333">同歌人の別歌対応</text>
<text x="1000" y="278" font-family="Hiragino Sans, Yu Gothic, sans-serif" font-size="13" fill="#555">PC1+PC2寄与率: 12.1%</text>
<text x="1000" y="304" font-family="Hiragino Sans, Yu Gothic, sans-serif" font-size="13" fill="#555">点の近さは手がかり。</text>
<text x="1000" y="326" font-family="Hiragino Sans, Yu Gothic, sans-serif" font-size="13" fill="#555">本文・ベクトルは非公開。</text>
<text x="92" y="850" font-family="Hiragino Sans, Yu Gothic, sans-serif" font-size="13" fill="#666">注: これは小倉100首のみの図とは別に、小倉100首＋百人秀歌差分4首でPCAをかけ直した図。百人秀歌本文は公開せず、ラベルと位置だけを示す。</text>
</svg>
