<svg xmlns="http://www.w3.org/2000/svg" width="1240" height="760" viewBox="0 0 1240 760">
<rect width="1240" height="760" fill="#fbfaf7"/>
<text x="70" y="48" font-family="Hiragino Sans, Yu Gothic, sans-serif" font-size="28" fill="#222">百人秀歌基準・共通97首固定比較</text>
<text x="70" y="78" font-family="Hiragino Sans, Yu Gothic, sans-serif" font-size="15" fill="#555">百人秀歌から1首を外して10x10へ配置。共通97首のセルを固定し、差し替えセルに小倉74/99/100を入れる。</text>
<text x="70" y="103" font-family="Hiragino Sans, Yu Gothic, sans-serif" font-size="14" fill="#666">棒は上下左右近傍平均のランダムpercentile。各配置で最良条件を表示。</text>
<line x1="280.0" y1="124" x2="280.0" y2="640" stroke="#e5dfd5" stroke-width="1"/>
<text x="268.0" y="670" font-family="Hiragino Sans, Yu Gothic, sans-serif" font-size="13" fill="#555">0.00</text>
<line x1="492.5" y1="124" x2="492.5" y2="640" stroke="#e5dfd5" stroke-width="1"/>
<text x="480.5" y="670" font-family="Hiragino Sans, Yu Gothic, sans-serif" font-size="13" fill="#555">0.25</text>
<line x1="705.0" y1="124" x2="705.0" y2="640" stroke="#d7cfc3" stroke-width="1.5"/>
<text x="693.0" y="670" font-family="Hiragino Sans, Yu Gothic, sans-serif" font-size="13" fill="#555">0.50</text>
<line x1="917.5" y1="124" x2="917.5" y2="640" stroke="#e5dfd5" stroke-width="1"/>
<text x="905.5" y="670" font-family="Hiragino Sans, Yu Gothic, sans-serif" font-size="13" fill="#555">0.75</text>
<line x1="1130.0" y1="124" x2="1130.0" y2="640" stroke="#e5dfd5" stroke-width="1"/>
<text x="1118.0" y="670" font-family="Hiragino Sans, Yu Gothic, sans-serif" font-size="13" fill="#555">1.00</text>
<rect x="720" y="94" width="28" height="12" fill="#4d6f56" opacity="0.88"/>
<text x="756" y="105" font-family="Hiragino Sans, Yu Gothic, sans-serif" font-size="13" fill="#555">百人秀歌そのもの</text>
<rect x="890" y="94" width="28" height="12" fill="#9b5b49" opacity="0.88"/>
<text x="926" y="105" font-family="Hiragino Sans, Yu Gothic, sans-serif" font-size="13" fill="#555">小倉へ差し替え</text>
<text x="70" y="163" font-family="Hiragino Sans, Yu Gothic, sans-serif" font-size="16" fill="#222">Spiral</text>
<rect x="280" y="135" width="406.3" height="24" fill="#4d6f56" opacity="0.88"/>
<rect x="280" y="164" width="810.6" height="24" fill="#9b5b49" opacity="0.88"/>
<text x="694.3" y="153" font-family="Hiragino Sans, Yu Gothic, sans-serif" font-size="13" fill="#333">Shuka pct 0.478, z -0.06</text>
<text x="1035.0" y="182" font-family="Hiragino Sans, Yu Gothic, sans-serif" font-size="13" fill="#333">Ogura pct 0.954, z 1.70</text>
<text x="70" y="235" font-family="Hiragino Sans, Yu Gothic, sans-serif" font-size="16" fill="#222">Diagonal NW-SE</text>
<rect x="280" y="207" width="785.6" height="24" fill="#4d6f56" opacity="0.88"/>
<rect x="280" y="236" width="783.5" height="24" fill="#9b5b49" opacity="0.88"/>
<text x="1035.0" y="225" font-family="Hiragino Sans, Yu Gothic, sans-serif" font-size="13" fill="#333">Shuka pct 0.924, z 1.44</text>
<text x="1035.0" y="254" font-family="Hiragino Sans, Yu Gothic, sans-serif" font-size="13" fill="#333">Ogura pct 0.922, z 1.43</text>
<text x="70" y="307" font-family="Hiragino Sans, Yu Gothic, sans-serif" font-size="16" fill="#222">Diagonal NE-SW</text>
<rect x="280" y="279" width="785.6" height="24" fill="#4d6f56" opacity="0.88"/>
<rect x="280" y="308" width="783.5" height="24" fill="#9b5b49" opacity="0.88"/>
<text x="1035.0" y="297" font-family="Hiragino Sans, Yu Gothic, sans-serif" font-size="13" fill="#333">Shuka pct 0.924, z 1.44</text>
<text x="1035.0" y="326" font-family="Hiragino Sans, Yu Gothic, sans-serif" font-size="13" fill="#333">Ogura pct 0.922, z 1.43</text>
<text x="70" y="379" font-family="Hiragino Sans, Yu Gothic, sans-serif" font-size="16" fill="#222">Row Serpentine</text>
<rect x="280" y="351" width="519.4" height="24" fill="#4d6f56" opacity="0.88"/>
<rect x="280" y="380" width="692.8" height="24" fill="#9b5b49" opacity="0.88"/>
<text x="807.4" y="369" font-family="Hiragino Sans, Yu Gothic, sans-serif" font-size="13" fill="#333">Shuka pct 0.611, z 0.28</text>
<text x="980.8" y="398" font-family="Hiragino Sans, Yu Gothic, sans-serif" font-size="13" fill="#333">Ogura pct 0.815, z 0.90</text>
<text x="70" y="451" font-family="Hiragino Sans, Yu Gothic, sans-serif" font-size="16" fill="#222">Column Serpentine</text>
<rect x="280" y="423" width="519.4" height="24" fill="#4d6f56" opacity="0.88"/>
<rect x="280" y="452" width="692.8" height="24" fill="#9b5b49" opacity="0.88"/>
<text x="807.4" y="441" font-family="Hiragino Sans, Yu Gothic, sans-serif" font-size="13" fill="#333">Shuka pct 0.611, z 0.28</text>
<text x="980.8" y="470" font-family="Hiragino Sans, Yu Gothic, sans-serif" font-size="13" fill="#333">Ogura pct 0.815, z 0.90</text>
<text x="70" y="523" font-family="Hiragino Sans, Yu Gothic, sans-serif" font-size="16" fill="#222">Row Major</text>
<rect x="280" y="495" width="371.0" height="24" fill="#4d6f56" opacity="0.88"/>
<rect x="280" y="524" width="679.3" height="24" fill="#9b5b49" opacity="0.88"/>
<text x="659.0" y="513" font-family="Hiragino Sans, Yu Gothic, sans-serif" font-size="13" fill="#333">Shuka pct 0.436, z -0.15</text>
<text x="967.3" y="542" font-family="Hiragino Sans, Yu Gothic, sans-serif" font-size="13" fill="#333">Ogura pct 0.799, z 0.84</text>
<text x="70" y="595" font-family="Hiragino Sans, Yu Gothic, sans-serif" font-size="16" fill="#222">Column Major</text>
<rect x="280" y="567" width="371.0" height="24" fill="#4d6f56" opacity="0.88"/>
<rect x="280" y="596" width="679.3" height="24" fill="#9b5b49" opacity="0.88"/>
<text x="659.0" y="585" font-family="Hiragino Sans, Yu Gothic, sans-serif" font-size="13" fill="#333">Shuka pct 0.436, z -0.15</text>
<text x="967.3" y="614" font-family="Hiragino Sans, Yu Gothic, sans-serif" font-size="13" fill="#333">Ogura pct 0.799, z 0.84</text>
<text x="70" y="714" font-family="Hiragino Sans, Yu Gothic, sans-serif" font-size="13" fill="#666">注意: 小倉差し替えは3!通りを探索している。高い値は仮説生成用であり、配置意図の証明ではない。</text>
<text x="70" y="737" font-family="Hiragino Sans, Yu Gothic, sans-serif" font-size="13" fill="#666">観察: 百人秀歌は斜めつづら折りで上がる。小倉へ差し替えても一部条件で上がるが、対応規則の精査が必要。</text>
</svg>
